  0
SECTION
  2
HEADER
  9
$ACADVER
  1
AC1015
  9
$ACADMAINTVER
 70
     6
  9
$DWGCODEPAGE
  3
ANSI_936
  9
$INSBASE
 10
0.0
 20
0.0
 30
0.0
  9
$EXTMIN
 10
-75.0
 20
0.0
 30
0.0
  9
$EXTMAX
 10
85.0
 20
290.0
 30
0.0
  9
$LIMMIN
 10
0.0
 20
0.0
  9
$LIMMAX
 10
420.0
 20
297.0
  9
$ORTHOMODE
 70
     0
  9
$REGENMODE
 70
     1
  9
$FILLMODE
 70
     1
  9
$QTEXTMODE
 70
     0
  9
$MIRRTEXT
 70
     1
  9
$LTSCALE
 40
1.0
  9
$ATTMODE
 70
     1
  9
$TEXTSIZE
 40
3.5
  9
$TRACEWID
 40
1.0
  9
$TEXTSTYLE
  7
Standard
  9
$CLAYER
  8
0
  9
$CELTYPE
  6
ByLayer
  9
$CECOLOR
 62
   256
  9
$CELTSCALE
 40
1.0
  9
$DISPSILH
 70
     0
  9
$DIMSCALE
 40
1.0
  9
$DIMASZ
 40
3.556
  9
$DIMEXO
 40
0.0
  9
$DIMDLI
 40
3.75
  9
$DIMRND
 40
0.0
  9
$DIMDLE
 40
0.0
  9
$DIMEXE
 40
1.0
  9
$DIMTP
 40
0.0
  9
$DIMTM
 40
0.0
  9
$DIMTXT
 40
3.5
  9
$DIMCEN
 40
2.5
  9
$DIMTSZ
 40
0.0
  9
$DIMTOL
 70
     0
  9
$DIMLIM
 70
     0
  9
$DIMTIH
 70
     1
  9
$DIMTOH
 70
     1
  9
$DIMSE1
 70
     0
  9
$DIMSE2
 70
     0
  9
$DIMTAD
 70
     1
  9
$DIMZIN
 70
     1
  9
$DIMBLK
  1

  9
$DIMASO
 70
     1
  9
$DIMSHO
 70
     1
  9
$DIMPOST
  1

  9
$DIMAPOST
  1

  9
$DIMALT
 70
     0
  9
$DIMALTD
 70
     3
  9
$DIMALTF
 40
0.0393700787
  9
$DIMLFAC
 40
1.0
  9
$DIMTOFL
 70
     1
  9
$DIMTVP
 40
0.0
  9
$DIMTIX
 70
     0
  9
$DIMSOXD
 70
     0
  9
$DIMSAH
 70
     0
  9
$DIMBLK1
  1

  9
$DIMBLK2
  1

  9
$DIMSTYLE
  2
ISO-25
  9
$DIMCLRD
 70
     0
  9
$DIMCLRE
 70
     0
  9
$DIMCLRT
 70
     0
  9
$DIMTFAC
 40
1.0
  9
$DIMGAP
 40
1.524
  9
$DIMJUST
 70
     0
  9
$DIMSD1
 70
     0
  9
$DIMSD2
 70
     0
  9
$DIMTOLJ
 70
     0
  9
$DIMTZIN
 70
     1
  9
$DIMALTZ
 70
     0
  9
$DIMALTTZ
 70
     0
  9
$DIMUPT
 70
     0
  9
$DIMDEC
 70
     2
  9
$DIMTDEC
 70
     2
  9
$DIMALTU
 70
     2
  9
$DIMALTTD
 70
     3
  9
$DIMTXSTY
  7
Standard
  9
$DIMAUNIT
 70
     0
  9
$DIMADEC
 70
     2
  9
$DIMALTRND
 40
0.0
  9
$DIMAZIN
 70
     0
  9
$DIMDSEP
 70
    44
  9
$DIMATFIT
 70
     3
  9
$DIMFRAC
 70
     0
  9
$DIMLDRBLK
  1

  9
$DIMLUNIT
 70
     2
  9
$DIMLWD
 70
    -2
  9
$DIMLWE
 70
    -2
  9
$DIMTMOVE
 70
     0
  9
$LUNITS
 70
     2
  9
$LUPREC
 70
     2
  9
$SKETCHINC
 40
1.0
  9
$FILLETRAD
 40
0.0
  9
$AUNITS
 70
     0
  9
$AUPREC
 70
     2
  9
$MENU
  1
.
  9
$ELEVATION
 40
0.0
  9
$PELEVATION
 40
0.0
  9
$THICKNESS
 40
0.0
  9
$LIMCHECK
 70
     0
  9
$CHAMFERA
 40
0.0
  9
$CHAMFERB
 40
0.0
  9
$CHAMFERC
 40
0.0
  9
$CHAMFERD
 40
0.0
  9
$SKPOLY
 70
     0
  9
$TDCREATE
 40
2460637.085381679
  9
$TDUCREATE
 40
2460636.752048345
  9
$TDUPDATE
 40
2460637.085407141
  9
$TDUUPDATE
 40
2460636.752073808
  9
$TDINDWG
 40
0.0000000116
  9
$TDUSRTIMER
 40
0.0000000116
  9
$USRTIMER
 70
     1
  9
$ANGBASE
 50
0.0
  9
$ANGDIR
 70
     0
  9
$PDMODE
 70
     0
  9
$PDSIZE
 40
-1.0
  9
$PLINEWID
 40
0.0
  9
$SPLFRAME
 70
     0
  9
$SPLINETYPE
 70
     6
  9
$SPLINESEGS
 70
     8
  9
$HANDSEED
  5
1F3
  9
$SURFTAB1
 70
     6
  9
$SURFTAB2
 70
     6
  9
$SURFTYPE
 70
     6
  9
$SURFU
 70
     6
  9
$SURFV
 70
     6
  9
$UCSBASE
  2

  9
$UCSNAME
  2

  9
$UCSORG
 10
0.0
 20
0.0
 30
0.0
  9
$UCSXDIR
 10
1.0
 20
0.0
 30
0.0
  9
$UCSYDIR
 10
0.0
 20
1.0
 30
0.0
  9
$UCSORTHOREF
  2

  9
$UCSORTHOVIEW
 70
     0
  9
$UCSORGTOP
 10
0.0
 20
0.0
 30
0.0
  9
$UCSORGBOTTOM
 10
0.0
 20
0.0
 30
0.0
  9
$UCSORGLEFT
 10
0.0
 20
0.0
 30
0.0
  9
$UCSORGRIGHT
 10
0.0
 20
0.0
 30
0.0
  9
$UCSORGFRONT
 10
0.0
 20
0.0
 30
0.0
  9
$UCSORGBACK
 10
0.0
 20
0.0
 30
0.0
  9
$PUCSBASE
  2

  9
$PUCSNAME
  2

  9
$PUCSORG
 10
0.0
 20
0.0
 30
0.0
  9
$PUCSXDIR
 10
1.0
 20
0.0
 30
0.0
  9
$PUCSYDIR
 10
0.0
 20
1.0
 30
0.0
  9
$PUCSORTHOREF
  2

  9
$PUCSORTHOVIEW
 70
     0
  9
$PUCSORGTOP
 10
0.0
 20
0.0
 30
0.0
  9
$PUCSORGBOTTOM
 10
0.0
 20
0.0
 30
0.0
  9
$PUCSORGLEFT
 10
0.0
 20
0.0
 30
0.0
  9
$PUCSORGRIGHT
 10
0.0
 20
0.0
 30
0.0
  9
$PUCSORGFRONT
 10
0.0
 20
0.0
 30
0.0
  9
$PUCSORGBACK
 10
0.0
 20
0.0
 30
0.0
  9
$USERI1
 70
     0
  9
$USERI2
 70
     0
  9
$USERI3
 70
     0
  9
$USERI4
 70
     0
  9
$USERI5
 70
     0
  9
$USERR1
 40
0.0
  9
$USERR2
 40
0.0
  9
$USERR3
 40
0.0
  9
$USERR4
 40
0.0
  9
$USERR5
 40
0.0
  9
$WORLDVIEW
 70
     1
  9
$SHADEDGE
 70
     3
  9
$SHADEDIF
 70
    70
  9
$TILEMODE
 70
     1
  9
$MAXACTVP
 70
    64
  9
$PINSBASE
 10
0.0
 20
0.0
 30
0.0
  9
$PLIMCHECK
 70
     0
  9
$PEXTMIN
 10
1.0000000000E+20
 20
1.0000000000E+20
 30
1.0000000000E+20
  9
$PEXTMAX
 10
-1.0000000000E+20
 20
-1.0000000000E+20
 30
-1.0000000000E+20
  9
$PLIMMIN
 10
0.0
 20
0.0
  9
$PLIMMAX
 10
420.0
 20
297.0
  9
$UNITMODE
 70
     0
  9
$VISRETAIN
 70
     1
  9
$PLINEGEN
 70
     0
  9
$PSLTSCALE
 70
     1
  9
$TREEDEPTH
 70
  3020
  9
$CMLSTYLE
  2
Standard
  9
$CMLJUST
 70
     0
  9
$CMLSCALE
 40
20.0
  9
$PROXYGRAPHICS
 70
     1
  9
$MEASUREMENT
 70
     1
  9
$CELWEIGHT
370
    -1
  9
$ENDCAPS
280
     0
  9
$JOINSTYLE
280
     0
  9
$LWDISPLAY
290
     1
  9
$INSUNITS
 70
     4
  9
$HYPERLINKBASE
  1

  9
$STYLESHEET
  1

  9
$XEDIT
290
     1
  9
$CEPSNTYPE
380
     0
  9
$PSTYLEMODE
290
     1
  9
$FINGERPRINTGUID
  2
{4e3eb59f-9091-4854-b0af-c79b9613f043}
  9
$VERSIONGUID
  2
{FAEB1C32-E019-11D5-929B-00C0DF256EC4}
  9
$EXTNAMES
290
     1
  9
$PSVPSCALE
 40
0.0
  9
$OLESTARTUP
290
     0
  0
ENDSEC
  0
SECTION
  2
CLASSES
  0
CLASS
  1
ACDBDICTIONARYWDFLT
  2
AcDbDictionaryWithDefault
  3
ObjectDBX Classes
 90
        0
280
     0
281
     0
  0
CLASS
  1
VISUALSTYLE
  2
AcDbVisualStyle
  3
ObjectDBX Classes
 90
     4095
280
     0
281
     0
  0
CLASS
  1
MATERIAL
  2
AcDbMaterial
  3
ObjectDBX Classes
 90
     1153
280
     0
281
     0
  0
CLASS
  1
SCALE
  2
AcDbScale
  3
ObjectDBX Classes
 90
     1153
280
     0
281
     0
  0
CLASS
  1
TABLESTYLE
  2
AcDbTableStyle
  3
ObjectDBX Classes
 90
     4095
280
     0
281
     0
  0
CLASS
  1
MLEADERSTYLE
  2
AcDbMLeaderStyle
  3
ACDB_MLEADERSTYLE_CLASS
 90
     4095
280
     0
281
     0
  0
CLASS
  1
SUN
  2
AcDbSun
  3
SCENEOE
 90
     1153
280
     0
281
     0
  0
CLASS
  1
ACDBPLACEHOLDER
  2
AcDbPlaceHolder
  3
ObjectDBX Classes
 90
        0
280
     0
281
     0
  0
CLASS
  1
LAYOUT
  2
AcDbLayout
  3
ObjectDBX Classes
 90
        0
280
     0
281
     0
  0
ENDSEC
  0
SECTION
  2
TABLES
  0
TABLE
  2
VPORT
  5
8
330
0
100
AcDbSymbolTable
 70
     1
  0
VPORT
  5
29
330
8
100
AcDbSymbolTableRecord
100
AcDbViewportTableRecord
  2
*Active
 70
     0
 10
0.0
 20
0.0
 11
1.0
 21
1.0
 12
5.0
 22
145.0
 13
0.0
 23
0.0
 14
10.0
 24
10.0
 15
10.0
 25
10.0
 16
0.0
 26
0.0
 36
1.0
 17
0.0
 27
0.0
 37
0.0
 40
295.8
 41
0.5517241379
 42
50.0
 43
0.0
 44
0.0
 50
0.0
 51
0.0
 71
     0
 72
   100
 73
     1
 74
     3
 75
     0
 76
     0
 77
     0
 78
     0
281
     0
 65
     1
110
0.0
120
0.0
130
0.0
111
1.0
121
0.0
131
0.0
112
0.0
122
1.0
132
0.0
 79
     0
146
0.0
  0
ENDTAB
  0
TABLE
  2
LTYPE
  5
5
330
0
100
AcDbSymbolTable
 70
     6
  0
LTYPE
  5
14
330
5
100
AcDbSymbolTableRecord
100
AcDbLinetypeTableRecord
  2
ByBlock
 70
     0
  3

 72
    65
 73
     0
 40
0.0
  0
LTYPE
  5
15
330
5
100
AcDbSymbolTableRecord
100
AcDbLinetypeTableRecord
  2
ByLayer
 70
     0
  3

 72
    65
 73
     0
 40
0.0
  0
LTYPE
  5
16
330
5
100
AcDbSymbolTableRecord
100
AcDbLinetypeTableRecord
  2
Continuous
 70
     0
  3
Solid line
 72
    65
 73
     0
 40
0.0
  0
LTYPE
  5
5E
330
5
100
AcDbSymbolTableRecord
100
AcDbLinetypeTableRecord
  2
HIDDEN
 70
     0
  3
Hidden __ __ __ __ __ __ __ __ __ __ __ __ __ __
 72
    65
 73
     2
 40
1.905
 49
1.27
 74
     0
 49
-0.635
 74
     0
  0
LTYPE
  5
5F
330
5
100
AcDbSymbolTableRecord
100
AcDbLinetypeTableRecord
  2
PHANTOM
 70
     0
  3
Phantom ______  __  __  ______  __  __  ______
 72
    65
 73
     6
 40
12.7
 49
6.35
 74
     0
 49
-1.27
 74
     0
 49
1.27
 74
     0
 49
-1.27
 74
     0
 49
1.27
 74
     0
 49
-1.27
 74
     0
  0
LTYPE
  5
60
330
5
100
AcDbSymbolTableRecord
100
AcDbLinetypeTableRecord
  2
CENTER
 70
     0
  3
Center ____ _ ____ _ ____ _ ____ _ ____ _ ____
 72
    65
 73
     4
 40
10.16
 49
6.35
 74
     0
 49
-1.27
 74
     0
 49
1.27
 74
     0
 49
-1.27
 74
     0
  0
LTYPE
  5
61
330
5
100
AcDbSymbolTableRecord
100
AcDbLinetypeTableRecord
  2
CENTERX2
 70
     0
  3
Center (2x) ________  __  ________  __  _____
 72
    65
 73
     4
 40
20.32
 49
12.7
 74
     0
 49
-2.54
 74
     0
 49
2.54
 74
     0
 49
-2.54
 74
     0
  0
LTYPE
  5
62
330
5
100
AcDbSymbolTableRecord
100
AcDbLinetypeTableRecord
  2
DOT2
 70
     0
  3
Dot (.5x) ........................................
 72
    65
 73
     2
 40
0.635
 49
0.0
 74
     0
 49
-0.635
 74
     0
  0
ENDTAB
  0
TABLE
  2
LAYER
  5
2
330
0
100
AcDbSymbolTable
 70
     1
  0
LAYER
  5
10
330
2
100
AcDbSymbolTableRecord
100
AcDbLayerTableRecord
  2
0
 70
     0
 62
     7
  6
Continuous
370
    -3
390
F
  0
ENDTAB
  0
TABLE
  2
STYLE
  5
3
330
0
100
AcDbSymbolTable
 70
     2
  0
STYLE
  5
11
330
3
100
AcDbSymbolTableRecord
100
AcDbTextStyleTableRecord
  2
Standard
 70
     0
 40
0.0
 41
1.0
 50
0.0
 71
     0
 42
3.5
  3
txt
  4

  0
STYLE
  5
1F0
330
3
100
AcDbSymbolTableRecord
100
AcDbTextStyleTableRecord
  2
SLDTEXTSTYLE0
 70
     0
 40
0.0
 41
0.7
 50
0.0
 71
     0
 42
3.5
  3
TXT
  4
bigfont
  0
ENDTAB
  0
TABLE
  2
VIEW
  5
6
330
0
100
AcDbSymbolTable
 70
     0
  0
ENDTAB
  0
TABLE
  2
UCS
  5
7
330
0
100
AcDbSymbolTable
 70
     0
  0
ENDTAB
  0
TABLE
  2
APPID
  5
9
330
0
100
AcDbSymbolTable
 70
     1
  0
APPID
  5
12
330
9
100
AcDbSymbolTableRecord
100
AcDbRegAppTableRecord
  2
ACAD
 70
     0
  0
ENDTAB
  0
TABLE
  2
DIMSTYLE
  5
A
330
0
100
AcDbSymbolTable
 70
     1
100
AcDbDimStyleTable
  0
DIMSTYLE
105
27
330
A
100
AcDbSymbolTableRecord
100
AcDbDimStyleTableRecord
  2
ISO-25
 70
     0
 41
2.5
 42
0.625
 43
3.75
 44
1.25
 73
     0
 74
     0
 77
     1
 78
     8
140
2.5
141
2.5
143
0.0393700787
147
0.625
171
     3
172
     1
178
     0
271
     2
272
     2
274
     3
278
    44
283
     0
284
     8
340
11
  0
ENDTAB
  0
TABLE
  2
BLOCK_RECORD
  5
1
330
0
100
AcDbSymbolTable
 70
     1
  0
BLOCK_RECORD
  5
1F
330
1
100
AcDbSymbolTableRecord
100
AcDbBlockTableRecord
  2
*Model_Space
340
22
  0
BLOCK_RECORD
  5
1B
330
1
100
AcDbSymbolTableRecord
100
AcDbBlockTableRecord
  2
*Paper_Space
340
1E
  0
BLOCK_RECORD
  5
23
330
1
100
AcDbSymbolTableRecord
100
AcDbBlockTableRecord
  2
*Paper_Space0
340
26
  0
ENDTAB
  0
ENDSEC
  0
SECTION
  2
BLOCKS
  0
BLOCK
  5
20
330
1F
100
AcDbEntity
  8
0
100
AcDbBlockBegin
  2
*Model_Space
 70
     0
 10
0.0
 20
0.0
 30
0.0
  3
*Model_Space
  1

  0
ENDBLK
  5
21
330
1F
100
AcDbEntity
  8
0
100
AcDbBlockEnd
  0
BLOCK
  5
1C
330
1B
100
AcDbEntity
 67
     1
  8
0
100
AcDbBlockBegin
  2
*Paper_Space
 70
     0
 10
0.0
 20
0.0
 30
0.0
  3
*Paper_Space
  1

  0
ENDBLK
  5
1D
330
1B
100
AcDbEntity
 67
     1
  8
0
100
AcDbBlockEnd
  0
BLOCK
  5
24
330
23
100
AcDbEntity
  8
0
100
AcDbBlockBegin
  2
*Paper_Space0
 70
     0
 10
0.0
 20
0.0
 30
0.0
  3
*Paper_Space0
  1

  0
ENDBLK
  5
25
330
23
100
AcDbEntity
  8
0
100
AcDbBlockEnd
  0
ENDSEC
  0
SECTION
  2
ENTITIES
  0
LINE
  5
63
330
1F
100
AcDbEntity
  8
0
  6
Continuous
 62
     7
370
    25
100
AcDbLine
 10
-50.0
 20
20.0
 30
0.0
 11
50.0
 21
20.0
 31
0.0
  0
ARC
  5
64
330
1F
100
AcDbEntity
  8
0
  6
Continuous
 62
     7
370
    25
100
AcDbCircle
 10
50.0
 20
15.0
 30
0.0
 40
5.0
100
AcDbArc
 50
0.0
 51
90.0
  0
LINE
  5
65
330
1F
100
AcDbEntity
  8
0
  6
Continuous
 62
     7
370
    25
100
AcDbLine
 10
55.0
 20
15.0
 30
0.0
 11
55.0
 21
5.0
 31
0.0
  0
ARC
  5
66
330
1F
100
AcDbEntity
  8
0
  6
Continuous
 62
     7
370
    25
100
AcDbCircle
 10
60.0
 20
5.0
 30
0.0
 40
5.0
100
AcDbArc
 50
180.0
 51
270.0
  0
LINE
  5
67
330
1F
100
AcDbEntity
  8
0
  6
Continuous
 62
     7
370
    25
100
AcDbLine
 10
60.0
 20
0.0
 30
0.0
 11
70.0
 21
0.0
 31
0.0
  0
ARC
  5
68
330
1F
100
AcDbEntity
  8
0
  6
Continuous
 62
     7
370
    25
100
AcDbCircle
 10
70.0
 20
5.0
 30
0.0
 40
5.0
100
AcDbArc
 50
270.0
 51
0.0
  0
LINE
  5
69
330
1F
100
AcDbEntity
  8
0
  6
Continuous
 62
     7
370
    25
100
AcDbLine
 10
75.0
 20
5.0
 30
0.0
 11
75.0
 21
87.0
 31
0.0
  0
ARC
  5
6A
330
1F
100
AcDbEntity
  8
0
  6
Continuous
 62
     7
370
    25
100
AcDbCircle
 10
78.0
 20
87.0
 30
0.0
 40
3.0
100
AcDbArc
 50
90.0
 51
180.0
  0
LINE
  5
6B
330
1F
100
AcDbEntity
  8
0
  6
Continuous
 62
     7
370
    25
100
AcDbLine
 10
78.0
 20
90.0
 30
0.0
 11
82.0
 21
90.0
 31
0.0
  0
ARC
  5
6C
330
1F
100
AcDbEntity
  8
0
  6
Continuous
 62
     7
370
    25
100
AcDbCircle
 10
82.0
 20
93.0
 30
0.0
 40
3.000000000000014
100
AcDbArc
 50
270.0
 51
0.0
  0
LINE
  5
6D
330
1F
100
AcDbEntity
  8
0
  6
Continuous
 62
     7
370
    25
100
AcDbLine
 10
85.0
 20
93.0
 30
0.0
 11
85.0
 21
237.0
 31
0.0
  0
ARC
  5
6E
330
1F
100
AcDbEntity
  8
0
  6
Continuous
 62
     7
370
    25
100
AcDbCircle
 10
82.0
 20
237.0
 30
0.0
 40
3.000000000000014
100
AcDbArc
 50
0.0
 51
90.0
  0
LINE
  5
6F
330
1F
100
AcDbEntity
  8
0
  6
Continuous
 62
     7
370
    25
100
AcDbLine
 10
82.0
 20
240.0
 30
0.0
 11
78.0
 21
240.0
 31
0.0
  0
ARC
  5
70
330
1F
100
AcDbEntity
  8
0
  6
Continuous
 62
     7
370
    25
100
AcDbCircle
 10
78.0
 20
243.0
 30
0.0
 40
3.0
100
AcDbArc
 50
180.0
 51
270.0
  0
LINE
  5
71
330
1F
100
AcDbEntity
  8
0
  6
Continuous
 62
     7
370
    25
100
AcDbLine
 10
75.0
 20
243.0
 30
0.0
 11
75.0
 21
285.0
 31
0.0
  0
ARC
  5
72
330
1F
100
AcDbEntity
  8
0
  6
Continuous
 62
     7
370
    25
100
AcDbCircle
 10
70.0
 20
285.0
 30
0.0
 40
5.0
100
AcDbArc
 50
0.0
 51
90.0
  0
LINE
  5
73
330
1F
100
AcDbEntity
  8
0
  6
Continuous
 62
     7
370
    25
100
AcDbLine
 10
60.0
 20
290.0
 30
0.0
 11
70.0
 21
290.0
 31
0.0
  0
ARC
  5
74
330
1F
100
AcDbEntity
  8
0
  6
Continuous
 62
     7
370
    25
100
AcDbCircle
 10
60.0
 20
285.0
 30
0.0
 40
5.0
100
AcDbArc
 50
90.0
 51
180.0
  0
LINE
  5
75
330
1F
100
AcDbEntity
  8
0
  6
Continuous
 62
     7
370
    25
100
AcDbLine
 10
55.0
 20
275.0
 30
0.0
 11
55.0
 21
285.0
 31
0.0
  0
ARC
  5
76
330
1F
100
AcDbEntity
  8
0
  6
Continuous
 62
     7
370
    25
100
AcDbCircle
 10
50.0
 20
275.0
 30
0.0
 40
5.0
100
AcDbArc
 50
270.0
 51
0.0
  0
LINE
  5
77
330
1F
100
AcDbEntity
  8
0
  6
Continuous
 62
     7
370
    25
100
AcDbLine
 10
15.0
 20
270.0
 30
0.0
 11
50.0
 21
270.0
 31
0.0
  0
ARC
  5
78
330
1F
100
AcDbEntity
  8
0
  6
Continuous
 62
     7
370
    25
100
AcDbCircle
 10
15.0
 20
275.0
 30
0.0
 40
5.0
100
AcDbArc
 50
180.0
 51
270.0
  0
LINE
  5
79
330
1F
100
AcDbEntity
  8
0
  6
Continuous
 62
     7
370
    25
100
AcDbLine
 10
10.0
 20
285.0
 30
0.0
 11
10.0
 21
275.0
 31
0.0
  0
ARC
  5
7A
330
1F
100
AcDbEntity
  8
0
  6
Continuous
 62
     7
370
    25
100
AcDbCircle
 10
5.0
 20
285.0
 30
0.0
 40
5.0
100
AcDbArc
 50
0.0
 51
90.0
  0
LINE
  5
7B
330
1F
100
AcDbEntity
  8
0
  6
Continuous
 62
     7
370
    25
100
AcDbLine
 10
-5.0
 20
290.0
 30
0.0
 11
5.0
 21
290.0
 31
0.0
  0
ARC
  5
7C
330
1F
100
AcDbEntity
  8
0
  6
Continuous
 62
     7
370
    25
100
AcDbCircle
 10
-5.0
 20
285.0
 30
0.0
 40
5.0
100
AcDbArc
 50
90.0
 51
180.0
  0
LINE
  5
7D
330
1F
100
AcDbEntity
  8
0
  6
Continuous
 62
     7
370
    25
100
AcDbLine
 10
-10.0
 20
275.0
 30
0.0
 11
-10.0
 21
285.0
 31
0.0
  0
ARC
  5
7E
330
1F
100
AcDbEntity
  8
0
  6
Continuous
 62
     7
370
    25
100
AcDbCircle
 10
-15.0
 20
275.0
 30
0.0
 40
5.000000000000002
100
AcDbArc
 50
270.0
 51
0.0
  0
LINE
  5
7F
330
1F
100
AcDbEntity
  8
0
  6
Continuous
 62
     7
370
    25
100
AcDbLine
 10
-50.0
 20
270.0
 30
0.0
 11
-15.0
 21
270.0
 31
0.0
  0
ARC
  5
80
330
1F
100
AcDbEntity
  8
0
  6
Continuous
 62
     7
370
    25
100
AcDbCircle
 10
-50.0
 20
275.0
 30
0.0
 40
5.0
100
AcDbArc
 50
180.0
 51
270.0
  0
LINE
  5
81
330
1F
100
AcDbEntity
  8
0
  6
Continuous
 62
     7
370
    25
100
AcDbLine
 10
-55.0
 20
285.0
 30
0.0
 11
-55.0
 21
275.0
 31
0.0
  0
ARC
  5
82
330
1F
100
AcDbEntity
  8
0
  6
Continuous
 62
     7
370
    25
100
AcDbCircle
 10
-60.0
 20
285.0
 30
0.0
 40
5.0
100
AcDbArc
 50
0.0
 51
90.0
  0
LINE
  5
83
330
1F
100
AcDbEntity
  8
0
  6
Continuous
 62
     7
370
    25
100
AcDbLine
 10
-70.0
 20
290.0
 30
0.0
 11
-60.0
 21
290.0
 31
0.0
  0
ARC
  5
84
330
1F
100
AcDbEntity
  8
0
  6
Continuous
 62
     7
370
    25
100
AcDbCircle
 10
-70.0
 20
285.0
 30
0.0
 40
5.000000000000014
100
AcDbArc
 50
90.0
 51
180.0
  0
LINE
  5
85
330
1F
100
AcDbEntity
  8
0
  6
Continuous
 62
     7
370
    25
100
AcDbLine
 10
-75.0
 20
285.0
 30
0.0
 11
-75.0
 21
5.0
 31
0.0
  0
ARC
  5
86
330
1F
100
AcDbEntity
  8
0
  6
Continuous
 62
     7
370
    25
100
AcDbCircle
 10
-70.0
 20
5.0
 30
0.0
 40
5.000000000000014
100
AcDbArc
 50
180.0
 51
270.0
  0
LINE
  5
87
330
1F
100
AcDbEntity
  8
0
  6
Continuous
 62
     7
370
    25
100
AcDbLine
 10
-70.0
 20
0.0
 30
0.0
 11
-60.0
 21
0.0
 31
0.0
  0
ARC
  5
88
330
1F
100
AcDbEntity
  8
0
  6
Continuous
 62
     7
370
    25
100
AcDbCircle
 10
-60.0
 20
5.0
 30
0.0
 40
5.0
100
AcDbArc
 50
270.0
 51
0.0
  0
LINE
  5
89
330
1F
100
AcDbEntity
  8
0
  6
Continuous
 62
     7
370
    25
100
AcDbLine
 10
-55.0
 20
5.0
 30
0.0
 11
-55.0
 21
15.0
 31
0.0
  0
ARC
  5
8A
330
1F
100
AcDbEntity
  8
0
  6
Continuous
 62
     7
370
    25
100
AcDbCircle
 10
-50.0
 20
15.0
 30
0.0
 40
5.0
100
AcDbArc
 50
90.0
 51
180.0
  0
CIRCLE
  5
8B
330
1F
100
AcDbEntity
  8
0
  6
Continuous
 62
     7
370
    25
100
AcDbCircle
 10
5.0
 20
280.0
 30
0.0
 40
1.599999999999966
  0
CIRCLE
  5
8C
330
1F
100
AcDbEntity
  8
0
  6
Continuous
 62
     7
370
    25
100
AcDbCircle
 10
-5.0
 20
280.0
 30
0.0
 40
1.599999999999966
  0
CIRCLE
  5
8D
330
1F
100
AcDbEntity
  8
0
  6
Continuous
 62
     7
370
    25
100
AcDbCircle
 10
-70.0
 20
280.0
 30
0.0
 40
1.599999999999966
  0
CIRCLE
  5
8E
330
1F
100
AcDbEntity
  8
0
  6
Continuous
 62
     7
370
    25
100
AcDbCircle
 10
-60.0
 20
10.0
 30
0.0
 40
1.599999999999998
  0
CIRCLE
  5
8F
330
1F
100
AcDbEntity
  8
0
  6
Continuous
 62
     7
370
    25
100
AcDbCircle
 10
70.0
 20
10.0
 30
0.0
 40
1.600000000000005
  0
CIRCLE
  5
90
330
1F
100
AcDbEntity
  8
0
  6
Continuous
 62
     7
370
    25
100
AcDbCircle
 10
60.0
 20
10.0
 30
0.0
 40
1.599999999999998
  0
CIRCLE
  5
91
330
1F
100
AcDbEntity
  8
0
  6
Continuous
 62
     7
370
    25
100
AcDbCircle
 10
60.0
 20
280.0
 30
0.0
 40
1.599999999999966
  0
CIRCLE
  5
92
330
1F
100
AcDbEntity
  8
0
  6
Continuous
 62
     7
370
    25
100
AcDbCircle
 10
70.0
 20
280.0
 30
0.0
 40
1.599999999999966
  0
CIRCLE
  5
93
330
1F
100
AcDbEntity
  8
0
  6
Continuous
 62
     7
370
    25
100
AcDbCircle
 10
-60.0
 20
280.0
 30
0.0
 40
1.599999999999966
  0
CIRCLE
  5
94
330
1F
100
AcDbEntity
  8
0
  6
Continuous
 62
     7
370
    25
100
AcDbCircle
 10
-70.0
 20
10.0
 30
0.0
 40
1.600000000000007
  0
LINE
  5
95
330
1F
100
AcDbEntity
  8
0
  6
Continuous
 62
     7
370
    25
100
AcDbLine
 10
40.1618518519
 20
88.1453308865
 30
0.0
 11
37.9762962963
 21
88.1453308865
 31
0.0
  0
LINE
  5
96
330
1F
100
AcDbEntity
  8
0
  6
Continuous
 62
     7
370
    25
100
AcDbLine
 10
37.9762962963
 20
88.1453308865
 30
0.0
 11
37.9762962963
 21
91.8118518519
 31
0.0
  0
LINE
  5
97
330
1F
100
AcDbEntity
  8
0
  6
Continuous
 62
     7
370
    25
100
AcDbLine
 10
37.9762962963
 20
91.8118518519
 30
0.0
 11
35.7881481481
 21
91.8118518519
 31
0.0
  0
LINE
  5
98
330
1F
100
AcDbEntity
  8
0
  6
Continuous
 62
     7
370
    25
100
AcDbLine
 10
35.7881481481
 20
91.8118518519
 30
0.0
 11
35.7881481481
 21
88.1453308865
 31
0.0
  0
LINE
  5
99
330
1F
100
AcDbEntity
  8
0
  6
Continuous
 62
     7
370
    25
100
AcDbLine
 10
35.7881481481
 20
88.1453308865
 30
0.0
 11
33.6
 21
88.1453308865
 31
0.0
  0
LINE
  5
9A
330
1F
100
AcDbEntity
  8
0
  6
Continuous
 62
     7
370
    25
100
AcDbLine
 10
33.6
 20
88.1453308865
 30
0.0
 11
33.6
 21
91.8118518519
 31
0.0
  0
SPLINE
  5
9B
330
1F
100
AcDbEntity
  8
0
  6
Continuous
 62
     7
370
    25
100
AcDbSpline
210
0.0
220
0.0
230
1.0
 70
     8
 71
     3
 72
    23
 73
    19
 74
     0
 42
0.00000001
 43
0.00000001
 40
0.0
 40
0.0
 40
0.0
 40
0.0
 40
0.0851839288800129
 40
0.1628045404588717
 40
0.2330772070398932
 40
0.2978137795759077
 40
0.3557210626395
 40
0.4080287704934206
 40
0.4553447758108364
 40
0.4993185517307197
 40
0.5432923276506029
 40
0.5909681160281888
 40
0.6439204895980839
 40
0.702028432554766
 40
0.7660765645228472
 40
0.837141238492179
 40
0.9148160711199872
 40
1.0
 40
1.0
 40
1.0
 40
1.0
 10
33.6
 20
91.81185185185187
 30
0.0
 10
33.6015201711619
 20
91.91646423887771
 30
0.0
 10
33.60442554041038
 20
92.11640068017567
 30
0.0
 10
33.62540930601816
 20
92.40193943609177
 30
0.0
 10
33.65732758599126
 20
92.66138184339535
 30
0.0
 10
33.70771908204728
 20
92.89292404036573
 30
0.0
 10
33.76354790619325
 20
93.10095903874014
 30
0.0
 10
33.84372595624367
 20
93.27760303464098
 30
0.0
 10
33.93052315648618
 20
93.43157223169734
 30
0.0
 10
34.03706791530603
 20
93.5604249917415
 30
0.0
 10
34.16655142861699
 20
93.66643772963964
 30
0.0
 10
34.31946680941007
 20
93.75771823209017
 30
0.0
 10
34.49905565633131
 20
93.83489715345385
 30
0.0
 10
34.70564059895541
 20
93.89575027360965
 30
0.0
 10
34.93797391390574
 20
93.94489868331294
 30
0.0
 10
35.19707952785597
 20
93.97979577013147
 30
0.0
 10
35.48349752788283
 20
94.00406965856372
 30
0.0
 10
35.68352367108996
 20
94.00650431891103
 30
0.0
 10
35.78814814814815
 20
94.00777777777779
 30
0.0
  0
LINE
  5
9C
330
1F
100
AcDbEntity
  8
0
  6
Continuous
 62
     7
370
    25
100
AcDbLine
 10
35.7881481481
 20
94.0077777778
 30
0.0
 11
37.9762962963
 21
94.0
 31
0.0
  0
SPLINE
  5
9D
330
1F
100
AcDbEntity
  8
0
  6
Continuous
 62
     7
370
    25
100
AcDbSpline
210
0.0
220
0.0
230
1.0
 70
     8
 71
     3
 72
    23
 73
    19
 74
     0
 42
0.00000001
 43
0.00000001
 40
0.0
 40
0.0
 40
0.0
 40
0.0
 40
0.0842256287408297
 40
0.161564460402177
 40
0.2323209803493793
 40
0.2960331905182628
 40
0.3539659196466218
 40
0.4055654421159338
 40
0.4527387747106419
 40
0.4961341112465359
 40
0.539438591181242
 40
0.586371268629663
 40
0.6388881457566343
 40
0.6974925933913964
 40
0.7620339646841827
 40
0.83418232359763
 40
0.9129685756388972
 40
1.0
 40
1.0
 40
1.0
 40
1.0
 10
37.97629629629629
 20
94.00000000000001
 30
0.0
 10
38.08001296740504
 20
93.99810346988721
 30
0.0
 10
38.27896580697312
 20
93.9944654814401
 30
0.0
 10
38.56484342468039
 20
93.97818544747136
 30
0.0
 10
38.8236402767766
 20
93.94420060499311
 30
0.0
 10
39.05668194039067
 20
93.89937691226994
 30
0.0
 10
39.26086326204975
 20
93.8365530301114
 30
0.0
 10
39.44084720961007
 20
93.76553509606741
 30
0.0
 10
39.59238777824672
 20
93.67663205527424
 30
0.0
 10
39.72233276910188
 20
93.57368951883066
 30
0.0
 10
39.82803481070849
 20
93.44638383338422
 30
0.0
 10
39.92073769076666
 20
93.29622083557838
 30
0.0
 10
39.99377294713356
 20
93.11501480608997
 30
0.0
 10
40.05504460035137
 20
92.90737142502408
 30
0.0
 10
40.10493358731631
 20
92.67172231248925
 30
0.0
 10
40.13621577530996
 20
92.4079679162701
 30
0.0
 10
40.15752342578713
 20
92.11553122881978
 30
0.0
 10
40.16036199452384
 20
91.91127856767571
 30
0.0
 10
40.16185185185185
 20
91.8040740740741
 30
0.0
  0
LINE
  5
9E
330
1F
100
AcDbEntity
  8
0
  6
Continuous
 62
     7
370
    25
100
AcDbLine
 10
40.1618518519
 20
91.8040740741
 30
0.0
 11
40.1618518519
 21
88.1453308865
 31
0.0
  0
LINE
  5
9F
330
1F
100
AcDbEntity
  8
0
  6
Continuous
 62
     7
370
    25
100
AcDbLine
 10
37.9762962963
 20
82.1777777778
 30
0.0
 11
37.9762962963
 21
86.1453308865
 31
0.0
  0
LINE
  5
A0
330
1F
100
AcDbEntity
  8
0
  6
Continuous
 62
     7
370
    25
100
AcDbLine
 10
37.9762962963
 20
86.1453308865
 30
0.0
 11
40.1618518519
 21
86.1453308865
 31
0.0
  0
LINE
  5
A1
330
1F
100
AcDbEntity
  8
0
  6
Continuous
 62
     7
370
    25
100
AcDbLine
 10
40.1618518519
 20
86.1453308865
 30
0.0
 11
40.1618518519
 21
82.1881481481
 31
0.0
  0
SPLINE
  5
A2
330
1F
100
AcDbEntity
  8
0
  6
Continuous
 62
     7
370
    25
100
AcDbSpline
210
0.0
220
0.0
230
1.0
 70
     8
 71
     3
 72
    23
 73
    19
 74
     0
 42
0.00000001
 43
0.00000001
 40
0.0
 40
0.0
 40
0.0
 40
0.0
 40
0.0851472156221891
 40
0.1634360169889681
 40
0.2343759480509897
 40
0.2989429791867206
 40
0.3570258783127288
 40
0.4090310724046431
 40
0.4563266850878457
 40
0.5002815088345438
 40
0.543698240233107
 40
0.5909938529163096
 40
0.643646861370651
 40
0.7010570208132775
 40
0.7656240519490122
 40
0.8365639830110316
 40
0.9148527843778109
 40
1.0
 40
1.0
 40
1.0
 40
1.0
 10
40.16185185185185
 20
82.18814814814816
 30
0.0
 10
40.16027470335159
 20
82.08354598889564
 30
0.0
 10
40.15724744207004
 20
81.88276713603761
 30
0.0
 10
40.13681095843892
 20
81.59538257805455
 30
0.0
 10
40.10340215638323
 20
81.3347686370146
 30
0.0
 10
40.05867690815614
 20
81.10090823452546
 30
0.0
 10
39.99666318301444
 20
80.89505359391384
 30
0.0
 10
39.92144855873845
 20
80.71658680189792
 30
0.0
 10
39.83382815805697
 20
80.56316988360241
 30
0.0
 10
39.72741319780916
 20
80.4354338878535
 30
0.0
 10
39.60099684829328
 20
80.3273361209328
 30
0.0
 10
39.44719261473996
 20
80.23981660423668
 30
0.0
 10
39.26812029382439
 20
80.1663188717912
 30
0.0
 10
39.06286751811672
 20
80.10257387571652
 30
0.0
 10
38.82963104083539
 20
80.05858824552813
 30
0.0
 10
38.56907567653444
 20
80.02499815180238
 30
0.0
 10
38.28167334726204
 20
80.00461666929937
 30
0.0
 10
38.08089709873788
 20
80.0015813477529
 30
0.0
 10
37.97629629629629
 20
80.00000000000001
 30
0.0
  0
LINE
  5
A3
330
1F
100
AcDbEntity
  8
0
  6
Continuous
 62
     7
370
    25
100
AcDbLine
 10
37.9762962963
 20
80.0
 30
0.0
 11
35.7881481481
 21
80.0
 31
0.0
  0
SPLINE
  5
A4
330
1F
100
AcDbEntity
  8
0
  6
Continuous
 62
     7
370
    25
100
AcDbSpline
210
0.0
220
0.0
230
1.0
 70
     8
 71
     3
 72
    23
 73
    19
 74
     0
 42
0.00000001
 43
0.00000001
 40
0.0
 40
0.0
 40
0.0
 40
0.0
 40
0.085325937193514
 40
0.1637790645161707
 40
0.2348678964653942
 40
0.2995704519535817
 40
0.3577752654243262
 40
0.4098896169318667
 40
0.4572845017539615
 40
0.5013315854190836
 40
0.5448394472956168
 40
0.5922343321177125
 40
0.644997857731505
 40
0.70252851945751
 40
0.7665399576287045
 40
0.8376287895779262
 40
0.9153788008251085
 40
1.0
 40
1.0
 40
1.0
 40
1.0
 10
35.78814814814815
 20
80.00000000000001
 30
0.0
 10
35.68354598885875
 20
80.00157714849317
 30
0.0
 10
35.48276713592993
 20
80.00460440976103
 30
0.0
 10
35.19538257842984
 20
80.02504089348542
 30
0.0
 10
34.93476863579797
 20
80.05844969523375
 30
0.0
 10
34.70090823845663
 20
80.10317494445472
 30
0.0
 10
34.49505358140336
 20
80.16518866642207
 30
0.0
 10
34.31658684176068
 20
80.24040330080949
 30
0.0
 10
34.16316975322245
 20
80.3280236686231
 30
0.0
 10
34.03543433549923
 20
80.43443874046744
 30
0.0
 10
33.92733440636709
 20
80.56085467253588
 30
0.0
 10
33.83982398719414
 20
80.71466066250305
 30
0.0
 10
33.76628671993936
 20
80.89372535062812
 30
0.0
 10
33.70296354403372
 20
81.09820035318873
 30
0.0
 10
33.65824329661856
 20
81.33042302213735
 30
0.0
 10
33.62522225191
 20
81.58934527923725
 30
0.0
 10
33.60456299470734
 20
81.87498310574573
 30
0.0
 10
33.60156331153897
 20
82.07403836208915
 30
0.0
 10
33.6
 20
82.17777777777779
 30
0.0
  0
LINE
  5
A5
330
1F
100
AcDbEntity
  8
0
  6
Continuous
 62
     7
370
    25
100
AcDbLine
 10
33.6
 20
82.1777777778
 30
0.0
 11
33.6
 21
86.1453308865
 31
0.0
  0
LINE
  5
A6
330
1F
100
AcDbEntity
  8
0
  6
Continuous
 62
     7
370
    25
100
AcDbLine
 10
33.6
 20
86.1453308865
 30
0.0
 11
35.7881481481
 21
86.1453308865
 31
0.0
  0
LINE
  5
A7
330
1F
100
AcDbEntity
  8
0
  6
Continuous
 62
     7
370
    25
100
AcDbLine
 10
35.7881481481
 20
86.1453308865
 30
0.0
 11
35.7881481481
 21
82.1777777778
 31
0.0
  0
LINE
  5
A8
330
1F
100
AcDbEntity
  8
0
  6
Continuous
 62
     7
370
    25
100
AcDbLine
 10
35.7881481481
 20
82.1777777778
 30
0.0
 11
37.9762962963
 21
82.1777777778
 31
0.0
  0
LINE
  5
A9
330
1F
100
AcDbEntity
  8
0
  6
Continuous
 62
     7
370
    25
100
AcDbLine
 10
29.0448148148
 20
88.1453308865
 30
0.0
 11
26.8592592593
 21
88.1453308865
 31
0.0
  0
LINE
  5
AA
330
1F
100
AcDbEntity
  8
0
  6
Continuous
 62
     7
370
    25
100
AcDbLine
 10
26.8592592593
 20
88.1453308865
 30
0.0
 11
26.8592592593
 21
91.8118518519
 31
0.0
  0
LINE
  5
AB
330
1F
100
AcDbEntity
  8
0
  6
Continuous
 62
     7
370
    25
100
AcDbLine
 10
26.8592592593
 20
91.8118518519
 30
0.0
 11
24.6711111111
 21
91.8118518519
 31
0.0
  0
LINE
  5
AC
330
1F
100
AcDbEntity
  8
0
  6
Continuous
 62
     7
370
    25
100
AcDbLine
 10
24.6711111111
 20
91.8118518519
 30
0.0
 11
24.6711111111
 21
88.1453308865
 31
0.0
  0
LINE
  5
AD
330
1F
100
AcDbEntity
  8
0
  6
Continuous
 62
     7
370
    25
100
AcDbLine
 10
24.6711111111
 20
88.1453308865
 30
0.0
 11
22.482962963
 21
88.1453308865
 31
0.0
  0
LINE
  5
AE
330
1F
100
AcDbEntity
  8
0
  6
Continuous
 62
     7
370
    25
100
AcDbLine
 10
22.482962963
 20
88.1453308865
 30
0.0
 11
22.482962963
 21
91.8118518519
 31
0.0
  0
SPLINE
  5
AF
330
1F
100
AcDbEntity
  8
0
  6
Continuous
 62
     7
370
    25
100
AcDbSpline
210
0.0
220
0.0
230
1.0
 70
     8
 71
     3
 72
    23
 73
    19
 74
     0
 42
0.00000001
 43
0.00000001
 40
0.0
 40
0.0
 40
0.0
 40
0.0
 40
0.0851839288800129
 40
0.1628045404588717
 40
0.2330772070398933
 40
0.2978137795759074
 40
0.3557210626395003
 40
0.4080287704934205
 40
0.4553447758108363
 40
0.4993185517307195
 40
0.5432923276506034
 40
0.5909681160281894
 40
0.6439204895980828
 40
0.7020284325547659
 40
0.766076564522848
 40
0.8371412384921779
 40
0.9148160711199881
 40
1.0
 40
1.0
 40
1.0
 40
1.0
 10
22.48296296296294
 20
91.81185185185187
 30
0.0
 10
22.48448313412484
 20
91.9164642388777
 30
0.0
 10
22.48738850337331
 20
92.11640068017563
 30
0.0
 10
22.50837226898111
 20
92.4019394360918
 30
0.0
 10
22.54029054895422
 20
92.66138184339536
 30
0.0
 10
22.59068204501021
 20
92.89292404036574
 30
0.0
 10
22.64651086915618
 20
93.10095903874013
 30
0.0
 10
22.72668891920661
 20
93.27760303464098
 30
0.0
 10
22.81348611944912
 20
93.43157223169732
 30
0.0
 10
22.92003087826897
 20
93.5604249917415
 30
0.0
 10
23.04951439157994
 20
93.66643772963964
 30
0.0
 10
23.20242977237301
 20
93.75771823209017
 30
0.0
 10
23.38201861929424
 20
93.83489715345384
 30
0.0
 10
23.58860356191834
 20
93.89575027360965
 30
0.0
 10
23.82093687686869
 20
93.9448986833129
 30
0.0
 10
24.08004249081891
 20
93.97979577013155
 30
0.0
 10
24.36646049084575
 20
94.00406965856371
 30
0.0
 10
24.56648663405289
 20
94.00650431891101
 30
0.0
 10
24.67111111111108
 20
94.00777777777779
 30
0.0
  0
LINE
  5
B0
330
1F
100
AcDbEntity
  8
0
  6
Continuous
 62
     7
370
    25
100
AcDbLine
 10
24.6711111111
 20
94.0077777778
 30
0.0
 11
26.8592592593
 21
94.0
 31
0.0
  0
SPLINE
  5
B1
330
1F
100
AcDbEntity
  8
0
  6
Continuous
 62
     7
370
    25
100
AcDbSpline
210
0.0
220
0.0
230
1.0
 70
     8
 71
     3
 72
    23
 73
    19
 74
     0
 42
0.00000001
 43
0.00000001
 40
0.0
 40
0.0
 40
0.0
 40
0.0
 40
0.0842256287408279
 40
0.1615644604021772
 40
0.2323209803493796
 40
0.2960331905182613
 40
0.3539659196466222
 40
0.4055654421159325
 40
0.4527387747106407
 40
0.4961341112465361
 40
0.5394385911812424
 40
0.5863712686296625
 40
0.6388881457566339
 40
0.6974925933913961
 40
0.7620339646841827
 40
0.8341823235976298
 40
0.9129685756388972
 40
1.0
 40
1.0
 40
1.0
 40
1.0
 10
26.85925925925924
 20
94.00000000000001
 30
0.0
 10
26.96297593036798
 20
93.9981034698872
 30
0.0
 10
27.16192876993607
 20
93.99446548144012
 30
0.0
 10
27.44780638764334
 20
93.97818544747136
 30
0.0
 10
27.70660323973954
 20
93.94420060499313
 30
0.0
 10
27.93964490335363
 20
93.89937691226996
 30
0.0
 10
28.14382622501268
 20
93.83655303011143
 30
0.0
 10
28.32381017257299
 20
93.76553509606738
 30
0.0
 10
28.47535074120967
 20
93.67663205527427
 30
0.0
 10
28.60529573206482
 20
93.57368951883063
 30
0.0
 10
28.71099777367143
 20
93.4463838333842
 30
0.0
 10
28.80370065372959
 20
93.29622083557841
 30
0.0
 10
28.87673591009652
 20
93.11501480608997
 30
0.0
 10
28.93800756331432
 20
92.90737142502412
 30
0.0
 10
28.98789655027926
 20
92.67172231248922
 30
0.0
 10
29.0191787382729
 20
92.40796791627011
 30
0.0
 10
29.04048638875009
 20
92.11553122881979
 30
0.0
 10
29.04332495748678
 20
91.91127856767572
 30
0.0
 10
29.04481481481479
 20
91.8040740740741
 30
0.0
  0
LINE
  5
B2
330
1F
100
AcDbEntity
  8
0
  6
Continuous
 62
     7
370
    25
100
AcDbLine
 10
29.0448148148
 20
91.8040740741
 30
0.0
 11
29.0448148148
 21
88.1453308865
 31
0.0
  0
LINE
  5
B3
330
1F
100
AcDbEntity
  8
0
  6
Continuous
 62
     7
370
    25
100
AcDbLine
 10
26.8592592593
 20
82.1777777778
 30
0.0
 11
26.8592592593
 21
86.1453308865
 31
0.0
  0
LINE
  5
B4
330
1F
100
AcDbEntity
  8
0
  6
Continuous
 62
     7
370
    25
100
AcDbLine
 10
26.8592592593
 20
86.1453308865
 30
0.0
 11
29.0448148148
 21
86.1453308865
 31
0.0
  0
LINE
  5
B5
330
1F
100
AcDbEntity
  8
0
  6
Continuous
 62
     7
370
    25
100
AcDbLine
 10
29.0448148148
 20
86.1453308865
 30
0.0
 11
29.0448148148
 21
82.1881481481
 31
0.0
  0
SPLINE
  5
B6
330
1F
100
AcDbEntity
  8
0
  6
Continuous
 62
     7
370
    25
100
AcDbSpline
210
0.0
220
0.0
230
1.0
 70
     8
 71
     3
 72
    23
 73
    19
 74
     0
 42
0.00000001
 43
0.00000001
 40
0.0
 40
0.0
 40
0.0
 40
0.0
 40
0.0851472156221891
 40
0.1634360169889682
 40
0.2343759480509896
 40
0.2989429791867205
 40
0.3570258783127287
 40
0.409031072404643
 40
0.4563266850878466
 40
0.5002815088345435
 40
0.5436982402331068
 40
0.5909938529163093
 40
0.6436468613706507
 40
0.7010570208132774
 40
0.765624051949012
 40
0.8365639830110315
 40
0.9148527843778118
 40
1.0
 40
1.0
 40
1.0
 40
1.0
 10
29.04481481481479
 20
82.18814814814816
 30
0.0
 10
29.04323766631451
 20
82.08354598889562
 30
0.0
 10
29.04021040503298
 20
81.88276713603759
 30
0.0
 10
29.01977392140184
 20
81.5953825780545
 30
0.0
 10
28.98636511934618
 20
81.33476863701466
 30
0.0
 10
28.94163987111907
 20
81.10090823452539
 30
0.0
 10
28.8796261459774
 20
80.89505359391393
 30
0.0
 10
28.8044115217014
 20
80.71658680189788
 30
0.0
 10
28.71679112101989
 20
80.56316988360241
 30
0.0
 10
28.61037616077211
 20
80.43543388785349
 30
0.0
 10
28.48395981125622
 20
80.3273361209328
 30
0.0
 10
28.3301555777029
 20
80.23981660423668
 30
0.0
 10
28.15108325678732
 20
80.16631887179119
 30
0.0
 10
27.94583048107964
 20
80.10257387571649
 30
0.0
 10
27.71259400379833
 20
80.05858824552811
 30
0.0
 10
27.45203863949739
 20
80.02499815180238
 30
0.0
 10
27.16463631022498
 20
80.00461666929937
 30
0.0
 10
26.96386006170081
 20
80.00158134775288
 30
0.0
 10
26.85925925925924
 20
80.00000000000001
 30
0.0
  0
LINE
  5
B7
330
1F
100
AcDbEntity
  8
0
  6
Continuous
 62
     7
370
    25
100
AcDbLine
 10
26.8592592593
 20
80.0
 30
0.0
 11
24.6711111111
 21
80.0
 31
0.0
  0
SPLINE
  5
B8
330
1F
100
AcDbEntity
  8
0
  6
Continuous
 62
     7
370
    25
100
AcDbSpline
210
0.0
220
0.0
230
1.0
 70
     8
 71
     3
 72
    23
 73
    19
 74
     0
 42
0.00000001
 43
0.00000001
 40
0.0
 40
0.0
 40
0.0
 40
0.0
 40
0.0853259371935131
 40
0.1637790645161707
 40
0.2348678964653952
 40
0.2995704519535818
 40
0.3577752654243255
 40
0.4098896169318669
 40
0.4572845017539616
 40
0.5013315854190831
 40
0.544839447295617
 40
0.592234332117712
 40
0.6449978577315046
 40
0.70252851945751
 40
0.7665399576287044
 40
0.8376287895779262
 40
0.9153788008251085
 40
1.0
 40
1.0
 40
1.0
 40
1.0
 10
24.67111111111108
 20
80.00000000000001
 30
0.0
 10
24.56650895182168
 20
80.00157714849317
 30
0.0
 10
24.36573009889286
 20
80.00460440976106
 30
0.0
 10
24.07834554139279
 20
80.02504089348541
 30
0.0
 10
23.81773159876091
 20
80.05844969523375
 30
0.0
 10
23.58387120141957
 20
80.10317494445474
 30
0.0
 10
23.3780165443663
 20
80.16518866642208
 30
0.0
 10
23.19954980472363
 20
80.2404033008095
 30
0.0
 10
23.0461327161854
 20
80.32802366862313
 30
0.0
 10
22.91839729846217
 20
80.43443874046741
 30
0.0
 10
22.81029736933002
 20
80.56085467253587
 30
0.0
 10
22.72278695015709
 20
80.71466066250305
 30
0.0
 10
22.6492496829023
 20
80.89372535062815
 30
0.0
 10
22.58592650699667
 20
81.09820035318872
 30
0.0
 10
22.5412062595815
 20
81.33042302213734
 30
0.0
 10
22.50818521487292
 20
81.58934527923722
 30
0.0
 10
22.48752595767028
 20
81.87498310574576
 30
0.0
 10
22.48452627450192
 20
82.07403836208915
 30
0.0
 10
22.48296296296294
 20
82.17777777777779
 30
0.0
  0
LINE
  5
B9
330
1F
100
AcDbEntity
  8
0
  6
Continuous
 62
     7
370
    25
100
AcDbLine
 10
22.482962963
 20
82.1777777778
 30
0.0
 11
22.482962963
 21
86.1453308865
 31
0.0
  0
LINE
  5
BA
330
1F
100
AcDbEntity
  8
0
  6
Continuous
 62
     7
370
    25
100
AcDbLine
 10
22.482962963
 20
86.1453308865
 30
0.0
 11
24.6711111111
 21
86.1453308865
 31
0.0
  0
LINE
  5
BB
330
1F
100
AcDbEntity
  8
0
  6
Continuous
 62
     7
370
    25
100
AcDbLine
 10
24.6711111111
 20
86.1453308865
 30
0.0
 11
24.6711111111
 21
82.1777777778
 31
0.0
  0
LINE
  5
BC
330
1F
100
AcDbEntity
  8
0
  6
Continuous
 62
     7
370
    25
100
AcDbLine
 10
24.6711111111
 20
82.1777777778
 30
0.0
 11
26.8592592593
 21
82.1777777778
 31
0.0
  0
LINE
  5
BD
330
1F
100
AcDbEntity
  8
0
  6
Continuous
 62
     7
370
    25
100
AcDbLine
 10
-3.9744444444
 20
43.4704027648
 30
0.0
 11
-6.16
 21
43.4704027648
 31
0.0
  0
LINE
  5
BE
330
1F
100
AcDbEntity
  8
0
  6
Continuous
 62
     7
370
    25
100
AcDbLine
 10
-6.16
 20
43.4704027648
 30
0.0
 11
-6.16
 21
47.002962963
 31
0.0
  0
LINE
  5
BF
330
1F
100
AcDbEntity
  8
0
  6
Continuous
 62
     7
370
    25
100
AcDbLine
 10
-6.16
 20
47.002962963
 30
0.0
 11
-8.3481481481
 21
47.002962963
 31
0.0
  0
LINE
  5
C0
330
1F
100
AcDbEntity
  8
0
  6
Continuous
 62
     7
370
    25
100
AcDbLine
 10
-8.3481481481
 20
47.002962963
 30
0.0
 11
-8.3481481481
 21
43.4704027648
 31
0.0
  0
LINE
  5
C1
330
1F
100
AcDbEntity
  8
0
  6
Continuous
 62
     7
370
    25
100
AcDbLine
 10
-8.3481481481
 20
43.4704027648
 30
0.0
 11
-10.5362962963
 21
43.4704027648
 31
0.0
  0
LINE
  5
C2
330
1F
100
AcDbEntity
  8
0
  6
Continuous
 62
     7
370
    25
100
AcDbLine
 10
-10.5362962963
 20
43.4704027648
 30
0.0
 11
-10.5362962963
 21
47.002962963
 31
0.0
  0
SPLINE
  5
C3
330
1F
100
AcDbEntity
  8
0
  6
Continuous
 62
     7
370
    25
100
AcDbSpline
210
0.0
220
0.0
230
1.0
 70
     8
 71
     3
 72
    23
 73
    19
 74
     0
 42
0.00000001
 43
0.00000001
 40
0.0
 40
0.0
 40
0.0
 40
0.0
 40
0.0851839288800128
 40
0.1628045404588716
 40
0.233077207039893
 40
0.2978137795759072
 40
0.3557210626394999
 40
0.4080287704934201
 40
0.4553447758108357
 40
0.4993185517307206
 40
0.5432923276506045
 40
0.5909681160281904
 40
0.6439204895980829
 40
0.702028432554767
 40
0.7660765645228478
 40
0.837141238492178
 40
0.9148160711199876
 40
1.0
 40
1.0
 40
1.0
 40
1.0
 10
-10.53629629629636
 20
47.00296296296298
 30
0.0
 10
-10.53477612513446
 20
47.10757534998883
 30
0.0
 10
-10.531870755886
 20
47.30751179128677
 30
0.0
 10
-10.51088699027818
 20
47.5930505472029
 30
0.0
 10
-10.47896871030509
 20
47.85249295450645
 30
0.0
 10
-10.42857721424908
 20
48.08403515147687
 30
0.0
 10
-10.37274839010312
 20
48.29207014985123
 30
0.0
 10
-10.29257034005269
 20
48.46871414575209
 30
0.0
 10
-10.20577313981018
 20
48.62268334280847
 30
0.0
 10
-10.09922838099033
 20
48.75153610285259
 30
0.0
 10
-9.969744867679367
 20
48.85754884075079
 30
0.0
 10
-9.81682948688629
 20
48.94882934320127
 30
0.0
 10
-9.637240639965057
 20
49.02600826456494
 30
0.0
 10
-9.430655697340962
 20
49.0868613847208
 30
0.0
 10
-9.198322382390616
 20
49.13600979442404
 30
0.0
 10
-8.93921676844039
 20
49.17090688124263
 30
0.0
 10
-8.652798768413549
 20
49.19518076967482
 30
0.0
 10
-8.452772625206407
 20
49.19761543002215
 30
0.0
 10
-8.348148148148216
 20
49.19888888888891
 30
0.0
  0
LINE
  5
C4
330
1F
100
AcDbEntity
  8
0
  6
Continuous
 62
     7
370
    25
100
AcDbLine
 10
-8.3481481481
 20
49.1988888889
 30
0.0
 11
-6.16
 21
49.1911111111
 31
0.0
  0
SPLINE
  5
C5
330
1F
100
AcDbEntity
  8
0
  6
Continuous
 62
     7
370
    25
100
AcDbSpline
210
0.0
220
0.0
230
1.0
 70
     8
 71
     3
 72
    23
 73
    19
 74
     0
 42
0.00000001
 43
0.00000001
 40
0.0
 40
0.0
 40
0.0
 40
0.0
 40
0.0842256287408283
 40
0.1615644604021771
 40
0.2323209803493797
 40
0.2960331905182619
 40
0.3539659196466226
 40
0.405565442115933
 40
0.4527387747106403
 40
0.4961341112465361
 40
0.5394385911812425
 40
0.5863712686296645
 40
0.638888145756634
 40
0.6974925933913962
 40
0.7620339646841827
 40
0.8341823235976298
 40
0.9129685756388972
 40
1.0
 40
1.0
 40
1.0
 40
1.0
 10
-6.160000000000067
 20
49.19111111111113
 30
0.0
 10
-6.056283328891319
 20
49.18921458099834
 30
0.0
 10
-5.857330489323235
 20
49.18557659255121
 30
0.0
 10
-5.571452871615973
 20
49.16929655858247
 30
0.0
 10
-5.312656019519753
 20
49.13531171610425
 30
0.0
 10
-5.079614355905679
 20
49.09048802338106
 30
0.0
 10
-4.875433034246621
 20
49.02766414122252
 30
0.0
 10
-4.695449086686301
 20
48.95664620717852
 30
0.0
 10
-4.543908518049633
 20
48.86774316638535
 30
0.0
 10
-4.413963527194477
 20
48.76480062994177
 30
0.0
 10
-4.308261485587869
 20
48.63749494449531
 30
0.0
 10
-4.215558605529725
 20
48.48733194668949
 30
0.0
 10
-4.142523349162784
 20
48.3061259172011
 30
0.0
 10
-4.081251695944987
 20
48.09848253613521
 30
0.0
 10
-4.031362708980043
 20
47.86283342360036
 30
0.0
 10
-4.000080520986416
 20
47.59907902738119
 30
0.0
 10
-3.978772870509217
 20
47.30664233993091
 30
0.0
 10
-3.97593430177252
 20
47.10238967878684
 30
0.0
 10
-3.974444444444512
 20
46.99518518518521
 30
0.0
  0
LINE
  5
C6
330
1F
100
AcDbEntity
  8
0
  6
Continuous
 62
     7
370
    25
100
AcDbLine
 10
-3.9744444444
 20
46.9951851852
 30
0.0
 11
-3.9744444444
 21
43.4704027648
 31
0.0
  0
LINE
  5
C7
330
1F
100
AcDbEntity
  8
0
  6
Continuous
 62
     7
370
    25
100
AcDbLine
 10
-6.16
 20
37.3688888889
 30
0.0
 11
-6.16
 21
41.4704027648
 31
0.0
  0
LINE
  5
C8
330
1F
100
AcDbEntity
  8
0
  6
Continuous
 62
     7
370
    25
100
AcDbLine
 10
-6.16
 20
41.4704027648
 30
0.0
 11
-3.9744444444
 21
41.4704027648
 31
0.0
  0
LINE
  5
C9
330
1F
100
AcDbEntity
  8
0
  6
Continuous
 62
     7
370
    25
100
AcDbLine
 10
-3.9744444444
 20
41.4704027648
 30
0.0
 11
-3.9744444444
 21
37.3792592593
 31
0.0
  0
SPLINE
  5
CA
330
1F
100
AcDbEntity
  8
0
  6
Continuous
 62
     7
370
    25
100
AcDbSpline
210
0.0
220
0.0
230
1.0
 70
     8
 71
     3
 72
    23
 73
    19
 74
     0
 42
0.00000001
 43
0.00000001
 40
0.0
 40
0.0
 40
0.0
 40
0.0
 40
0.0851472156221891
 40
0.1634360169889681
 40
0.2343759480509877
 40
0.2989429791867223
 40
0.3570258783127287
 40
0.4090310724046414
 40
0.4563266850878447
 40
0.5002815088345431
 40
0.5436982402331062
 40
0.5909938529163099
 40
0.6436468613706506
 40
0.7010570208132779
 40
0.7656240519490121
 40
0.836563983011032
 40
0.9148527843778114
 40
1.0
 40
1.0
 40
1.0
 40
1.0
 10
-3.974444444444512
 20
37.37925925925928
 30
0.0
 10
-3.97602159294478
 20
37.27465710000675
 30
0.0
 10
-3.979048854226321
 20
37.07387824714872
 30
0.0
 10
-3.999485337857447
 20
36.78649368916564
 30
0.0
 10
-4.03289413991313
 20
36.52587974812577
 30
0.0
 10
-4.077619388140224
 20
36.29201934563655
 30
0.0
 10
-4.139633113281913
 20
36.08616470502498
 30
0.0
 10
-4.214847737557898
 20
35.90769791300902
 30
0.0
 10
-4.302468138239425
 20
35.75428099471353
 30
0.0
 10
-4.408883098487182
 20
35.62654499896463
 30
0.0
 10
-4.535299448003086
 20
35.5184472320439
 30
0.0
 10
-4.689103681556388
 20
35.43092771534781
 30
0.0
 10
-4.868176002471982
 20
35.35742998290231
 30
0.0
 10
-5.073428778179656
 20
35.29368498682761
 30
0.0
 10
-5.306665255460971
 20
35.24969935663921
 30
0.0
 10
-5.567220619761911
 20
35.2161092629135
 30
0.0
 10
-5.854622949034324
 20
35.19572778041049
 30
0.0
 10
-6.05539919755849
 20
35.192692458864
 30
0.0
 10
-6.160000000000067
 20
35.19111111111113
 30
0.0
  0
LINE
  5
CB
330
1F
100
AcDbEntity
  8
0
  6
Continuous
 62
     7
370
    25
100
AcDbLine
 10
-6.16
 20
35.1911111111
 30
0.0
 11
-8.3481481481
 21
35.1911111111
 31
0.0
  0
SPLINE
  5
CC
330
1F
100
AcDbEntity
  8
0
  6
Continuous
 62
     7
370
    25
100
AcDbSpline
210
0.0
220
0.0
230
1.0
 70
     8
 71
     3
 72
    23
 73
    19
 74
     0
 42
0.00000001
 43
0.00000001
 40
0.0
 40
0.0
 40
0.0
 40
0.0
 40
0.0853259371935136
 40
0.1637790645161703
 40
0.2348678964653942
 40
0.2995704519535812
 40
0.3577752654243254
 40
0.409889616931866
 40
0.457284501753962
 40
0.5013315854190834
 40
0.5448394472956152
 40
0.5922343321177106
 40
0.6449978577315049
 40
0.7025285194575102
 40
0.7665399576287045
 40
0.8376287895779281
 40
0.9153788008251085
 40
1.0
 40
1.0
 40
1.0
 40
1.0
 10
-8.348148148148216
 20
35.19111111111113
 30
0.0
 10
-8.452750307437617
 20
35.19268825960429
 30
0.0
 10
-8.65352916036643
 20
35.19571552087216
 30
0.0
 10
-8.94091371786652
 20
35.21615200459653
 30
0.0
 10
-9.201527660498384
 20
35.24956080634486
 30
0.0
 10
-9.435388057839743
 20
35.29428605556583
 30
0.0
 10
-9.641242714892991
 20
35.35629977753319
 30
0.0
 10
-9.819709454535673
 20
35.43151441192062
 30
0.0
 10
-9.973126543073906
 20
35.51913477973424
 30
0.0
 10
-10.10086196079713
 20
35.62554985157855
 30
0.0
 10
-10.20896188992928
 20
35.75196578364698
 30
0.0
 10
-10.29647230910222
 20
35.90577177361416
 30
0.0
 10
-10.37000957635701
 20
36.08483646173926
 30
0.0
 10
-10.43333275226263
 20
36.28931146429984
 30
0.0
 10
-10.47805299967781
 20
36.52153413324845
 30
0.0
 10
-10.51107404438637
 20
36.78045639034838
 30
0.0
 10
-10.53173330158902
 20
37.06609421685685
 30
0.0
 10
-10.53473298475738
 20
37.26514947320027
 30
0.0
 10
-10.53629629629636
 20
37.36888888888891
 30
0.0
  0
LINE
  5
CD
330
1F
100
AcDbEntity
  8
0
  6
Continuous
 62
     7
370
    25
100
AcDbLine
 10
-10.5362962963
 20
37.3688888889
 30
0.0
 11
-10.5362962963
 21
41.4704027648
 31
0.0
  0
LINE
  5
CE
330
1F
100
AcDbEntity
  8
0
  6
Continuous
 62
     7
370
    25
100
AcDbLine
 10
-10.5362962963
 20
41.4704027648
 30
0.0
 11
-8.3481481481
 21
41.4704027648
 31
0.0
  0
LINE
  5
CF
330
1F
100
AcDbEntity
  8
0
  6
Continuous
 62
     7
370
    25
100
AcDbLine
 10
-8.3481481481
 20
41.4704027648
 30
0.0
 11
-8.3481481481
 21
37.3688888889
 31
0.0
  0
LINE
  5
D0
330
1F
100
AcDbEntity
  8
0
  6
Continuous
 62
     7
370
    25
100
AcDbLine
 10
-8.3481481481
 20
37.3688888889
 30
0.0
 11
-6.16
 21
37.3688888889
 31
0.0
  0
SPLINE
  5
D1
330
1F
100
AcDbEntity
  8
0
  6
Continuous
 62
     7
370
    25
100
AcDbSpline
210
0.0
220
0.0
230
1.0
 70
     8
 71
     3
 72
    23
 73
    19
 74
     0
 42
0.00000001
 43
0.00000001
 40
0.0
 40
0.0
 40
0.0
 40
0.0
 40
0.08513719332247
 40
0.1634167796629419
 40
0.2343483607014644
 40
0.2989077919393834
 40
0.3563111938877032
 40
0.4089580047908029
 40
0.4562480505179734
 40
0.4996596715263528
 40
0.5430712925347334
 40
0.5903613382619028
 40
0.6430081491650027
 40
0.7010842116115082
 40
0.7649540543074121
 40
0.8365832203370582
 40
0.91486280667753
 40
1.0
 40
1.0
 40
1.0
 40
1.0
 10
-40.00888888888895
 20
49.19111111111113
 30
0.0
 10
-39.90428805179506
 20
49.18952979294728
 30
0.0
 10
-39.70351173675743
 20
49.18649452819547
 30
0.0
 10
-39.41610986135537
 20
49.16611265814045
 30
0.0
 10
-39.15555300103213
 20
49.13252384184219
 30
0.0
 10
-38.92232134453373
 20
49.08853409527097
 30
0.0
 10
-38.71705322893011
 20
49.02480219766704
 30
0.0
 10
-38.53803056478302
 20
48.95126206416924
 30
0.0
 10
-38.38406645579249
 20
48.86387906233278
 30
0.0
 10
-38.25869213839937
 20
48.75575476766934
 30
0.0
 10
-38.1505522832404
 20
48.63038080118017
 30
0.0
 10
-38.06323991604828
 20
48.47639773318108
 30
0.0
 10
-37.98907561096578
 20
48.29669782440634
 30
0.0
 10
-37.92680191118406
 20
48.09102583454794
 30
0.0
 10
-37.88123000105896
 20
47.85729592537482
 30
0.0
 10
-37.84864551813885
 20
47.59655463628769
 30
0.0
 10
-37.82787760805682
 20
47.30835236270146
 30
0.0
 10
-37.82488988377188
 20
47.10756799522974
 30
0.0
 10
-37.82333333333339
 20
47.00296296296298
 30
0.0
  0
LINE
  5
D2
330
1F
100
AcDbEntity
  8
0
  6
Continuous
 62
     7
370
    25
100
AcDbLine
 10
-37.8233333333
 20
47.002962963
 30
0.0
 11
-42.197037037
 21
47.002962963
 31
0.0
  0
LINE
  5
D3
330
1F
100
AcDbEntity
  8
0
  6
Continuous
 62
     7
370
    25
100
AcDbLine
 10
-42.197037037
 20
47.002962963
 30
0.0
 11
-42.197037037
 21
43.0674074074
 31
0.0
  0
LINE
  5
D4
330
1F
100
AcDbEntity
  8
0
  6
Continuous
 62
     7
370
    25
100
AcDbLine
 10
-42.197037037
 20
43.0674074074
 30
0.0
 11
-40.0088888889
 21
44.1588888889
 31
0.0
  0
LINE
  5
D5
330
1F
100
AcDbEntity
  8
0
  6
Continuous
 62
     7
370
    25
100
AcDbLine
 10
-40.0088888889
 20
44.1588888889
 30
0.0
 11
-40.0088888889
 21
45.002962963
 31
0.0
  0
LINE
  5
D6
330
1F
100
AcDbEntity
  8
0
  6
Continuous
 62
     7
370
    25
100
AcDbLine
 10
-40.0088888889
 20
45.002962963
 30
0.0
 11
-37.8233333333
 21
45.002962963
 31
0.0
  0
LINE
  5
D7
330
1F
100
AcDbEntity
  8
0
  6
Continuous
 62
     7
370
    25
100
AcDbLine
 10
-37.8233333333
 20
45.002962963
 30
0.0
 11
-37.8233333333
 21
35.1911111111
 31
0.0
  0
LINE
  5
D8
330
1F
100
AcDbEntity
  8
0
  6
Continuous
 62
     7
370
    25
100
AcDbLine
 10
-37.8233333333
 20
35.1911111111
 30
0.0
 11
-40.0088888889
 21
35.1911111111
 31
0.0
  0
LINE
  5
D9
330
1F
100
AcDbEntity
  8
0
  6
Continuous
 62
     7
370
    25
100
AcDbLine
 10
-40.0088888889
 20
35.1911111111
 30
0.0
 11
-40.0088888889
 21
41.5351851852
 31
0.0
  0
LINE
  5
DA
330
1F
100
AcDbEntity
  8
0
  6
Continuous
 62
     7
370
    25
100
AcDbLine
 10
-40.0088888889
 20
41.5351851852
 30
0.0
 11
-42.197037037
 21
40.4411111111
 31
0.0
  0
LINE
  5
DB
330
1F
100
AcDbEntity
  8
0
  6
Continuous
 62
     7
370
    25
100
AcDbLine
 10
-42.197037037
 20
40.4411111111
 30
0.0
 11
-42.197037037
 21
35.1911111111
 31
0.0
  0
LINE
  5
DC
330
1F
100
AcDbEntity
  8
0
  6
Continuous
 62
     7
370
    25
100
AcDbLine
 10
-42.197037037
 20
35.1911111111
 30
0.0
 11
-44.3851851852
 21
35.1911111111
 31
0.0
  0
LINE
  5
DD
330
1F
100
AcDbEntity
  8
0
  6
Continuous
 62
     7
370
    25
100
AcDbLine
 10
-44.3851851852
 20
35.1911111111
 30
0.0
 11
-44.3851851852
 21
47.002962963
 31
0.0
  0
SPLINE
  5
DE
330
1F
100
AcDbEntity
  8
0
  6
Continuous
 62
     7
370
    25
100
AcDbSpline
210
0.0
220
0.0
230
1.0
 70
     8
 71
     3
 72
    23
 73
    19
 74
     0
 42
0.00000001
 43
0.00000001
 40
0.0
 40
0.0
 40
0.0
 40
0.0
 40
0.0850892921864123
 40
0.1633248357182183
 40
0.2349137006961877
 40
0.2987476080046826
 40
0.3567909948453761
 40
0.4094081848277753
 40
0.4566716235360137
 40
0.500058819661645
 40
0.5439837420851847
 40
0.5912471807934231
 40
0.6432169971046527
 40
0.7012603839453463
 40
0.7657834918094394
 40
0.8366751642817816
 40
0.9149107078135877
 40
1.0
 40
1.0
 40
1.0
 40
1.0
 10
-44.38518518518524
 20
47.00296296296298
 30
0.0
 10
-44.38362860523727
 20
47.1075679608635
 30
0.0
 10
-44.38064082431032
 20
47.30835226237087
 30
0.0
 10
-44.35987330188907
 20
47.59655498742041
 30
0.0
 10
-44.32728753732287
 20
47.85729478392366
 30
0.0
 10
-44.28171971511919
 20
48.09102945382259
 30
0.0
 10
-44.21943284374315
 20
48.29668610425967
 30
0.0
 10
-44.14531094583771
 20
48.47643539973275
 30
0.0
 10
-44.05786244902185
 20
48.63025993341937
 30
0.0
 10
-43.9497478027821
 20
48.7566714581957
 30
0.0
 10
-43.82201631939466
 20
48.86308770824484
 30
0.0
 10
-43.66859807209818
 20
48.95070772904826
 30
0.0
 10
-43.4901316889346
 20
49.02592247018953
 30
0.0
 10
-43.28427691997085
 20
49.08793615864337
 30
0.0
 10
-43.05041655766836
 20
49.13266141835732
 30
0.0
 10
-42.78980260420073
 20
49.1660702168607
 30
0.0
 10
-42.50241804998807
 20
49.18650670156955
 30
0.0
 10
-42.30163919657748
 20
49.18953396269315
 30
0.0
 10
-42.1970370370371
 20
49.19111111111113
 30
0.0
  0
LINE
  5
DF
330
1F
100
AcDbEntity
  8
0
  6
Continuous
 62
     7
370
    25
100
AcDbLine
 10
-42.197037037
 20
49.1911111111
 30
0.0
 11
-40.0088888889
 21
49.1911111111
 31
0.0
  0
LINE
  5
E0
330
1F
100
AcDbEntity
  8
0
  6
Continuous
 62
     7
370
    25
100
AcDbLine
 10
29.317037037
 20
71.5955555556
 30
0.0
 11
31.067037037
 21
71.5955555556
 31
0.0
  0
SPLINE
  5
E1
330
1F
100
AcDbEntity
  8
0
  6
Continuous
 62
     7
370
    25
100
AcDbSpline
210
0.0
220
0.0
230
1.0
 70
     8
 71
     3
 72
    15
 73
    11
 74
     0
 42
0.00000001
 43
0.00000001
 40
0.0
 40
0.0
 40
0.0
 40
0.0
 40
0.1511075956111855
 40
0.2906694854430245
 40
0.4171627115027935
 40
0.5361461476899967
 40
0.6508502216018539
 40
0.7629336664276802
 40
0.8791174563150707
 40
1.0
 40
1.0
 40
1.0
 40
1.0
 10
31.06703703703704
 20
71.59555555555556
 30
0.0
 10
31.13627476037111
 20
71.59366661152397
 30
0.0
 10
31.26945994761045
 20
71.59003305235395
 30
0.0
 10
31.45898077698263
 20
71.55984028205368
 30
0.0
 10
31.62752080114913
 20
71.50662008097997
 30
0.0
 10
31.77866852001256
 20
71.43826982448302
 30
0.0
 10
31.90632167466465
 20
71.34277196889875
 30
0.0
 10
32.01612381798979
 20
71.2293702536559
 30
0.0
 10
32.10208112635239
 20
71.09287198465059
 30
0.0
 10
32.14117615624831
 20
70.99138094623423
 30
0.0
 10
32.16111111111111
 20
70.93962962962965
 30
0.0
  0
SPLINE
  5
E2
330
1F
100
AcDbEntity
  8
0
  6
Continuous
 62
     7
370
    25
100
AcDbSpline
210
0.0
220
0.0
230
1.0
 70
     8
 71
     3
 72
    15
 73
    11
 74
     0
 42
0.00000001
 43
0.00000001
 40
0.0
 40
0.0
 40
0.0
 40
0.0
 40
0.120867708708885
 40
0.2370372402618031
 40
0.349106929956671
 40
0.4637969271281091
 40
0.581063859887317
 40
0.7093431905745353
 40
0.8470270162664304
 40
1.0
 40
1.0
 40
1.0
 40
1.0
 10
32.16111111111111
 20
70.93962962962965
 30
0.0
 10
32.18104502787249
 20
70.99138330738099
 30
0.0
 10
32.22013802191695
 20
71.09287897631208
 30
0.0
 10
32.30610997257867
 20
71.22934394161925
 30
0.0
 10
32.41585840811774
 20
71.34286781444685
 30
0.0
 10
32.54308848209026
 20
71.43742858919889
 30
0.0
 10
32.69333384651431
 20
71.50787097097766
 30
0.0
 10
32.86178557940639
 20
71.55889139814397
 30
0.0
 10
33.05180103688705
 20
71.59052478810973
 30
0.0
 10
33.18505400714205
 20
71.59382083999198
 30
0.0
 10
33.25518518518518
 20
71.59555555555556
 30
0.0
  0
LINE
  5
E3
330
1F
100
AcDbEntity
  8
0
  6
Continuous
 62
     7
370
    25
100
AcDbLine
 10
33.2551851852
 20
71.5955555556
 30
0.0
 11
35.0051851852
 21
71.5955555556
 31
0.0
  0
SPLINE
  5
E4
330
1F
100
AcDbEntity
  8
0
  6
Continuous
 62
     7
370
    25
100
AcDbSpline
210
0.0
220
0.0
230
1.0
 70
     8
 71
     3
 72
    23
 73
    19
 74
     0
 42
0.00000001
 43
0.00000001
 40
0.0
 40
0.0
 40
0.0
 40
0.0
 40
0.0853714828004002
 40
0.1638664871350635
 40
0.2349932651543869
 40
0.2997303578214657
 40
0.3572917284853268
 40
0.4100834184167334
 40
0.4575036018627122
 40
0.501034687533072
 40
0.5445657732034334
 40
0.591985956649413
 40
0.6441281259559118
 40
0.7023640082158278
 40
0.7664096146586543
 40
0.8368370042524172
 40
0.9146285171995978
 40
1.0
 40
1.0
 40
1.0
 40
1.0
 10
35.00518518518519
 20
71.59555555555556
 30
0.0
 10
35.10978602365407
 20
71.59397423797526
 30
0.0
 10
35.31056234133096
 20
71.59093897434356
 30
0.0
 10
35.59796419872339
 20
71.5705570966452
 30
0.0
 10
35.85852111840904
 20
71.53696830554058
 30
0.0
 10
36.09175258361796
 20
71.49297847778526
 30
0.0
 10
36.29702130791121
 20
71.429246838512
 30
0.0
 10
36.47604200166947
 20
71.35570586877212
 30
0.0
 10
36.63001245454404
 20
71.2683255593092
 30
0.0
 10
36.7553654673484
 20
71.16019222288041
 30
0.0
 10
36.86358577046052
 20
71.03485239887219
 30
0.0
 10
36.95016577183131
 20
70.88142174445032
 30
0.0
 10
37.02563147353344
 20
70.70314365247863
 30
0.0
 10
37.08718424870687
 20
70.49801438646844
 30
0.0
 10
37.13238396571733
 20
70.26601140550711
 30
0.0
 10
37.1656878143263
 20
70.0079523220161
 30
0.0
 10
37.18621187217421
 20
69.7223013930529
 30
0.0
 10
37.18918507640318
 20
69.52238150413262
 30
0.0
 10
37.19074074074074
 20
69.41777777777779
 30
0.0
  0
LINE
  5
E5
330
1F
100
AcDbEntity
  8
0
  6
Continuous
 62
     7
370
    25
100
AcDbLine
 10
37.1907407407
 20
69.4177777778
 30
0.0
 11
37.1907407407
 21
57.5955555556
 31
0.0
  0
LINE
  5
E6
330
1F
100
AcDbEntity
  8
0
  6
Continuous
 62
     7
370
    25
100
AcDbLine
 10
37.1907407407
 20
57.5955555556
 30
0.0
 11
35.0051851852
 21
57.5955555556
 31
0.0
  0
LINE
  5
E7
330
1F
100
AcDbEntity
  8
0
  6
Continuous
 62
     7
370
    25
100
AcDbLine
 10
35.0051851852
 20
57.5955555556
 30
0.0
 11
35.0051851852
 21
69.4177777778
 31
0.0
  0
LINE
  5
E8
330
1F
100
AcDbEntity
  8
0
  6
Continuous
 62
     7
370
    25
100
AcDbLine
 10
35.0051851852
 20
69.4177777778
 30
0.0
 11
33.2551851852
 21
69.4177777778
 31
0.0
  0
LINE
  5
E9
330
1F
100
AcDbEntity
  8
0
  6
Continuous
 62
     7
370
    25
100
AcDbLine
 10
33.2551851852
 20
69.4177777778
 30
0.0
 11
33.2551851852
 21
57.5955555556
 31
0.0
  0
LINE
  5
EA
330
1F
100
AcDbEntity
  8
0
  6
Continuous
 62
     7
370
    25
100
AcDbLine
 10
33.2551851852
 20
57.5955555556
 30
0.0
 11
31.067037037
 21
57.5955555556
 31
0.0
  0
LINE
  5
EB
330
1F
100
AcDbEntity
  8
0
  6
Continuous
 62
     7
370
    25
100
AcDbLine
 10
31.067037037
 20
57.5955555556
 30
0.0
 11
31.067037037
 21
69.4177777778
 31
0.0
  0
LINE
  5
EC
330
1F
100
AcDbEntity
  8
0
  6
Continuous
 62
     7
370
    25
100
AcDbLine
 10
31.067037037
 20
69.4177777778
 30
0.0
 11
29.317037037
 21
69.4177777778
 31
0.0
  0
LINE
  5
ED
330
1F
100
AcDbEntity
  8
0
  6
Continuous
 62
     7
370
    25
100
AcDbLine
 10
29.317037037
 20
69.4177777778
 30
0.0
 11
29.317037037
 21
57.5955555556
 31
0.0
  0
LINE
  5
EE
330
1F
100
AcDbEntity
  8
0
  6
Continuous
 62
     7
370
    25
100
AcDbLine
 10
29.317037037
 20
57.5955555556
 30
0.0
 11
27.1288888889
 21
57.5955555556
 31
0.0
  0
LINE
  5
EF
330
1F
100
AcDbEntity
  8
0
  6
Continuous
 62
     7
370
    25
100
AcDbLine
 10
27.1288888889
 20
57.5955555556
 30
0.0
 11
27.1288888889
 21
69.4074074074
 31
0.0
  0
SPLINE
  5
F0
330
1F
100
AcDbEntity
  8
0
  6
Continuous
 62
     7
370
    25
100
AcDbSpline
210
0.0
220
0.0
230
1.0
 70
     8
 71
     3
 72
    23
 73
    19
 74
     0
 42
0.00000001
 43
0.00000001
 40
0.0
 40
0.0
 40
0.0
 40
0.0
 40
0.0850892921864124
 40
0.1633248357182185
 40
0.2349137006961862
 40
0.2987476080046847
 40
0.3567909948453767
 40
0.4094081848277742
 40
0.4566716235360123
 40
0.5000588196616456
 40
0.5439837420851846
 40
0.5912471807934221
 40
0.6432169971046534
 40
0.7012603839453456
 40
0.7657834918094388
 40
0.836675164281781
 40
0.9149107078135884
 40
0.9999999999999999
 40
0.9999999999999999
 40
0.9999999999999999
 40
0.9999999999999999
 10
27.12888888888889
 20
69.40740740740743
 30
0.0
 10
27.13044546883686
 20
69.51201240530794
 30
0.0
 10
27.13343324976383
 20
69.7127967068153
 30
0.0
 10
27.15420077218505
 20
70.00099943186486
 30
0.0
 10
27.18678653675128
 20
70.26173922836809
 30
0.0
 10
27.23235435895491
 20
70.49547389826701
 30
0.0
 10
27.29464123033101
 20
70.70113054870411
 30
0.0
 10
27.36876312823642
 20
70.88087984417719
 30
0.0
 10
27.45621162505229
 20
71.0347043778638
 30
0.0
 10
27.56432627129203
 20
71.16111590264013
 30
0.0
 10
27.6920577546795
 20
71.26753215268927
 30
0.0
 10
27.84547600197596
 20
71.35515217349268
 30
0.0
 10
28.02394238513952
 20
71.43036691463396
 30
0.0
 10
28.22979715410329
 20
71.49238060308777
 30
0.0
 10
28.46365751640577
 20
71.53710586280174
 30
0.0
 10
28.72427146987339
 20
71.57051466130514
 30
0.0
 10
29.01165602408608
 20
71.59095114601399
 30
0.0
 10
29.21243487749665
 20
71.59397840713757
 30
0.0
 10
29.31703703703704
 20
71.59555555555556
 30
0.0
  0
LINE
  5
F1
330
1F
100
AcDbEntity
  8
0
  6
Continuous
 62
     7
370
    25
100
AcDbLine
 10
-25.8688888889
 20
80.0
 30
0.0
 11
-31.1111111111
 21
80.0
 31
0.0
  0
LINE
  5
F2
330
1F
100
AcDbEntity
  8
0
  6
Continuous
 62
     7
370
    25
100
AcDbLine
 10
-31.1111111111
 20
80.0
 30
0.0
 11
-31.1111111111
 21
94.0077777778
 31
0.0
  0
LINE
  5
F3
330
1F
100
AcDbEntity
  8
0
  6
Continuous
 62
     7
370
    25
100
AcDbLine
 10
-31.1111111111
 20
94.0077777778
 30
0.0
 11
-28.922962963
 21
94.0077777778
 31
0.0
  0
LINE
  5
F4
330
1F
100
AcDbEntity
  8
0
  6
Continuous
 62
     7
370
    25
100
AcDbLine
 10
-28.922962963
 20
94.0077777778
 30
0.0
 11
-28.922962963
 21
82.1881481481
 31
0.0
  0
LINE
  5
F5
330
1F
100
AcDbEntity
  8
0
  6
Continuous
 62
     7
370
    25
100
AcDbLine
 10
-28.922962963
 20
82.1881481481
 30
0.0
 11
-25.8688888889
 21
82.1881481481
 31
0.0
  0
LINE
  5
F6
330
1F
100
AcDbEntity
  8
0
  6
Continuous
 62
     7
370
    25
100
AcDbLine
 10
-25.8688888889
 20
82.1881481481
 30
0.0
 11
-25.8688888889
 21
80.0
 31
0.0
  0
LINE
  5
F7
330
1F
100
AcDbEntity
  8
0
  6
Continuous
 62
     7
370
    25
100
AcDbLine
 10
-15.4777777778
 20
80.0
 30
0.0
 11
-21.1555555556
 21
80.0
 31
0.0
  0
LINE
  5
F8
330
1F
100
AcDbEntity
  8
0
  6
Continuous
 62
     7
370
    25
100
AcDbLine
 10
-21.1555555556
 20
80.0
 30
0.0
 11
-21.1555555556
 21
94.0
 31
0.0
  0
LINE
  5
F9
330
1F
100
AcDbEntity
  8
0
  6
Continuous
 62
     7
370
    25
100
AcDbLine
 10
-21.1555555556
 20
94.0
 30
0.0
 11
-15.4674074074
 21
94.0
 31
0.0
  0
LINE
  5
FA
330
1F
100
AcDbEntity
  8
0
  6
Continuous
 62
     7
370
    25
100
AcDbLine
 10
-15.4674074074
 20
94.0
 30
0.0
 11
-15.4674074074
 21
91.8118518519
 31
0.0
  0
LINE
  5
FB
330
1F
100
AcDbEntity
  8
0
  6
Continuous
 62
     7
370
    25
100
AcDbLine
 10
-15.4674074074
 20
91.8118518519
 30
0.0
 11
-18.9674074074
 21
91.8118518519
 31
0.0
  0
LINE
  5
FC
330
1F
100
AcDbEntity
  8
0
  6
Continuous
 62
     7
370
    25
100
AcDbLine
 10
-18.9674074074
 20
91.8118518519
 30
0.0
 11
-18.9674074074
 21
87.8840740741
 31
0.0
  0
LINE
  5
FD
330
1F
100
AcDbEntity
  8
0
  6
Continuous
 62
     7
370
    25
100
AcDbLine
 10
-18.9674074074
 20
87.8840740741
 30
0.0
 11
-15.4674074074
 21
89.6262962963
 31
0.0
  0
LINE
  5
FE
330
1F
100
AcDbEntity
  8
0
  6
Continuous
 62
     7
370
    25
100
AcDbLine
 10
-15.4674074074
 20
89.6262962963
 30
0.0
 11
-15.4674074074
 21
87.0077777778
 31
0.0
  0
LINE
  5
FF
330
1F
100
AcDbEntity
  8
0
  6
Continuous
 62
     7
370
    25
100
AcDbLine
 10
-15.4674074074
 20
87.0077777778
 30
0.0
 11
-18.9674074074
 21
85.2577777778
 31
0.0
  0
LINE
  5
100
330
1F
100
AcDbEntity
  8
0
  6
Continuous
 62
     7
370
    25
100
AcDbLine
 10
-18.9674074074
 20
85.2577777778
 30
0.0
 11
-18.9674074074
 21
82.1881481481
 31
0.0
  0
LINE
  5
101
330
1F
100
AcDbEntity
  8
0
  6
Continuous
 62
     7
370
    25
100
AcDbLine
 10
-18.9674074074
 20
82.1881481481
 30
0.0
 11
-15.4674074074
 21
82.1881481481
 31
0.0
  0
LINE
  5
102
330
1F
100
AcDbEntity
  8
0
  6
Continuous
 62
     7
370
    25
100
AcDbLine
 10
-15.4674074074
 20
82.1881481481
 30
0.0
 11
-15.4777777778
 21
80.0
 31
0.0
  0
LINE
  5
103
330
1F
100
AcDbEntity
  8
0
  6
Continuous
 62
     7
370
    25
100
AcDbLine
 10
-8.68
 20
82.1777777778
 30
0.0
 11
-6.4918518519
 21
82.1777777778
 31
0.0
  0
LINE
  5
104
330
1F
100
AcDbEntity
  8
0
  6
Continuous
 62
     7
370
    25
100
AcDbLine
 10
-6.4918518519
 20
82.1777777778
 30
0.0
 11
-6.4918518519
 21
83.7177777778
 31
0.0
  0
LINE
  5
105
330
1F
100
AcDbEntity
  8
0
  6
Continuous
 62
     7
370
    25
100
AcDbLine
 10
-6.4918518519
 20
83.7177777778
 30
0.0
 11
-4.3062962963
 21
84.8118518519
 31
0.0
  0
LINE
  5
106
330
1F
100
AcDbEntity
  8
0
  6
Continuous
 62
     7
370
    25
100
AcDbLine
 10
-4.3062962963
 20
84.8118518519
 30
0.0
 11
-4.3062962963
 21
82.1881481481
 31
0.0
  0
SPLINE
  5
107
330
1F
100
AcDbEntity
  8
0
  6
Continuous
 62
     7
370
    25
100
AcDbSpline
210
0.0
220
0.0
230
1.0
 70
     8
 71
     3
 72
    23
 73
    19
 74
     0
 42
0.00000001
 43
0.00000001
 40
0.0
 40
0.0
 40
0.0
 40
0.0
 40
0.0851472156221891
 40
0.1634360169889681
 40
0.2343759480509896
 40
0.2989429791867205
 40
0.3570258783127288
 40
0.4090310724046431
 40
0.4563266850878465
 40
0.5002815088345435
 40
0.5436982402331065
 40
0.5909938529163093
 40
0.6436468613706507
 40
0.7010570208132776
 40
0.7656240519490117
 40
0.8365639830110317
 40
0.9148527843778115
 40
1.0
 40
1.0
 40
1.0
 40
1.0
 10
-4.306296296296362
 20
82.18814814814816
 30
0.0
 10
-4.30787344479663
 20
82.08354598889561
 30
0.0
 10
-4.310900706078169
 20
81.88276713603756
 30
0.0
 10
-4.331337189709301
 20
81.59538257805458
 30
0.0
 10
-4.364745991764976
 20
81.33476863701459
 30
0.0
 10
-4.409471239992076
 20
81.1009082345254
 30
0.0
 10
-4.471484965133762
 20
80.89505359391386
 30
0.0
 10
-4.546699589409748
 20
80.71658680189789
 30
0.0
 10
-4.634319990091271
 20
80.5631698836024
 30
0.0
 10
-4.740734950339036
 20
80.43543388785352
 30
0.0
 10
-4.867151299854934
 20
80.32733612093278
 30
0.0
 10
-5.020955533408242
 20
80.2398166042367
 30
0.0
 10
-5.200027854323829
 20
80.16631887179119
 30
0.0
 10
-5.405280630031505
 20
80.10257387571647
 30
0.0
 10
-5.638517107312823
 20
80.05858824552813
 30
0.0
 10
-5.89907247161376
 20
80.0249981518024
 30
0.0
 10
-6.186474800886174
 20
80.00461666929937
 30
0.0
 10
-6.38725104941034
 20
80.00158134775288
 30
0.0
 10
-6.491851851851917
 20
80.00000000000001
 30
0.0
  0
LINE
  5
108
330
1F
100
AcDbEntity
  8
0
  6
Continuous
 62
     7
370
    25
100
AcDbLine
 10
-6.4918518519
 20
80.0
 30
0.0
 11
-8.68
 21
80.0
 31
0.0
  0
SPLINE
  5
109
330
1F
100
AcDbEntity
  8
0
  6
Continuous
 62
     7
370
    25
100
AcDbSpline
210
0.0
220
0.0
230
1.0
 70
     8
 71
     3
 72
    23
 73
    19
 74
     0
 42
0.00000001
 43
0.00000001
 40
0.0
 40
0.0
 40
0.0
 40
0.0
 40
0.0853259371935136
 40
0.1637790645161707
 40
0.2348678964653947
 40
0.2995704519535817
 40
0.3577752654243254
 40
0.4098896169318668
 40
0.457284501753962
 40
0.5013315854190834
 40
0.5448394472956167
 40
0.592234332117712
 40
0.6449978577315046
 40
0.7025285194575099
 40
0.7665399576287044
 40
0.8376287895779261
 40
0.9153788008251085
 40
1.0
 40
1.0
 40
1.0
 40
1.0
 10
-8.680000000000065
 20
80.00000000000001
 30
0.0
 10
-8.784602159289468
 20
80.00157714849317
 30
0.0
 10
-8.985381012218284
 20
80.00460440976106
 30
0.0
 10
-9.272765569718368
 20
80.02504089348541
 30
0.0
 10
-9.533379512350235
 20
80.05844969523375
 30
0.0
 10
-9.76723990969159
 20
80.10317494445471
 30
0.0
 10
-9.973094566744845
 20
80.16518866642208
 30
0.0
 10
-10.15156130638752
 20
80.24040330080953
 30
0.0
 10
-10.30497839492576
 20
80.32802366862313
 30
0.0
 10
-10.43271381264898
 20
80.43443874046741
 30
0.0
 10
-10.54081374178112
 20
80.56085467253585
 30
0.0
 10
-10.62832416095407
 20
80.71466066250309
 30
0.0
 10
-10.70186142820885
 20
80.89372535062812
 30
0.0
 10
-10.76518460411448
 20
81.09820035318874
 30
0.0
 10
-10.80990485152965
 20
81.33042302213731
 30
0.0
 10
-10.84292589623822
 20
81.58934527923724
 30
0.0
 10
-10.86358515344088
 20
81.87498310574576
 30
0.0
 10
-10.86658483660923
 20
82.07403836208915
 30
0.0
 10
-10.86814814814821
 20
82.17777777777779
 30
0.0
  0
LINE
  5
10A
330
1F
100
AcDbEntity
  8
0
  6
Continuous
 62
     7
370
    25
100
AcDbLine
 10
-10.8681481481
 20
82.1777777778
 30
0.0
 11
-10.8681481481
 21
91.8118518519
 31
0.0
  0
SPLINE
  5
10B
330
1F
100
AcDbEntity
  8
0
  6
Continuous
 62
     7
370
    25
100
AcDbSpline
210
0.0
220
0.0
230
1.0
 70
     8
 71
     3
 72
    23
 73
    19
 74
     0
 42
0.00000001
 43
0.00000001
 40
0.0
 40
0.0
 40
0.0
 40
0.0
 40
0.0851839288800129
 40
0.1628045404588717
 40
0.2330772070398932
 40
0.2978137795759075
 40
0.3557210626395002
 40
0.4080287704934205
 40
0.455344775810836
 40
0.4993185517307195
 40
0.5432923276506034
 40
0.5909681160281894
 40
0.6439204895980828
 40
0.7020284325547664
 40
0.7660765645228476
 40
0.8371412384921779
 40
0.9148160711199876
 40
1.0
 40
1.0
 40
1.0
 40
1.0
 10
-10.86814814814821
 20
91.81185185185187
 30
0.0
 10
-10.86662797698631
 20
91.9164642388777
 30
0.0
 10
-10.86372260773784
 20
92.11640068017564
 30
0.0
 10
-10.84273884213003
 20
92.4019394360918
 30
0.0
 10
-10.81082056215694
 20
92.66138184339532
 30
0.0
 10
-10.76042906610093
 20
92.89292404036576
 30
0.0
 10
-10.70460024195497
 20
93.1009590387401
 30
0.0
 10
-10.62442219190454
 20
93.27760303464102
 30
0.0
 10
-10.53762499166203
 20
93.43157223169736
 30
0.0
 10
-10.43108023284218
 20
93.56042499174148
 30
0.0
 10
-10.30159671953122
 20
93.66643772963964
 30
0.0
 10
-10.14868133873814
 20
93.75771823209016
 30
0.0
 10
-9.969092491816912
 20
93.83489715345382
 30
0.0
 10
-9.762507549192808
 20
93.89575027360964
 30
0.0
 10
-9.530174234242466
 20
93.94489868331293
 30
0.0
 10
-9.271068620292247
 20
93.97979577013153
 30
0.0
 10
-8.984650620265395
 20
94.00406965856371
 30
0.0
 10
-8.784624477058255
 20
94.006504318911
 30
0.0
 10
-8.680000000000065
 20
94.00777777777779
 30
0.0
  0
LINE
  5
10C
330
1F
100
AcDbEntity
  8
0
  6
Continuous
 62
     7
370
    25
100
AcDbLine
 10
-8.68
 20
94.0077777778
 30
0.0
 11
-6.4918518519
 21
94.0
 31
0.0
  0
SPLINE
  5
10D
330
1F
100
AcDbEntity
  8
0
  6
Continuous
 62
     7
370
    25
100
AcDbSpline
210
0.0
220
0.0
230
1.0
 70
     8
 71
     3
 72
    23
 73
    19
 74
     0
 42
0.00000001
 43
0.00000001
 40
0.0
 40
0.0
 40
0.0
 40
0.0
 40
0.0842256287408283
 40
0.1615644604021771
 40
0.2323209803493797
 40
0.2960331905182618
 40
0.3539659196466219
 40
0.4055654421159331
 40
0.4527387747106413
 40
0.4961341112465359
 40
0.5394385911812423
 40
0.5863712686296627
 40
0.638888145756634
 40
0.6974925933913962
 40
0.7620339646841827
 40
0.8341823235976298
 40
0.9129685756388971
 40
0.9999999999999999
 40
0.9999999999999999
 40
0.9999999999999999
 40
0.9999999999999999
 10
-6.491851851851917
 20
94.00000000000001
 30
0.0
 10
-6.388135180743169
 20
93.99810346988723
 30
0.0
 10
-6.189182341175087
 20
93.99446548144012
 30
0.0
 10
-5.903304723467822
 20
93.97818544747133
 30
0.0
 10
-5.644507871371606
 20
93.94420060499316
 30
0.0
 10
-5.411466207757535
 20
93.89937691226994
 30
0.0
 10
-5.207284886098467
 20
93.8365530301114
 30
0.0
 10
-5.02730093853815
 20
93.76553509606738
 30
0.0
 10
-4.875760369901489
 20
93.67663205527424
 30
0.0
 10
-4.745815379046326
 20
93.57368951883068
 30
0.0
 10
-4.640113337439721
 20
93.44638383338419
 30
0.0
 10
-4.547410457381571
 20
93.29622083557838
 30
0.0
 10
-4.474375201014636
 20
93.11501480608997
 30
0.0
 10
-4.413103547796838
 20
92.90737142502412
 30
0.0
 10
-4.363214560831892
 20
92.67172231248922
 30
0.0
 10
-4.331932372838266
 20
92.4079679162701
 30
0.0
 10
-4.310624722361065
 20
92.11553122881976
 30
0.0
 10
-4.307786153624371
 20
91.91127856767572
 30
0.0
 10
-4.306296296296362
 20
91.8040740740741
 30
0.0
  0
LINE
  5
10E
330
1F
100
AcDbEntity
  8
0
  6
Continuous
 62
     7
370
    25
100
AcDbLine
 10
-4.3062962963
 20
91.8040740741
 30
0.0
 11
-4.3062962963
 21
90.9381481481
 31
0.0
  0
LINE
  5
10F
330
1F
100
AcDbEntity
  8
0
  6
Continuous
 62
     7
370
    25
100
AcDbLine
 10
-4.3062962963
 20
90.9381481481
 30
0.0
 11
-6.4918518519
 21
89.8440740741
 31
0.0
  0
LINE
  5
110
330
1F
100
AcDbEntity
  8
0
  6
Continuous
 62
     7
370
    25
100
AcDbLine
 10
-6.4918518519
 20
89.8440740741
 30
0.0
 11
-6.4918518519
 21
91.8118518519
 31
0.0
  0
LINE
  5
111
330
1F
100
AcDbEntity
  8
0
  6
Continuous
 62
     7
370
    25
100
AcDbLine
 10
-6.4918518519
 20
91.8118518519
 30
0.0
 11
-8.68
 21
91.8118518519
 31
0.0
  0
LINE
  5
112
330
1F
100
AcDbEntity
  8
0
  6
Continuous
 62
     7
370
    25
100
AcDbLine
 10
-8.68
 20
91.8118518519
 30
0.0
 11
-8.68
 21
82.1777777778
 31
0.0
  0
LINE
  5
113
330
1F
100
AcDbEntity
  8
0
  6
Continuous
 62
     7
370
    25
100
AcDbLine
 10
4.6251851852
 20
82.1881481481
 30
0.0
 11
4.6251851852
 21
86.3518518519
 31
0.0
  0
LINE
  5
114
330
1F
100
AcDbEntity
  8
0
  6
Continuous
 62
     7
370
    25
100
AcDbLine
 10
4.6251851852
 20
86.3518518519
 30
0.0
 11
3.3107407407
 21
85.6959259259
 31
0.0
  0
LINE
  5
115
330
1F
100
AcDbEntity
  8
0
  6
Continuous
 62
     7
370
    25
100
AcDbLine
 10
3.3107407407
 20
85.6959259259
 30
0.0
 11
3.3107407407
 21
88.3222222222
 31
0.0
  0
LINE
  5
116
330
1F
100
AcDbEntity
  8
0
  6
Continuous
 62
     7
370
    25
100
AcDbLine
 10
3.3107407407
 20
88.3222222222
 30
0.0
 11
4.6251851852
 21
88.9677777778
 31
0.0
  0
LINE
  5
117
330
1F
100
AcDbEntity
  8
0
  6
Continuous
 62
     7
370
    25
100
AcDbLine
 10
4.6251851852
 20
88.9677777778
 30
0.0
 11
4.6251851852
 21
91.8118518519
 31
0.0
  0
LINE
  5
118
330
1F
100
AcDbEntity
  8
0
  6
Continuous
 62
     7
370
    25
100
AcDbLine
 10
4.6251851852
 20
91.8118518519
 30
0.0
 11
2.437037037
 21
91.8118518519
 31
0.0
  0
LINE
  5
119
330
1F
100
AcDbEntity
  8
0
  6
Continuous
 62
     7
370
    25
100
AcDbLine
 10
2.437037037
 20
91.8118518519
 30
0.0
 11
2.437037037
 21
90.2822222222
 31
0.0
  0
LINE
  5
11A
330
1F
100
AcDbEntity
  8
0
  6
Continuous
 62
     7
370
    25
100
AcDbLine
 10
2.437037037
 20
90.2822222222
 30
0.0
 11
0.2488888889
 21
89.1881481481
 31
0.0
  0
LINE
  5
11B
330
1F
100
AcDbEntity
  8
0
  6
Continuous
 62
     7
370
    25
100
AcDbLine
 10
0.2488888889
 20
89.1881481481
 30
0.0
 11
0.2488888889
 21
91.8118518519
 31
0.0
  0
SPLINE
  5
11C
330
1F
100
AcDbEntity
  8
0
  6
Continuous
 62
     7
370
    25
100
AcDbSpline
210
0.0
220
0.0
230
1.0
 70
     8
 71
     3
 72
    23
 73
    19
 74
     0
 42
0.00000001
 43
0.00000001
 40
0.0
 40
0.0
 40
0.0
 40
0.0
 40
0.0850892921864124
 40
0.1633248357182185
 40
0.2349137006961861
 40
0.2987476080046848
 40
0.3567909948453766
 40
0.4094081848277742
 40
0.4566716235360124
 40
0.5000588196616452
 40
0.5439837420851843
 40
0.5912471807934219
 40
0.6432169971046533
 40
0.7012603839453457
 40
0.7657834918094383
 40
0.836675164281781
 40
0.9149107078135879
 40
0.9999999999999999
 40
0.9999999999999999
 40
0.9999999999999999
 40
0.9999999999999999
 10
0.2488888888888316
 20
91.81185185185188
 30
0.0
 10
0.2504454688367967
 20
91.9164568497524
 30
0.0
 10
0.2534332497637635
 20
92.11724115125973
 30
0.0
 10
0.2742007721849936
 20
92.40544387630929
 30
0.0
 10
0.306786536751224
 20
92.66618367281255
 30
0.0
 10
0.3523543589548689
 20
92.89991834271144
 30
0.0
 10
0.4146412303309415
 20
93.10557499314856
 30
0.0
 10
0.4887631282363589
 20
93.28532428862164
 30
0.0
 10
0.5762116250522306
 20
93.43914882230827
 30
0.0
 10
0.6843262712919633
 20
93.5655603470846
 30
0.0
 10
0.8120577546794298
 20
93.67197659713368
 30
0.0
 10
0.9654760019759093
 20
93.75959661793715
 30
0.0
 10
1.143942385139468
 20
93.83481135907843
 30
0.0
 10
1.34979715410323
 20
93.89682504753222
 30
0.0
 10
1.58365751640572
 20
93.94155030724625
 30
0.0
 10
1.844271469873327
 20
93.97495910574953
 30
0.0
 10
2.131656024086017
 20
93.99539559045843
 30
0.0
 10
2.33243487749659
 20
93.99842285158203
 30
0.0
 10
2.43703703703698
 20
94.00000000000001
 30
0.0
  0
LINE
  5
11D
330
1F
100
AcDbEntity
  8
0
  6
Continuous
 62
     7
370
    25
100
AcDbLine
 10
2.437037037
 20
94.0
 30
0.0
 11
4.6251851852
 21
94.0
 31
0.0
  0
SPLINE
  5
11E
330
1F
100
AcDbEntity
  8
0
  6
Continuous
 62
     7
370
    25
100
AcDbSpline
210
0.0
220
0.0
230
1.0
 70
     8
 71
     3
 72
    23
 73
    19
 74
     0
 42
0.00000001
 43
0.00000001
 40
0.0
 40
0.0
 40
0.0
 40
0.0
 40
0.0851371933224696
 40
0.1634167796629422
 40
0.2343483607014652
 40
0.2989077919393838
 40
0.3563111938877032
 40
0.4089580047908037
 40
0.4562480505179735
 40
0.4996596715263528
 40
0.5430712925347337
 40
0.5903613382619041
 40
0.6430081491650022
 40
0.7010842116115061
 40
0.7649540543074138
 40
0.8365832203370579
 40
0.9148628066775298
 40
1.0
 40
1.0
 40
1.0
 40
1.0
 10
4.625185185185128
 20
94.00000000000001
 30
0.0
 10
4.729786022279016
 20
93.99841868183616
 30
0.0
 10
4.930562337316642
 20
93.99538341708435
 30
0.0
 10
5.2179642127187
 20
93.97500154702928
 30
0.0
 10
5.47852107304195
 20
93.94141273073109
 30
0.0
 10
5.711752729540333
 20
93.89742298415985
 30
0.0
 10
5.917020845143957
 20
93.83369108655596
 30
0.0
 10
6.09604350929107
 20
93.76015095305812
 30
0.0
 10
6.250007618281578
 20
93.67276795122167
 30
0.0
 10
6.375381935674718
 20
93.56464365655823
 30
0.0
 10
6.483521790833653
 20
93.43926969006907
 30
0.0
 10
6.570834158025807
 20
93.28528662206993
 30
0.0
 10
6.644998463108303
 20
93.10558671329522
 30
0.0
 10
6.707272162890031
 20
92.8999147234368
 30
0.0
 10
6.752844073015112
 20
92.66618481426373
 30
0.0
 10
6.785428555935219
 20
92.40544352517658
 30
0.0
 10
6.806196466017247
 20
92.11724125159037
 30
0.0
 10
6.80918419030219
 20
91.91645688411862
 30
0.0
 10
6.810740740740683
 20
91.81185185185187
 30
0.0
  0
LINE
  5
11F
330
1F
100
AcDbEntity
  8
0
  6
Continuous
 62
     7
370
    25
100
AcDbLine
 10
6.8107407407
 20
91.8118518519
 30
0.0
 11
6.8107407407
 21
88.75
 31
0.0
  0
SPLINE
  5
120
330
1F
100
AcDbEntity
  8
0
  6
Continuous
 62
     7
370
    25
100
AcDbSpline
210
0.0
220
0.0
230
1.0
 70
     8
 71
     3
 72
    15
 73
    11
 74
     0
 42
0.00000001
 43
0.00000001
 40
0.0
 40
0.0
 40
0.0
 40
0.0
 40
0.1513207604476686
 40
0.2916169716489352
 40
0.423316951055117
 40
0.5480146868328964
 40
0.6654239329377409
 40
0.7793469234925304
 40
0.8898128888993965
 40
0.9999999999999999
 40
0.9999999999999999
 40
0.9999999999999999
 40
0.9999999999999999
 10
6.810740740740683
 20
88.75000000000001
 30
0.0
 10
6.808743989393053
 20
88.66176138482923
 30
0.0
 10
6.804895961010108
 20
88.49171282267247
 30
0.0
 10
6.775696222424954
 20
88.2463301378656
 30
0.0
 10
6.730509150571042
 20
88.01914640860815
 30
0.0
 10
6.662917722918482
 20
87.81147985167522
 30
0.0
 10
6.577353551965528
 20
87.62177216594533
 30
0.0
 10
6.470582706542065
 20
87.45288437411224
 30
0.0
 10
6.345377101314563
 20
87.30218573260402
 30
0.0
 10
6.247677136332955
 20
87.21822407237792
 30
0.0
 10
6.198888888888831
 20
87.1762962962963
 30
0.0
  0
SPLINE
  5
121
330
1F
100
AcDbEntity
  8
0
  6
Continuous
 62
     7
370
    25
100
AcDbSpline
210
0.0
220
0.0
230
1.0
 70
     8
 71
     3
 72
    15
 73
    11
 74
     0
 42
0.00000001
 43
0.00000001
 40
0.0
 40
0.0
 40
0.0
 40
0.0
 40
0.1171661253038048
 40
0.227452216589643
 40
0.3365793401457262
 40
0.4513161889919908
 40
0.5690153446292128
 40
0.6991683893141257
 40
0.8435435537809102
 40
1.0
 40
1.0
 40
1.0
 40
1.0
 10
6.198888888888831
 20
87.1762962962963
 30
0.0
 10
6.247280717810975
 20
87.15916082712133
 30
0.0
 10
6.341222791295337
 20
87.12589608924551
 30
0.0
 10
6.46583253347755
 20
87.04527152336013
 30
0.0
 10
6.571891663642371
 20
86.94405649907651
 30
0.0
 10
6.660565478817785
 20
86.8226643967175
 30
0.0
 10
6.72517692036558
 20
86.67711556248307
 30
0.0
 10
6.774313993536117
 20
86.51262642161997
 30
0.0
 10
6.805445736669259
 20
86.3262050902838
 30
0.0
 10
6.808929109084835
 20
86.19469305191444
 30
0.0
 10
6.810740740740683
 20
86.12629629629632
 30
0.0
  0
LINE
  5
122
330
1F
100
AcDbEntity
  8
0
  6
Continuous
 62
     7
370
    25
100
AcDbLine
 10
6.8107407407
 20
86.1262962963
 30
0.0
 11
6.8107407407
 21
82.1881481481
 31
0.0
  0
SPLINE
  5
123
330
1F
100
AcDbEntity
  8
0
  6
Continuous
 62
     7
370
    25
100
AcDbSpline
210
0.0
220
0.0
230
1.0
 70
     8
 71
     3
 72
    23
 73
    19
 74
     0
 42
0.00000001
 43
0.00000001
 40
0.0
 40
0.0
 40
0.0
 40
0.0
 40
0.0851472156221891
 40
0.1634360169889681
 40
0.2343759480509896
 40
0.2989429791867205
 40
0.3570258783127288
 40
0.4090310724046431
 40
0.4563266850878465
 40
0.5002815088345435
 40
0.5436982402331065
 40
0.5909938529163093
 40
0.6436468613706507
 40
0.7010570208132776
 40
0.7656240519490117
 40
0.8365639830110317
 40
0.9148527843778115
 40
1.0
 40
1.0
 40
1.0
 40
1.0
 10
6.810740740740683
 20
82.18814814814816
 30
0.0
 10
6.809163592240415
 20
82.08354598889561
 30
0.0
 10
6.806136330958872
 20
81.88276713603756
 30
0.0
 10
6.78569984732775
 20
81.59538257805458
 30
0.0
 10
6.752291045272067
 20
81.33476863701459
 30
0.0
 10
6.707565797044964
 20
81.1009082345254
 30
0.0
 10
6.645552071903283
 20
80.89505359391386
 30
0.0
 10
6.570337447627294
 20
80.71658680189789
 30
0.0
 10
6.482717046945776
 20
80.5631698836024
 30
0.0
 10
6.376302086698007
 20
80.43543388785352
 30
0.0
 10
6.249885737182112
 20
80.32733612093278
 30
0.0
 10
6.096081503628804
 20
80.2398166042367
 30
0.0
 10
5.917009182713215
 20
80.16631887179119
 30
0.0
 10
5.711756407005539
 20
80.10257387571647
 30
0.0
 10
5.478519929724222
 20
80.05858824552813
 30
0.0
 10
5.217964565423285
 20
80.0249981518024
 30
0.0
 10
4.93056223615087
 20
80.00461666929937
 30
0.0
 10
4.729785987626705
 20
80.00158134775288
 30
0.0
 10
4.625185185185128
 20
80.00000000000001
 30
0.0
  0
LINE
  5
124
330
1F
100
AcDbEntity
  8
0
  6
Continuous
 62
     7
370
    25
100
AcDbLine
 10
4.6251851852
 20
80.0
 30
0.0
 11
2.437037037
 21
80.0
 31
0.0
  0
SPLINE
  5
125
330
1F
100
AcDbEntity
  8
0
  6
Continuous
 62
     7
370
    25
100
AcDbSpline
210
0.0
220
0.0
230
1.0
 70
     8
 71
     3
 72
    19
 73
    15
 74
     0
 42
0.00000001
 43
0.00000001
 40
0.0
 40
0.0
 40
0.0
 40
0.0
 40
0.0881598403243847
 40
0.1694605604514167
 40
0.2437222662233992
 40
0.312145565179257
 40
0.3753645486933453
 40
0.4339515209518664
 40
0.4906760680473834
 40
0.5460620592833557
 40
0.6562581003356244
 40
0.7666296416135561
 40
0.880307534654718
 40
1.0
 40
1.0
 40
1.0
 40
1.0
 10
2.43703703703698
 20
80.00000000000001
 30
0.0
 10
2.33239810748154
 20
80.00186596445515
 30
0.0
 10
2.131261494912195
 20
80.0054527153066
 30
0.0
 10
1.843114301690739
 20
80.03597225095467
 30
0.0
 10
1.582325012090752
 20
80.08841581926053
 30
0.0
 10
1.346685321845952
 20
80.15554072323603
 30
0.0
 10
1.14093102418705
 20
80.25016254884007
 30
0.0
 10
0.9599484418013648
 20
80.36181849223154
 30
0.0
 10
0.8086484178378736
 20
80.49819361735315
 30
0.0
 10
0.6427376414523809
 20
80.704459027519
 30
0.0
 10
0.4873413232722711
 20
80.99508685420955
 30
0.0
 10
0.3461411078387944
 20
81.36681425942628
 30
0.0
 10
0.2656670841367468
 20
81.76907556375522
 30
0.0
 10
0.2545768951536695
 20
82.04607759465732
 30
0.0
 10
0.2488888888888315
 20
82.18814814814816
 30
0.0
  0
LINE
  5
126
330
1F
100
AcDbEntity
  8
0
  6
Continuous
 62
     7
370
    25
100
AcDbLine
 10
0.2488888889
 20
82.1881481481
 30
0.0
 11
0.2488888889
 21
83.5
 31
0.0
  0
LINE
  5
127
330
1F
100
AcDbEntity
  8
0
  6
Continuous
 62
     7
370
    25
100
AcDbLine
 10
0.2488888889
 20
83.5
 30
0.0
 11
2.437037037
 21
84.5940740741
 31
0.0
  0
LINE
  5
128
330
1F
100
AcDbEntity
  8
0
  6
Continuous
 62
     7
370
    25
100
AcDbLine
 10
2.437037037
 20
84.5940740741
 30
0.0
 11
2.437037037
 21
82.1881481481
 31
0.0
  0
LINE
  5
129
330
1F
100
AcDbEntity
  8
0
  6
Continuous
 62
     7
370
    25
100
AcDbLine
 10
2.437037037
 20
82.1881481481
 30
0.0
 11
4.6251851852
 21
82.1881481481
 31
0.0
  0
LINE
  5
12A
330
1F
100
AcDbEntity
  8
0
  6
Continuous
 62
     7
370
    25
100
AcDbLine
 10
-38.5777777778
 20
57.5955555556
 30
0.0
 11
-38.5777777778
 21
59.7837037037
 31
0.0
  0
LINE
  5
12B
330
1F
100
AcDbEntity
  8
0
  6
Continuous
 62
     7
370
    25
100
AcDbLine
 10
-38.5777777778
 20
59.7837037037
 30
0.0
 11
-34.4218518519
 21
69.4074074074
 31
0.0
  0
LINE
  5
12C
330
1F
100
AcDbEntity
  8
0
  6
Continuous
 62
     7
370
    25
100
AcDbLine
 10
-34.4218518519
 20
69.4074074074
 30
0.0
 11
-38.5777777778
 21
69.4074074074
 31
0.0
  0
LINE
  5
12D
330
1F
100
AcDbEntity
  8
0
  6
Continuous
 62
     7
370
    25
100
AcDbLine
 10
-38.5777777778
 20
69.4074074074
 30
0.0
 11
-38.5777777778
 21
71.5955555556
 31
0.0
  0
LINE
  5
12E
330
1F
100
AcDbEntity
  8
0
  6
Continuous
 62
     7
370
    25
100
AcDbLine
 10
-38.5777777778
 20
71.5955555556
 30
0.0
 11
-32.0159259259
 21
71.5955555556
 31
0.0
  0
LINE
  5
12F
330
1F
100
AcDbEntity
  8
0
  6
Continuous
 62
     7
370
    25
100
AcDbLine
 10
-32.0159259259
 20
71.5955555556
 30
0.0
 11
-32.0159259259
 21
69.4074074074
 31
0.0
  0
LINE
  5
130
330
1F
100
AcDbEntity
  8
0
  6
Continuous
 62
     7
370
    25
100
AcDbLine
 10
-32.0159259259
 20
69.4074074074
 30
0.0
 11
-36.1614814815
 21
59.7733333333
 31
0.0
  0
LINE
  5
131
330
1F
100
AcDbEntity
  8
0
  6
Continuous
 62
     7
370
    25
100
AcDbLine
 10
-36.1614814815
 20
59.7733333333
 30
0.0
 11
-32.0159259259
 21
59.7837037037
 31
0.0
  0
LINE
  5
132
330
1F
100
AcDbEntity
  8
0
  6
Continuous
 62
     7
370
    25
100
AcDbLine
 10
-32.0159259259
 20
59.7837037037
 30
0.0
 11
-32.0159259259
 21
57.5955555556
 31
0.0
  0
LINE
  5
133
330
1F
100
AcDbEntity
  8
0
  6
Continuous
 62
     7
370
    25
100
AcDbLine
 10
-32.0159259259
 20
57.5955555556
 30
0.0
 11
-38.5777777778
 21
57.5955555556
 31
0.0
  0
LINE
  5
134
330
1F
100
AcDbEntity
  8
0
  6
Continuous
 62
     7
370
    25
100
AcDbLine
 10
15.7422222222
 20
82.1881481481
 30
0.0
 11
15.7422222222
 21
86.3518518519
 31
0.0
  0
LINE
  5
135
330
1F
100
AcDbEntity
  8
0
  6
Continuous
 62
     7
370
    25
100
AcDbLine
 10
15.7422222222
 20
86.3518518519
 30
0.0
 11
14.4277777778
 21
85.6959259259
 31
0.0
  0
LINE
  5
136
330
1F
100
AcDbEntity
  8
0
  6
Continuous
 62
     7
370
    25
100
AcDbLine
 10
14.4277777778
 20
85.6959259259
 30
0.0
 11
14.4277777778
 21
88.3222222222
 31
0.0
  0
LINE
  5
137
330
1F
100
AcDbEntity
  8
0
  6
Continuous
 62
     7
370
    25
100
AcDbLine
 10
14.4277777778
 20
88.3222222222
 30
0.0
 11
15.7422222222
 21
88.9677777778
 31
0.0
  0
LINE
  5
138
330
1F
100
AcDbEntity
  8
0
  6
Continuous
 62
     7
370
    25
100
AcDbLine
 10
15.7422222222
 20
88.9677777778
 30
0.0
 11
15.7422222222
 21
91.8118518519
 31
0.0
  0
LINE
  5
139
330
1F
100
AcDbEntity
  8
0
  6
Continuous
 62
     7
370
    25
100
AcDbLine
 10
15.7422222222
 20
91.8118518519
 30
0.0
 11
13.5540740741
 21
91.8118518519
 31
0.0
  0
LINE
  5
13A
330
1F
100
AcDbEntity
  8
0
  6
Continuous
 62
     7
370
    25
100
AcDbLine
 10
13.5540740741
 20
91.8118518519
 30
0.0
 11
13.5540740741
 21
90.2822222222
 31
0.0
  0
LINE
  5
13B
330
1F
100
AcDbEntity
  8
0
  6
Continuous
 62
     7
370
    25
100
AcDbLine
 10
13.5540740741
 20
90.2822222222
 30
0.0
 11
11.3659259259
 21
89.1881481481
 31
0.0
  0
LINE
  5
13C
330
1F
100
AcDbEntity
  8
0
  6
Continuous
 62
     7
370
    25
100
AcDbLine
 10
11.3659259259
 20
89.1881481481
 30
0.0
 11
11.3659259259
 21
91.8118518519
 31
0.0
  0
SPLINE
  5
13D
330
1F
100
AcDbEntity
  8
0
  6
Continuous
 62
     7
370
    25
100
AcDbSpline
210
0.0
220
0.0
230
1.0
 70
     8
 71
     3
 72
    23
 73
    19
 74
     0
 42
0.00000001
 43
0.00000001
 40
0.0
 40
0.0
 40
0.0
 40
0.0
 40
0.0850892921864124
 40
0.1633248357182185
 40
0.2349137006961861
 40
0.2987476080046847
 40
0.3567909948453766
 40
0.4094081848277741
 40
0.4566716235360123
 40
0.500058819661645
 40
0.543983742085184
 40
0.5912471807934215
 40
0.6432169971046533
 40
0.7012603839453454
 40
0.7657834918094382
 40
0.8366751642817808
 40
0.9149107078135876
 40
1.0
 40
1.0
 40
1.0
 40
1.0
 10
11.36592592592589
 20
91.81185185185187
 30
0.0
 10
11.36748250587386
 20
91.91645684975235
 30
0.0
 10
11.37047028680083
 20
92.11724115125972
 30
0.0
 10
11.39123780922206
 20
92.40544387630935
 30
0.0
 10
11.42382357378829
 20
92.66618367281255
 30
0.0
 10
11.46939139599193
 20
92.89991834271146
 30
0.0
 10
11.53167826736801
 20
93.10557499314855
 30
0.0
 10
11.60580016527342
 20
93.28532428862164
 30
0.0
 10
11.69324866208929
 20
93.43914882230825
 30
0.0
 10
11.80136330832903
 20
93.56556034708454
 30
0.0
 10
11.92909479171649
 20
93.67197659713372
 30
0.0
 10
12.08251303901297
 20
93.75959661793715
 30
0.0
 10
12.26097942217653
 20
93.83481135907843
 30
0.0
 10
12.4668341911403
 20
93.89682504753225
 30
0.0
 10
12.70069455344278
 20
93.94155030724619
 30
0.0
 10
12.9613085069104
 20
93.97495910574962
 30
0.0
 10
13.24869306112307
 20
93.99539559045837
 30
0.0
 10
13.44947191453365
 20
93.99842285158203
 30
0.0
 10
13.55407407407404
 20
94.00000000000001
 30
0.0
  0
LINE
  5
13E
330
1F
100
AcDbEntity
  8
0
  6
Continuous
 62
     7
370
    25
100
AcDbLine
 10
13.5540740741
 20
94.0
 30
0.0
 11
15.7422222222
 21
94.0
 31
0.0
  0
SPLINE
  5
13F
330
1F
100
AcDbEntity
  8
0
  6
Continuous
 62
     7
370
    25
100
AcDbSpline
210
0.0
220
0.0
230
1.0
 70
     8
 71
     3
 72
    23
 73
    19
 74
     0
 42
0.00000001
 43
0.00000001
 40
0.0
 40
0.0
 40
0.0
 40
0.0
 40
0.0851371933224701
 40
0.1634167796629422
 40
0.2343483607014648
 40
0.2989077919393838
 40
0.356311193887703
 40
0.4089580047908036
 40
0.4562480505179732
 40
0.4996596715263527
 40
0.5430712925347335
 40
0.590361338261904
 40
0.643008149165002
 40
0.7010842116115059
 40
0.7649540543074136
 40
0.8365832203370579
 40
0.9148628066775297
 40
0.9999999999999999
 40
0.9999999999999999
 40
0.9999999999999999
 40
0.9999999999999999
 10
15.74222222222219
 20
94.00000000000001
 30
0.0
 10
15.84682305931608
 20
93.99841868183617
 30
0.0
 10
16.04759937435371
 20
93.99538341708435
 30
0.0
 10
16.33500124975578
 20
93.97500154702936
 30
0.0
 10
16.59555811007901
 20
93.94141273073105
 30
0.0
 10
16.8287897665774
 20
93.89742298415989
 30
0.0
 10
17.03405788218102
 20
93.83369108655593
 30
0.0
 10
17.21308054632814
 20
93.76015095305812
 30
0.0
 10
17.36704465531864
 20
93.67276795122167
 30
0.0
 10
17.49241897271178
 20
93.56464365655823
 30
0.0
 10
17.60055882787071
 20
93.43926969006905
 30
0.0
 10
17.68787119506288
 20
93.28528662206996
 30
0.0
 10
17.76203550014537
 20
93.10558671329525
 30
0.0
 10
17.82430919992709
 20
92.89991472343681
 30
0.0
 10
17.86988111005217
 20
92.6661848142637
 30
0.0
 10
17.90246559297228
 20
92.40544352517652
 30
0.0
 10
17.92323350305431
 20
92.11724125159036
 30
0.0
 10
17.92622122733926
 20
91.91645688411865
 30
0.0
 10
17.92777777777775
 20
91.81185185185187
 30
0.0
  0
LINE
  5
140
330
1F
100
AcDbEntity
  8
0
  6
Continuous
 62
     7
370
    25
100
AcDbLine
 10
17.9277777778
 20
91.8118518519
 30
0.0
 11
17.9277777778
 21
88.75
 31
0.0
  0
SPLINE
  5
141
330
1F
100
AcDbEntity
  8
0
  6
Continuous
 62
     7
370
    25
100
AcDbSpline
210
0.0
220
0.0
230
1.0
 70
     8
 71
     3
 72
    15
 73
    11
 74
     0
 42
0.00000001
 43
0.00000001
 40
0.0
 40
0.0
 40
0.0
 40
0.0
 40
0.1513207604476686
 40
0.2916169716489352
 40
0.423316951055117
 40
0.548014686832896
 40
0.6654239329377408
 40
0.77934692349253
 40
0.889812888899396
 40
0.9999999999999999
 40
0.9999999999999999
 40
0.9999999999999999
 40
0.9999999999999999
 10
17.92777777777775
 20
88.75000000000001
 30
0.0
 10
17.92578102643011
 20
88.66176138482923
 30
0.0
 10
17.92193299804717
 20
88.49171282267245
 30
0.0
 10
17.89273325946202
 20
88.24633013786557
 30
0.0
 10
17.84754618760811
 20
88.01914640860817
 30
0.0
 10
17.77995475995554
 20
87.81147985167522
 30
0.0
 10
17.69439058900259
 20
87.62177216594532
 30
0.0
 10
17.58761974357913
 20
87.45288437411222
 30
0.0
 10
17.46241413835163
 20
87.30218573260403
 30
0.0
 10
17.36471417337002
 20
87.21822407237792
 30
0.0
 10
17.3159259259259
 20
87.1762962962963
 30
0.0
  0
SPLINE
  5
142
330
1F
100
AcDbEntity
  8
0
  6
Continuous
 62
     7
370
    25
100
AcDbSpline
210
0.0
220
0.0
230
1.0
 70
     8
 71
     3
 72
    15
 73
    11
 74
     0
 42
0.00000001
 43
0.00000001
 40
0.0
 40
0.0
 40
0.0
 40
0.0
 40
0.1171661253038054
 40
0.2274522165896436
 40
0.3365793401457263
 40
0.4513161889919917
 40
0.5690153446292131
 40
0.699168389314126
 40
0.8435435537809102
 40
1.0
 40
1.0
 40
1.0
 40
1.0
 10
17.3159259259259
 20
87.1762962962963
 30
0.0
 10
17.36431775484803
 20
87.15916082712133
 30
0.0
 10
17.4582598283324
 20
87.12589608924551
 30
0.0
 10
17.58286957051462
 20
87.04527152336013
 30
0.0
 10
17.68892870067943
 20
86.9440564990765
 30
0.0
 10
17.77760251585485
 20
86.82266439671749
 30
0.0
 10
17.84221395740265
 20
86.67711556248305
 30
0.0
 10
17.89135103057318
 20
86.51262642161998
 30
0.0
 10
17.92248277370632
 20
86.3262050902838
 30
0.0
 10
17.9259661461219
 20
86.19469305191444
 30
0.0
 10
17.92777777777775
 20
86.12629629629632
 30
0.0
  0
LINE
  5
143
330
1F
100
AcDbEntity
  8
0
  6
Continuous
 62
     7
370
    25
100
AcDbLine
 10
17.9277777778
 20
86.1262962963
 30
0.0
 11
17.9277777778
 21
82.1881481481
 31
0.0
  0
SPLINE
  5
144
330
1F
100
AcDbEntity
  8
0
  6
Continuous
 62
     7
370
    25
100
AcDbSpline
210
0.0
220
0.0
230
1.0
 70
     8
 71
     3
 72
    23
 73
    19
 74
     0
 42
0.00000001
 43
0.00000001
 40
0.0
 40
0.0
 40
0.0
 40
0.0
 40
0.0851472156221891
 40
0.1634360169889682
 40
0.2343759480509897
 40
0.2989429791867206
 40
0.3570258783127288
 40
0.4090310724046431
 40
0.4563266850878468
 40
0.5002815088345436
 40
0.5436982402331069
 40
0.5909938529163095
 40
0.6436468613706509
 40
0.7010570208132775
 40
0.7656240519490121
 40
0.8365639830110316
 40
0.9148527843778109
 40
1.0
 40
1.0
 40
1.0
 40
1.0
 10
17.92777777777775
 20
82.18814814814816
 30
0.0
 10
17.92620062927748
 20
82.08354598889562
 30
0.0
 10
17.92317336799594
 20
81.88276713603759
 30
0.0
 10
17.90273688436482
 20
81.59538257805455
 30
0.0
 10
17.86932808230913
 20
81.33476863701463
 30
0.0
 10
17.82460283408203
 20
81.1009082345254
 30
0.0
 10
17.76258910894035
 20
80.89505359391391
 30
0.0
 10
17.68737448466436
 20
80.71658680189788
 30
0.0
 10
17.59975408398284
 20
80.56316988360241
 30
0.0
 10
17.49333912373508
 20
80.43543388785353
 30
0.0
 10
17.36692277421918
 20
80.32733612093277
 30
0.0
 10
17.21311854066587
 20
80.2398166042367
 30
0.0
 10
17.03404621975028
 20
80.16631887179118
 30
0.0
 10
16.8287934440426
 20
80.1025738757165
 30
0.0
 10
16.59555696676128
 20
80.05858824552811
 30
0.0
 10
16.33500160246035
 20
80.02499815180238
 30
0.0
 10
16.04759927318794
 20
80.00461666929937
 30
0.0
 10
15.84682302466377
 20
80.00158134775289
 30
0.0
 10
15.74222222222219
 20
80.00000000000001
 30
0.0
  0
LINE
  5
145
330
1F
100
AcDbEntity
  8
0
  6
Continuous
 62
     7
370
    25
100
AcDbLine
 10
15.7422222222
 20
80.0
 30
0.0
 11
13.5540740741
 21
80.0
 31
0.0
  0
SPLINE
  5
146
330
1F
100
AcDbEntity
  8
0
  6
Continuous
 62
     7
370
    25
100
AcDbSpline
210
0.0
220
0.0
230
1.0
 70
     8
 71
     3
 72
    19
 73
    15
 74
     0
 42
0.00000001
 43
0.00000001
 40
0.0
 40
0.0
 40
0.0
 40
0.0
 40
0.0881598403243849
 40
0.1694605604514169
 40
0.2437222662233994
 40
0.3121455651792572
 40
0.3753645486933452
 40
0.4339515209518666
 40
0.4906760680473835
 40
0.5460620592833558
 40
0.6562581003356244
 40
0.766629641613556
 40
0.880307534654718
 40
0.9999999999999999
 40
0.9999999999999999
 40
0.9999999999999999
 40
0.9999999999999999
 10
13.55407407407404
 20
80.00000000000001
 30
0.0
 10
13.4494351445186
 20
80.00186596445515
 30
0.0
 10
13.24829853194926
 20
80.0054527153066
 30
0.0
 10
12.9601513387278
 20
80.03597225095464
 30
0.0
 10
12.69936204912782
 20
80.08841581926055
 30
0.0
 10
12.46372235888301
 20
80.15554072323604
 30
0.0
 10
12.25796806122412
 20
80.25016254884005
 30
0.0
 10
12.07698547883843
 20
80.36181849223155
 30
0.0
 10
11.92568545487494
 20
80.49819361735317
 30
0.0
 10
11.75977467848944
 20
80.70445902751898
 30
0.0
 10
11.60437836030934
 20
80.99508685420957
 30
0.0
 10
11.46317814487586
 20
81.36681425942626
 30
0.0
 10
11.38270412117381
 20
81.76907556375522
 30
0.0
 10
11.37161393219073
 20
82.04607759465729
 30
0.0
 10
11.36592592592589
 20
82.18814814814816
 30
0.0
  0
LINE
  5
147
330
1F
100
AcDbEntity
  8
0
  6
Continuous
 62
     7
370
    25
100
AcDbLine
 10
11.3659259259
 20
82.1881481481
 30
0.0
 11
11.3659259259
 21
83.5
 31
0.0
  0
LINE
  5
148
330
1F
100
AcDbEntity
  8
0
  6
Continuous
 62
     7
370
    25
100
AcDbLine
 10
11.3659259259
 20
83.5
 30
0.0
 11
13.5540740741
 21
84.5940740741
 31
0.0
  0
LINE
  5
149
330
1F
100
AcDbEntity
  8
0
  6
Continuous
 62
     7
370
    25
100
AcDbLine
 10
13.5540740741
 20
84.5940740741
 30
0.0
 11
13.5540740741
 21
82.1881481481
 31
0.0
  0
LINE
  5
14A
330
1F
100
AcDbEntity
  8
0
  6
Continuous
 62
     7
370
    25
100
AcDbLine
 10
13.5540740741
 20
82.1881481481
 30
0.0
 11
15.7422222222
 21
82.1881481481
 31
0.0
  0
CIRCLE
  5
14B
330
1F
100
AcDbEntity
  8
0
  6
Continuous
 62
     7
370
    25
100
AcDbCircle
 10
-30.0
 20
190.0
 30
0.0
 40
1.599999999999994
  0
CIRCLE
  5
14C
330
1F
100
AcDbEntity
  8
0
  6
Continuous
 62
     7
370
    25
100
AcDbCircle
 10
-30.0
 20
170.0
 30
0.0
 40
1.599999999999994
  0
CIRCLE
  5
14D
330
1F
100
AcDbEntity
  8
0
  6
Continuous
 62
     7
370
    25
100
AcDbCircle
 10
-30.0
 20
150.0
 30
0.0
 40
1.599999999999994
  0
CIRCLE
  5
14E
330
1F
100
AcDbEntity
  8
0
  6
Continuous
 62
     7
370
    25
100
AcDbCircle
 10
-30.0
 20
130.0
 30
0.0
 40
1.599999999999994
  0
CIRCLE
  5
14F
330
1F
100
AcDbEntity
  8
0
  6
Continuous
 62
     7
370
    25
100
AcDbCircle
 10
70.0
 20
190.0
 30
0.0
 40
1.599999999999994
  0
CIRCLE
  5
150
330
1F
100
AcDbEntity
  8
0
  6
Continuous
 62
     7
370
    25
100
AcDbCircle
 10
50.0
 20
190.0
 30
0.0
 40
1.599999999999994
  0
CIRCLE
  5
151
330
1F
100
AcDbEntity
  8
0
  6
Continuous
 62
     7
370
    25
100
AcDbCircle
 10
30.0
 20
190.0
 30
0.0
 40
1.599999999999994
  0
CIRCLE
  5
152
330
1F
100
AcDbEntity
  8
0
  6
Continuous
 62
     7
370
    25
100
AcDbCircle
 10
10.0
 20
190.0
 30
0.0
 40
1.599999999999994
  0
CIRCLE
  5
153
330
1F
100
AcDbEntity
  8
0
  6
Continuous
 62
     7
370
    25
100
AcDbCircle
 10
-10.0
 20
190.0
 30
0.0
 40
1.599999999999994
  0
CIRCLE
  5
154
330
1F
100
AcDbEntity
  8
0
  6
Continuous
 62
     7
370
    25
100
AcDbCircle
 10
70.0
 20
170.0
 30
0.0
 40
1.599999999999994
  0
CIRCLE
  5
155
330
1F
100
AcDbEntity
  8
0
  6
Continuous
 62
     7
370
    25
100
AcDbCircle
 10
50.0
 20
170.0
 30
0.0
 40
1.599999999999994
  0
CIRCLE
  5
156
330
1F
100
AcDbEntity
  8
0
  6
Continuous
 62
     7
370
    25
100
AcDbCircle
 10
30.0
 20
170.0
 30
0.0
 40
1.599999999999994
  0
CIRCLE
  5
157
330
1F
100
AcDbEntity
  8
0
  6
Continuous
 62
     7
370
    25
100
AcDbCircle
 10
10.0
 20
170.0
 30
0.0
 40
1.599999999999994
  0
CIRCLE
  5
158
330
1F
100
AcDbEntity
  8
0
  6
Continuous
 62
     7
370
    25
100
AcDbCircle
 10
-10.0
 20
170.0
 30
0.0
 40
1.599999999999994
  0
CIRCLE
  5
159
330
1F
100
AcDbEntity
  8
0
  6
Continuous
 62
     7
370
    25
100
AcDbCircle
 10
70.0
 20
150.0
 30
0.0
 40
1.599999999999994
  0
CIRCLE
  5
15A
330
1F
100
AcDbEntity
  8
0
  6
Continuous
 62
     7
370
    25
100
AcDbCircle
 10
50.0
 20
150.0
 30
0.0
 40
1.599999999999994
  0
CIRCLE
  5
15B
330
1F
100
AcDbEntity
  8
0
  6
Continuous
 62
     7
370
    25
100
AcDbCircle
 10
30.0
 20
150.0
 30
0.0
 40
1.599999999999994
  0
CIRCLE
  5
15C
330
1F
100
AcDbEntity
  8
0
  6
Continuous
 62
     7
370
    25
100
AcDbCircle
 10
10.0
 20
150.0
 30
0.0
 40
1.599999999999994
  0
CIRCLE
  5
15D
330
1F
100
AcDbEntity
  8
0
  6
Continuous
 62
     7
370
    25
100
AcDbCircle
 10
-10.0
 20
150.0
 30
0.0
 40
1.599999999999994
  0
CIRCLE
  5
15E
330
1F
100
AcDbEntity
  8
0
  6
Continuous
 62
     7
370
    25
100
AcDbCircle
 10
70.0
 20
130.0
 30
0.0
 40
1.599999999999994
  0
CIRCLE
  5
15F
330
1F
100
AcDbEntity
  8
0
  6
Continuous
 62
     7
370
    25
100
AcDbCircle
 10
50.0
 20
130.0
 30
0.0
 40
1.599999999999994
  0
CIRCLE
  5
160
330
1F
100
AcDbEntity
  8
0
  6
Continuous
 62
     7
370
    25
100
AcDbCircle
 10
30.0
 20
130.0
 30
0.0
 40
1.599999999999994
  0
CIRCLE
  5
161
330
1F
100
AcDbEntity
  8
0
  6
Continuous
 62
     7
370
    25
100
AcDbCircle
 10
10.0
 20
130.0
 30
0.0
 40
1.599999999999994
  0
CIRCLE
  5
162
330
1F
100
AcDbEntity
  8
0
  6
Continuous
 62
     7
370
    25
100
AcDbCircle
 10
-10.0
 20
130.0
 30
0.0
 40
1.599999999999994
  0
CIRCLE
  5
163
330
1F
100
AcDbEntity
  8
0
  6
Continuous
 62
     7
370
    25
100
AcDbCircle
 10
70.0
 20
110.0
 30
0.0
 40
1.600000000000009
  0
CIRCLE
  5
164
330
1F
100
AcDbEntity
  8
0
  6
Continuous
 62
     7
370
    25
100
AcDbCircle
 10
50.0
 20
110.0
 30
0.0
 40
1.600000000000009
  0
CIRCLE
  5
165
330
1F
100
AcDbEntity
  8
0
  6
Continuous
 62
     7
370
    25
100
AcDbCircle
 10
30.0
 20
110.0
 30
0.0
 40
1.600000000000009
  0
CIRCLE
  5
166
330
1F
100
AcDbEntity
  8
0
  6
Continuous
 62
     7
370
    25
100
AcDbCircle
 10
10.0
 20
110.0
 30
0.0
 40
1.600000000000009
  0
CIRCLE
  5
167
330
1F
100
AcDbEntity
  8
0
  6
Continuous
 62
     7
370
    25
100
AcDbCircle
 10
-10.0
 20
110.0
 30
0.0
 40
1.600000000000009
  0
CIRCLE
  5
168
330
1F
100
AcDbEntity
  8
0
  6
Continuous
 62
     7
370
    25
100
AcDbCircle
 10
-30.0
 20
110.0
 30
0.0
 40
1.600000000000023
  0
CIRCLE
  5
169
330
1F
100
AcDbEntity
  8
0
  6
Continuous
 62
     7
370
    25
100
AcDbCircle
 10
-30.0
 20
258.0
 30
0.0
 40
1.599999999999966
  0
CIRCLE
  5
16A
330
1F
100
AcDbEntity
  8
0
  6
Continuous
 62
     7
370
    25
100
AcDbCircle
 10
-30.0
 20
242.0
 30
0.0
 40
1.599999999999994
  0
CIRCLE
  5
16B
330
1F
100
AcDbEntity
  8
0
  6
Continuous
 62
     7
370
    25
100
AcDbCircle
 10
-30.0
 20
226.0
 30
0.0
 40
1.599999999999994
  0
CIRCLE
  5
16C
330
1F
100
AcDbEntity
  8
0
  6
Continuous
 62
     7
370
    25
100
AcDbCircle
 10
50.0
 20
258.0
 30
0.0
 40
1.599999999999966
  0
CIRCLE
  5
16D
330
1F
100
AcDbEntity
  8
0
  6
Continuous
 62
     7
370
    25
100
AcDbCircle
 10
10.0
 20
258.0
 30
0.0
 40
1.599999999999966
  0
CIRCLE
  5
16E
330
1F
100
AcDbEntity
  8
0
  6
Continuous
 62
     7
370
    25
100
AcDbCircle
 10
50.0
 20
242.0
 30
0.0
 40
1.599999999999994
  0
CIRCLE
  5
16F
330
1F
100
AcDbEntity
  8
0
  6
Continuous
 62
     7
370
    25
100
AcDbCircle
 10
10.0
 20
242.0
 30
0.0
 40
1.599999999999994
  0
CIRCLE
  5
170
330
1F
100
AcDbEntity
  8
0
  6
Continuous
 62
     7
370
    25
100
AcDbCircle
 10
50.0
 20
226.0
 30
0.0
 40
1.599999999999994
  0
CIRCLE
  5
171
330
1F
100
AcDbEntity
  8
0
  6
Continuous
 62
     7
370
    25
100
AcDbCircle
 10
10.0
 20
226.0
 30
0.0
 40
1.599999999999994
  0
CIRCLE
  5
172
330
1F
100
AcDbEntity
  8
0
  6
Continuous
 62
     7
370
    25
100
AcDbCircle
 10
50.0
 20
210.0
 30
0.0
 40
1.599999999999994
  0
CIRCLE
  5
173
330
1F
100
AcDbEntity
  8
0
  6
Continuous
 62
     7
370
    25
100
AcDbCircle
 10
10.0
 20
210.0
 30
0.0
 40
1.599999999999994
  0
CIRCLE
  5
174
330
1F
100
AcDbEntity
  8
0
  6
Continuous
 62
     7
370
    25
100
AcDbCircle
 10
-30.0
 20
210.0
 30
0.0
 40
1.599999999999994
  0
LINE
  5
175
330
1F
100
AcDbEntity
  8
0
  6
Continuous
 62
     7
370
    25
100
AcDbLine
 10
-35.7207407407
 20
80.0
 30
0.0
 11
-41.3985185185
 21
80.0
 31
0.0
  0
LINE
  5
176
330
1F
100
AcDbEntity
  8
0
  6
Continuous
 62
     7
370
    25
100
AcDbLine
 10
-41.3985185185
 20
80.0
 30
0.0
 11
-41.3985185185
 21
94.0
 31
0.0
  0
LINE
  5
177
330
1F
100
AcDbEntity
  8
0
  6
Continuous
 62
     7
370
    25
100
AcDbLine
 10
-41.3985185185
 20
94.0
 30
0.0
 11
-35.7103703704
 21
94.0
 31
0.0
  0
LINE
  5
178
330
1F
100
AcDbEntity
  8
0
  6
Continuous
 62
     7
370
    25
100
AcDbLine
 10
-35.7103703704
 20
94.0
 30
0.0
 11
-35.7103703704
 21
91.8118518519
 31
0.0
  0
LINE
  5
179
330
1F
100
AcDbEntity
  8
0
  6
Continuous
 62
     7
370
    25
100
AcDbLine
 10
-35.7103703704
 20
91.8118518519
 30
0.0
 11
-39.2103703704
 21
91.8118518519
 31
0.0
  0
LINE
  5
17A
330
1F
100
AcDbEntity
  8
0
  6
Continuous
 62
     7
370
    25
100
AcDbLine
 10
-39.2103703704
 20
91.8118518519
 30
0.0
 11
-39.2103703704
 21
87.8840740741
 31
0.0
  0
LINE
  5
17B
330
1F
100
AcDbEntity
  8
0
  6
Continuous
 62
     7
370
    25
100
AcDbLine
 10
-39.2103703704
 20
87.8840740741
 30
0.0
 11
-35.7103703704
 21
89.6262962963
 31
0.0
  0
LINE
  5
17C
330
1F
100
AcDbEntity
  8
0
  6
Continuous
 62
     7
370
    25
100
AcDbLine
 10
-35.7103703704
 20
89.6262962963
 30
0.0
 11
-35.7103703704
 21
87.0077777778
 31
0.0
  0
LINE
  5
17D
330
1F
100
AcDbEntity
  8
0
  6
Continuous
 62
     7
370
    25
100
AcDbLine
 10
-35.7103703704
 20
87.0077777778
 30
0.0
 11
-39.2103703704
 21
85.2577777778
 31
0.0
  0
LINE
  5
17E
330
1F
100
AcDbEntity
  8
0
  6
Continuous
 62
     7
370
    25
100
AcDbLine
 10
-39.2103703704
 20
85.2577777778
 30
0.0
 11
-39.2103703704
 21
82.1881481481
 31
0.0
  0
LINE
  5
17F
330
1F
100
AcDbEntity
  8
0
  6
Continuous
 62
     7
370
    25
100
AcDbLine
 10
-39.2103703704
 20
82.1881481481
 30
0.0
 11
-35.7103703704
 21
82.1881481481
 31
0.0
  0
LINE
  5
180
330
1F
100
AcDbEntity
  8
0
  6
Continuous
 62
     7
370
    25
100
AcDbLine
 10
-35.7103703704
 20
82.1881481481
 30
0.0
 11
-35.7207407407
 21
80.0
 31
0.0
  0
LINE
  5
181
330
1F
100
AcDbEntity
  8
0
  6
Continuous
 62
     7
370
    25
100
AcDbLine
 10
40.682962963
 20
46.9951851852
 30
0.0
 11
40.682962963
 21
35.1911111111
 31
0.0
  0
LINE
  5
182
330
1F
100
AcDbEntity
  8
0
  6
Continuous
 62
     7
370
    25
100
AcDbLine
 10
40.682962963
 20
35.1911111111
 30
0.0
 11
38.4948148148
 21
35.1911111111
 31
0.0
  0
LINE
  5
183
330
1F
100
AcDbEntity
  8
0
  6
Continuous
 62
     7
370
    25
100
AcDbLine
 10
38.4948148148
 20
35.1911111111
 30
0.0
 11
38.4948148148
 21
47.002962963
 31
0.0
  0
LINE
  5
184
330
1F
100
AcDbEntity
  8
0
  6
Continuous
 62
     7
370
    25
100
AcDbLine
 10
38.4948148148
 20
47.002962963
 30
0.0
 11
36.0888888889
 21
46.9951851852
 31
0.0
  0
LINE
  5
185
330
1F
100
AcDbEntity
  8
0
  6
Continuous
 62
     7
370
    25
100
AcDbLine
 10
36.0888888889
 20
46.9951851852
 30
0.0
 11
36.0888888889
 21
49.1911111111
 31
0.0
  0
LINE
  5
186
330
1F
100
AcDbEntity
  8
0
  6
Continuous
 62
     7
370
    25
100
AcDbLine
 10
36.0888888889
 20
49.1911111111
 30
0.0
 11
43.177037037
 21
49.1911111111
 31
0.0
  0
LINE
  5
187
330
1F
100
AcDbEntity
  8
0
  6
Continuous
 62
     7
370
    25
100
AcDbLine
 10
43.177037037
 20
49.1911111111
 30
0.0
 11
43.177037037
 21
46.9951851852
 31
0.0
  0
LINE
  5
188
330
1F
100
AcDbEntity
  8
0
  6
Continuous
 62
     7
370
    25
100
AcDbLine
 10
43.177037037
 20
46.9951851852
 30
0.0
 11
40.682962963
 21
46.9951851852
 31
0.0
  0
LINE
  5
189
330
1F
100
AcDbEntity
  8
0
  6
Continuous
 62
     7
370
    25
100
AcDbLine
 10
23.5096296296
 20
49.1911111111
 30
0.0
 11
25.2596296296
 21
49.1911111111
 31
0.0
  0
SPLINE
  5
18A
330
1F
100
AcDbEntity
  8
0
  6
Continuous
 62
     7
370
    25
100
AcDbSpline
210
0.0
220
0.0
230
1.0
 70
     8
 71
     3
 72
    15
 73
    11
 74
     0
 42
0.00000001
 43
0.00000001
 40
0.0
 40
0.0
 40
0.0
 40
0.0
 40
0.1511075956111848
 40
0.2906694854430264
 40
0.4171627115027909
 40
0.5361461476899934
 40
0.6508502216018471
 40
0.7629336664276763
 40
0.879117456315062
 40
1.0
 40
1.0
 40
1.0
 40
1.0
 10
25.25962962962961
 20
49.19111111111113
 30
0.0
 10
25.32886735296369
 20
49.18922216707954
 30
0.0
 10
25.46205254020303
 20
49.18558860790951
 30
0.0
 10
25.6515733695752
 20
49.15539583760923
 30
0.0
 10
25.82011339374169
 20
49.10217563653551
 30
0.0
 10
25.97126111260512
 20
49.03382538003856
 30
0.0
 10
26.09891426725723
 20
48.93832752445429
 30
0.0
 10
26.20871641058235
 20
48.82492580921146
 30
0.0
 10
26.29467371894495
 20
48.68842754020613
 30
0.0
 10
26.33376874884086
 20
48.58693650178979
 30
0.0
 10
26.35370370370368
 20
48.53518518518519
 30
0.0
  0
SPLINE
  5
18B
330
1F
100
AcDbEntity
  8
0
  6
Continuous
 62
     7
370
    25
100
AcDbSpline
210
0.0
220
0.0
230
1.0
 70
     8
 71
     3
 72
    15
 73
    11
 74
     0
 42
0.00000001
 43
0.00000001
 40
0.0
 40
0.0
 40
0.0
 40
0.0
 40
0.1208677087088936
 40
0.2370372402618068
 40
0.349106929956676
 40
0.4637969271281103
 40
0.5810638598873176
 40
0.7093431905745337
 40
0.8470270162664312
 40
1.0
 40
1.0
 40
1.0
 40
1.0
 10
26.35370370370368
 20
48.5351851851852
 30
0.0
 10
26.37363762046505
 20
48.58693886293656
 30
0.0
 10
26.41273061450952
 20
48.68843453186767
 30
0.0
 10
26.49870256517124
 20
48.82489949717478
 30
0.0
 10
26.6084510007103
 20
48.9384233700024
 30
0.0
 10
26.73568107468283
 20
49.03298414475443
 30
0.0
 10
26.88592643910686
 20
49.10342652653323
 30
0.0
 10
27.05437817199896
 20
49.15444695369953
 30
0.0
 10
27.24439362947961
 20
49.18608034366527
 30
0.0
 10
27.3776465997346
 20
49.18937639554753
 30
0.0
 10
27.44777777777775
 20
49.19111111111112
 30
0.0
  0
LINE
  5
18C
330
1F
100
AcDbEntity
  8
0
  6
Continuous
 62
     7
370
    25
100
AcDbLine
 10
27.4477777778
 20
49.1911111111
 30
0.0
 11
29.1977777778
 21
49.1911111111
 31
0.0
  0
SPLINE
  5
18D
330
1F
100
AcDbEntity
  8
0
  6
Continuous
 62
     7
370
    25
100
AcDbSpline
210
0.0
220
0.0
230
1.0
 70
     8
 71
     3
 72
    23
 73
    19
 74
     0
 42
0.00000001
 43
0.00000001
 40
0.0
 40
0.0
 40
0.0
 40
0.0
 40
0.085371482800401
 40
0.163866487135063
 40
0.2349932651543864
 40
0.2997303578214651
 40
0.3572917284853266
 40
0.4100834184167326
 40
0.4575036018627122
 40
0.501034687533072
 40
0.5445657732034318
 40
0.5919859566494116
 40
0.6441281259559137
 40
0.7023640082158261
 40
0.7664096146586525
 40
0.8368370042524154
 40
0.9146285171995979
 40
0.9999999999999999
 40
0.9999999999999999
 40
0.9999999999999999
 40
0.9999999999999999
 10
29.19777777777775
 20
49.19111111111112
 30
0.0
 10
29.30237861624665
 20
49.18952979353082
 30
0.0
 10
29.50315493392354
 20
49.18649452989912
 30
0.0
 10
29.79055679131595
 20
49.16611265220075
 30
0.0
 10
30.05111371100163
 20
49.13252386109617
 30
0.0
 10
30.28434517621051
 20
49.08853403334081
 30
0.0
 10
30.48961390050377
 20
49.02480239406758
 30
0.0
 10
30.66863459426202
 20
48.95126142432765
 30
0.0
 10
30.82260504713661
 20
48.86388111486477
 30
0.0
 10
30.94795805994095
 20
48.75574777843594
 30
0.0
 10
31.0561783630531
 20
48.63040795442776
 30
0.0
 10
31.14275836442386
 20
48.47697730000588
 30
0.0
 10
31.21822406612601
 20
48.29869920803419
 30
0.0
 10
31.27977684129943
 20
48.093569942024
 30
0.0
 10
31.3249765583099
 20
47.86156696106266
 30
0.0
 10
31.35828040691887
 20
47.60350787757169
 30
0.0
 10
31.37880446476678
 20
47.31785694860843
 30
0.0
 10
31.38177766899574
 20
47.11793705968817
 30
0.0
 10
31.3833333333333
 20
47.01333333333334
 30
0.0
  0
LINE
  5
18E
330
1F
100
AcDbEntity
  8
0
  6
Continuous
 62
     7
370
    25
100
AcDbLine
 10
31.3833333333
 20
47.0133333333
 30
0.0
 11
31.3833333333
 21
35.1911111111
 31
0.0
  0
LINE
  5
18F
330
1F
100
AcDbEntity
  8
0
  6
Continuous
 62
     7
370
    25
100
AcDbLine
 10
31.3833333333
 20
35.1911111111
 30
0.0
 11
29.1977777778
 21
35.1911111111
 31
0.0
  0
LINE
  5
190
330
1F
100
AcDbEntity
  8
0
  6
Continuous
 62
     7
370
    25
100
AcDbLine
 10
29.1977777778
 20
35.1911111111
 30
0.0
 11
29.1977777778
 21
47.0133333333
 31
0.0
  0
LINE
  5
191
330
1F
100
AcDbEntity
  8
0
  6
Continuous
 62
     7
370
    25
100
AcDbLine
 10
29.1977777778
 20
47.0133333333
 30
0.0
 11
27.4477777778
 21
47.0133333333
 31
0.0
  0
LINE
  5
192
330
1F
100
AcDbEntity
  8
0
  6
Continuous
 62
     7
370
    25
100
AcDbLine
 10
27.4477777778
 20
47.0133333333
 30
0.0
 11
27.4477777778
 21
35.1911111111
 31
0.0
  0
LINE
  5
193
330
1F
100
AcDbEntity
  8
0
  6
Continuous
 62
     7
370
    25
100
AcDbLine
 10
27.4477777778
 20
35.1911111111
 30
0.0
 11
25.2596296296
 21
35.1911111111
 31
0.0
  0
LINE
  5
194
330
1F
100
AcDbEntity
  8
0
  6
Continuous
 62
     7
370
    25
100
AcDbLine
 10
25.2596296296
 20
35.1911111111
 30
0.0
 11
25.2596296296
 21
47.0133333333
 31
0.0
  0
LINE
  5
195
330
1F
100
AcDbEntity
  8
0
  6
Continuous
 62
     7
370
    25
100
AcDbLine
 10
25.2596296296
 20
47.0133333333
 30
0.0
 11
23.5096296296
 21
47.0133333333
 31
0.0
  0
LINE
  5
196
330
1F
100
AcDbEntity
  8
0
  6
Continuous
 62
     7
370
    25
100
AcDbLine
 10
23.5096296296
 20
47.0133333333
 30
0.0
 11
23.5096296296
 21
35.1911111111
 31
0.0
  0
LINE
  5
197
330
1F
100
AcDbEntity
  8
0
  6
Continuous
 62
     7
370
    25
100
AcDbLine
 10
23.5096296296
 20
35.1911111111
 30
0.0
 11
21.3214814815
 21
35.1911111111
 31
0.0
  0
LINE
  5
198
330
1F
100
AcDbEntity
  8
0
  6
Continuous
 62
     7
370
    25
100
AcDbLine
 10
21.3214814815
 20
35.1911111111
 30
0.0
 11
21.3214814815
 21
47.002962963
 31
0.0
  0
SPLINE
  5
199
330
1F
100
AcDbEntity
  8
0
  6
Continuous
 62
     7
370
    25
100
AcDbSpline
210
0.0
220
0.0
230
1.0
 70
     8
 71
     3
 72
    23
 73
    19
 74
     0
 42
0.00000001
 43
0.00000001
 40
0.0
 40
0.0
 40
0.0
 40
0.0
 40
0.0850892921864123
 40
0.1633248357182185
 40
0.2349137006961879
 40
0.2987476080046827
 40
0.3567909948453765
 40
0.4094081848277757
 40
0.4566716235360138
 40
0.5000588196616456
 40
0.5439837420851846
 40
0.5912471807934231
 40
0.6432169971046537
 40
0.7012603839453464
 40
0.7657834918094395
 40
0.8366751642817817
 40
0.9149107078135886
 40
1.0
 40
1.0
 40
1.0
 40
1.0
 10
21.32148148148146
 20
47.00296296296298
 30
0.0
 10
21.32303806142942
 20
47.10756796086349
 30
0.0
 10
21.32602584235639
 20
47.30835226237085
 30
0.0
 10
21.34679336477761
 20
47.59655498742041
 30
0.0
 10
21.37937912934385
 20
47.85729478392364
 30
0.0
 10
21.4249469515475
 20
48.0910294538226
 30
0.0
 10
21.48723382292355
 20
48.29668610425964
 30
0.0
 10
21.56135572082899
 20
48.47643539973274
 30
0.0
 10
21.64880421764485
 20
48.63025993341937
 30
0.0
 10
21.7569188638846
 20
48.7566714581957
 30
0.0
 10
21.88465034727205
 20
48.86308770824481
 30
0.0
 10
22.03806859456854
 20
48.95070772904828
 30
0.0
 10
22.21653497773209
 20
49.02592247018952
 30
0.0
 10
22.42238974669585
 20
49.08793615864335
 30
0.0
 10
22.65625010899835
 20
49.13266141835732
 30
0.0
 10
22.91686406246595
 20
49.16607021686069
 30
0.0
 10
23.20424861667864
 20
49.18650670156952
 30
0.0
 10
23.40502747008921
 20
49.18953396269312
 30
0.0
 10
23.5096296296296
 20
49.19111111111112
 30
0.0
  0
LINE
  5
19A
330
1F
100
AcDbEntity
  8
0
  6
Continuous
 62
     7
370
    25
100
AcDbLine
 10
14.5807407407
 20
41.7451851852
 30
0.0
 11
10.2044444444
 21
39.5674074074
 31
0.0
  0
LINE
  5
19B
330
1F
100
AcDbEntity
  8
0
  6
Continuous
 62
     7
370
    25
100
AcDbLine
 10
10.2044444444
 20
39.5674074074
 30
0.0
 11
10.2044444444
 21
47.002962963
 31
0.0
  0
SPLINE
  5
19C
330
1F
100
AcDbEntity
  8
0
  6
Continuous
 62
     7
370
    25
100
AcDbSpline
210
0.0
220
0.0
230
1.0
 70
     8
 71
     3
 72
    23
 73
    19
 74
     0
 42
0.00000001
 43
0.00000001
 40
0.0
 40
0.0
 40
0.0
 40
0.0
 40
0.0851839288800128
 40
0.1628045404588734
 40
0.2330772070398928
 40
0.297813779575907
 40
0.3557210626395015
 40
0.40802877049342
 40
0.4553447758108355
 40
0.4993185517307204
 40
0.5432923276506043
 40
0.5909681160281902
 40
0.6439204895980827
 40
0.7020284325547667
 40
0.7660765645228478
 40
0.8371412384921777
 40
0.9148160711199873
 40
1.0
 40
1.0
 40
1.0
 40
1.0
 10
10.20444444444443
 20
47.00296296296298
 30
0.0
 10
10.20596461560633
 20
47.10757534998881
 30
0.0
 10
10.2088699848548
 20
47.30751179128674
 30
0.0
 10
10.22985375046261
 20
47.59305054720292
 30
0.0
 10
10.26177203043571
 20
47.85249295450644
 30
0.0
 10
10.31216352649172
 20
48.08403515147687
 30
0.0
 10
10.36799235063767
 20
48.29207014985123
 30
0.0
 10
10.44817040068811
 20
48.46871414575209
 30
0.0
 10
10.53496760093062
 20
48.62268334280845
 30
0.0
 10
10.64151235975046
 20
48.7515361028526
 30
0.0
 10
10.77099587306143
 20
48.85754884075075
 30
0.0
 10
10.9239112538545
 20
48.94882934320128
 30
0.0
 10
11.10350010077573
 20
49.02600826456494
 30
0.0
 10
11.31008504339984
 20
49.08686138472078
 30
0.0
 10
11.54241835835018
 20
49.13600979442406
 30
0.0
 10
11.8015239723004
 20
49.1709068812426
 30
0.0
 10
12.08794197232725
 20
49.19518076967481
 30
0.0
 10
12.28796811553439
 20
49.19761543002214
 30
0.0
 10
12.39259259259258
 20
49.1988888888889
 30
0.0
  0
LINE
  5
19D
330
1F
100
AcDbEntity
  8
0
  6
Continuous
 62
     7
370
    25
100
AcDbLine
 10
12.3925925926
 20
49.1988888889
 30
0.0
 11
14.5807407407
 21
49.1911111111
 31
0.0
  0
SPLINE
  5
19E
330
1F
100
AcDbEntity
  8
0
  6
Continuous
 62
     7
370
    25
100
AcDbSpline
210
0.0
220
0.0
230
1.0
 70
     8
 71
     3
 72
    23
 73
    19
 74
     0
 42
0.00000001
 43
0.00000001
 40
0.0
 40
0.0
 40
0.0
 40
0.0
 40
0.0842256287408281
 40
0.1615644604021765
 40
0.2323209803493787
 40
0.2960331905182612
 40
0.3539659196466221
 40
0.4055654421159324
 40
0.4527387747106395
 40
0.4961341112465341
 40
0.539438591181243
 40
0.5863712686296635
 40
0.6388881457566329
 40
0.697492593391395
 40
0.7620339646841813
 40
0.8341823235976283
 40
0.9129685756388954
 40
1.0
 40
1.0
 40
1.0
 40
1.0
 10
14.58074074074073
 20
49.19111111111112
 30
0.0
 10
14.68445741184947
 20
49.18921458099832
 30
0.0
 10
14.88341025141755
 20
49.18557659255121
 30
0.0
 10
15.16928786912482
 20
49.16929655858247
 30
0.0
 10
15.42808472122104
 20
49.13531171610424
 30
0.0
 10
15.66112638483511
 20
49.09048802338107
 30
0.0
 10
15.86530770649417
 20
49.0276641412225
 30
0.0
 10
16.04529165405449
 20
48.9566462071785
 30
0.0
 10
16.19683222269116
 20
48.86774316638535
 30
0.0
 10
16.32677721354632
 20
48.76480062994177
 30
0.0
 10
16.43247925515292
 20
48.63749494449529
 30
0.0
 10
16.52518213521108
 20
48.48733194668949
 30
0.0
 10
16.59821739157801
 20
48.30612591720109
 30
0.0
 10
16.65948904479581
 20
48.09848253613521
 30
0.0
 10
16.70937803176075
 20
47.86283342360037
 30
0.0
 10
16.74066021975438
 20
47.59907902738117
 30
0.0
 10
16.76196787023158
 20
47.30664233993089
 30
0.0
 10
16.76480643896827
 20
47.10238967878682
 30
0.0
 10
16.76629629629628
 20
46.99518518518519
 30
0.0
  0
LINE
  5
19F
330
1F
100
AcDbEntity
  8
0
  6
Continuous
 62
     7
370
    25
100
AcDbLine
 10
16.7662962963
 20
46.9951851852
 30
0.0
 11
16.7662962963
 21
46.1292592593
 31
0.0
  0
LINE
  5
1A0
330
1F
100
AcDbEntity
  8
0
  6
Continuous
 62
     7
370
    25
100
AcDbLine
 10
16.7662962963
 20
46.1292592593
 30
0.0
 11
14.5807407407
 21
45.0351851852
 31
0.0
  0
LINE
  5
1A1
330
1F
100
AcDbEntity
  8
0
  6
Continuous
 62
     7
370
    25
100
AcDbLine
 10
14.5807407407
 20
45.0351851852
 30
0.0
 11
14.5807407407
 21
47.002962963
 31
0.0
  0
LINE
  5
1A2
330
1F
100
AcDbEntity
  8
0
  6
Continuous
 62
     7
370
    25
100
AcDbLine
 10
14.5807407407
 20
47.002962963
 30
0.0
 11
12.3925925926
 21
47.002962963
 31
0.0
  0
LINE
  5
1A3
330
1F
100
AcDbEntity
  8
0
  6
Continuous
 62
     7
370
    25
100
AcDbLine
 10
12.3925925926
 20
47.002962963
 30
0.0
 11
12.3925925926
 21
42.847037037
 31
0.0
  0
LINE
  5
1A4
330
1F
100
AcDbEntity
  8
0
  6
Continuous
 62
     7
370
    25
100
AcDbLine
 10
12.3925925926
 20
42.847037037
 30
0.0
 11
16.7662962963
 21
45.0351851852
 31
0.0
  0
LINE
  5
1A5
330
1F
100
AcDbEntity
  8
0
  6
Continuous
 62
     7
370
    25
100
AcDbLine
 10
16.7662962963
 20
45.0351851852
 30
0.0
 11
16.7662962963
 21
37.387037037
 31
0.0
  0
SPLINE
  5
1A6
330
1F
100
AcDbEntity
  8
0
  6
Continuous
 62
     7
370
    25
100
AcDbSpline
210
0.0
220
0.0
230
1.0
 70
     8
 71
     3
 72
    23
 73
    19
 74
     0
 42
0.00000001
 43
0.00000001
 40
0.0
 40
0.0
 40
0.0
 40
0.0
 40
0.0852427859377175
 40
0.1629170287692667
 40
0.2339365837103013
 40
0.2980289691502362
 40
0.3561770612594274
 40
0.4088891681187451
 40
0.4565978976469047
 40
0.5006020568456626
 40
0.5446062160444225
 40
0.5923149455725817
 40
0.6443785109544095
 40
0.7025266030635995
 40
0.7666189885035357
 40
0.8377327639603357
 40
0.9154612653043724
 40
1.0
 40
1.0
 40
1.0
 40
1.0
 10
16.76629629629628
 20
37.38703703703705
 30
0.0
 10
16.7647847474736
 20
37.28242599603121
 30
0.0
 10
16.76189585734264
 20
37.08249212726276
 30
0.0
 10
16.74073725370839
 20
36.79608095946148
 30
0.0
 10
16.70912787593774
 20
36.5366898615276
 30
0.0
 10
16.65958278411644
 20
36.3044324781342
 30
0.0
 10
16.59784178368567
 20
36.09865120205524
 30
0.0
 10
16.52456552078593
 20
35.91773473987227
 30
0.0
 10
16.43253062984343
 20
35.76557793717282
 30
0.0
 10
16.32688746331979
 20
35.63571439425414
 30
0.0
 10
16.19703651222704
 20
35.53000148603788
 30
0.0
 10
16.04542981166601
 20
35.43870486240576
 30
0.0
 10
15.86593872050706
 20
35.36414375956438
 30
0.0
 10
15.6607213350398
 20
35.3029913011129
 30
0.0
 10
15.42830192262263
 20
35.25403614983997
 30
0.0
 10
15.16922297388294
 20
35.21907907373267
 30
0.0
 10
14.8836587165782
 20
35.19489611648686
 30
0.0
 10
14.68449958546222
 20
35.1924075933815
 30
0.0
 10
14.58074074074073
 20
35.19111111111113
 30
0.0
  0
LINE
  5
1A7
330
1F
100
AcDbEntity
  8
0
  6
Continuous
 62
     7
370
    25
100
AcDbLine
 10
14.5807407407
 20
35.1911111111
 30
0.0
 11
12.3925925926
 21
35.1988888889
 31
0.0
  0
SPLINE
  5
1A8
330
1F
100
AcDbEntity
  8
0
  6
Continuous
 62
     7
370
    25
100
AcDbSpline
210
0.0
220
0.0
230
1.0
 70
     8
 71
     3
 72
    23
 73
    19
 74
     0
 42
0.00000001
 43
0.00000001
 40
0.0
 40
0.0
 40
0.0
 40
0.0
 40
0.0847510317536214
 40
0.1619295520238968
 40
0.2325394046902969
 40
0.2961195493389074
 40
0.3537325527565054
 40
0.4061405705505088
 40
0.4528659168946448
 40
0.4961713016350878
 40
0.5393860181059716
 40
0.586461567705935
 40
0.6391448420377972
 40
0.6974304676426055
 40
0.7625233214922188
 40
0.8338275950741592
 40
0.9131489782698465
 40
0.9999999999999999
 40
0.9999999999999999
 40
0.9999999999999999
 40
0.9999999999999999
 10
12.39259259259258
 20
35.1988888888889
 30
0.0
 10
12.28800761650763
 20
35.20075958339596
 30
0.0
 10
12.08818234033756
 20
35.20433382570587
 30
0.0
 10
11.80149121179236
 20
35.22082012843641
 30
0.0
 10
11.54253105599942
 20
35.25431256483303
 30
0.0
 10
11.31025665578598
 20
35.30066694746056
 30
0.0
 10
11.10352895629243
 20
35.35863233309374
 30
0.0
 10
10.92496764941127
 20
35.43406175864188
 30
0.0
 10
10.77044711835851
 20
35.51907611800439
 30
0.0
 10
10.64179319059877
 20
35.62298992716189
 30
0.0
 10
10.53424717080797
 20
35.74940252058203
 30
0.0
 10
10.44767474139585
 20
35.90383110507514
 30
0.0
 10
10.36807688443762
 20
36.08246923794319
 30
0.0
 10
10.31218675378397
 20
36.29302290626423
 30
0.0
 10
10.26154427095524
 20
36.52798860122028
 30
0.0
 10
10.22978074605453
 20
36.79264236717073
 30
0.0
 10
10.20889644550459
 20
37.08509020742993
 30
0.0
 10
10.20597260666217
 20
37.29020362679139
 30
0.0
 10
10.20444444444443
 20
37.39740740740742
 30
0.0
  0
LINE
  5
1A9
330
1F
100
AcDbEntity
  8
0
  6
Continuous
 62
     7
370
    25
100
AcDbLine
 10
10.2044444444
 20
37.3974074074
 30
0.0
 11
10.2044444444
 21
38.2633333333
 31
0.0
  0
LINE
  5
1AA
330
1F
100
AcDbEntity
  8
0
  6
Continuous
 62
     7
370
    25
100
AcDbLine
 10
10.2044444444
 20
38.2633333333
 30
0.0
 11
12.3925925926
 21
39.3574074074
 31
0.0
  0
LINE
  5
1AB
330
1F
100
AcDbEntity
  8
0
  6
Continuous
 62
     7
370
    25
100
AcDbLine
 10
12.3925925926
 20
39.3574074074
 30
0.0
 11
12.3925925926
 21
37.387037037
 31
0.0
  0
LINE
  5
1AC
330
1F
100
AcDbEntity
  8
0
  6
Continuous
 62
     7
370
    25
100
AcDbLine
 10
12.3925925926
 20
37.387037037
 30
0.0
 11
14.5807407407
 21
37.387037037
 31
0.0
  0
LINE
  5
1AD
330
1F
100
AcDbEntity
  8
0
  6
Continuous
 62
     7
370
    25
100
AcDbLine
 10
14.5807407407
 20
37.387037037
 30
0.0
 11
14.5807407407
 21
41.7451851852
 31
0.0
  0
LINE
  5
1AE
330
1F
100
AcDbEntity
  8
0
  6
Continuous
 62
     7
370
    25
100
AcDbLine
 10
-28.8918518519
 20
37.3688888889
 30
0.0
 11
-28.8918518519
 21
49.1911111111
 31
0.0
  0
LINE
  5
1AF
330
1F
100
AcDbEntity
  8
0
  6
Continuous
 62
     7
370
    25
100
AcDbLine
 10
-28.8918518519
 20
49.1911111111
 30
0.0
 11
-26.7062962963
 21
49.1911111111
 31
0.0
  0
LINE
  5
1B0
330
1F
100
AcDbEntity
  8
0
  6
Continuous
 62
     7
370
    25
100
AcDbLine
 10
-26.7062962963
 20
49.1911111111
 30
0.0
 11
-26.7062962963
 21
37.3792592593
 31
0.0
  0
SPLINE
  5
1B1
330
1F
100
AcDbEntity
  8
0
  6
Continuous
 62
     7
370
    25
100
AcDbSpline
210
0.0
220
0.0
230
1.0
 70
     8
 71
     3
 72
    23
 73
    19
 74
     0
 42
0.00000001
 43
0.00000001
 40
0.0
 40
0.0
 40
0.0
 40
0.0
 40
0.0851472156221891
 40
0.1634360169889681
 40
0.2343759480509876
 40
0.2989429791867221
 40
0.3570258783127288
 40
0.4090310724046414
 40
0.4563266850878445
 40
0.5002815088345427
 40
0.543698240233106
 40
0.5909938529163095
 40
0.6436468613706501
 40
0.701057020813278
 40
0.7656240519490117
 40
0.8365639830110322
 40
0.914852784377811
 40
1.0
 40
1.0
 40
1.0
 40
1.0
 10
-26.70629629629636
 20
37.37925925925928
 30
0.0
 10
-26.70787344479663
 20
37.27465710000676
 30
0.0
 10
-26.71090070607818
 20
37.07387824714873
 30
0.0
 10
-26.7313371897093
 20
36.78649368916565
 30
0.0
 10
-26.76474599176498
 20
36.52587974812576
 30
0.0
 10
-26.80947123999207
 20
36.29201934563655
 30
0.0
 10
-26.87148496513376
 20
36.08616470502499
 30
0.0
 10
-26.94669958940976
 20
35.90769791300903
 30
0.0
 10
-27.03431999009126
 20
35.7542809947135
 30
0.0
 10
-27.14073495033903
 20
35.62654499896463
 30
0.0
 10
-27.26715129985493
 20
35.51844723204389
 30
0.0
 10
-27.42095553340825
 20
35.4309277153478
 30
0.0
 10
-27.60002785432383
 20
35.3574299829023
 30
0.0
 10
-27.80528063003151
 20
35.29368498682761
 30
0.0
 10
-28.03851710731282
 20
35.24969935663922
 30
0.0
 10
-28.29907247161376
 20
35.2161092629135
 30
0.0
 10
-28.58647480088618
 20
35.1957277804105
 30
0.0
 10
-28.78725104941034
 20
35.192692458864
 30
0.0
 10
-28.89185185185192
 20
35.19111111111113
 30
0.0
  0
LINE
  5
1B2
330
1F
100
AcDbEntity
  8
0
  6
Continuous
 62
     7
370
    25
100
AcDbLine
 10
-28.8918518519
 20
35.1911111111
 30
0.0
 11
-31.08
 21
35.1911111111
 31
0.0
  0
SPLINE
  5
1B3
330
1F
100
AcDbEntity
  8
0
  6
Continuous
 62
     7
370
    25
100
AcDbSpline
210
0.0
220
0.0
230
1.0
 70
     8
 71
     3
 72
    23
 73
    19
 74
     0
 42
0.00000001
 43
0.00000001
 40
0.0
 40
0.0
 40
0.0
 40
0.0
 40
0.085325937193514
 40
0.1637790645161703
 40
0.2348678964653937
 40
0.2995704519535812
 40
0.3577752654243262
 40
0.4098896169318659
 40
0.4572845017539616
 40
0.5013315854190836
 40
0.5448394472956154
 40
0.5922343321177111
 40
0.6449978577315053
 40
0.7025285194575104
 40
0.7665399576287049
 40
0.8376287895779282
 40
0.9153788008251086
 40
1.0
 40
1.0
 40
1.0
 40
1.0
 10
-31.08000000000007
 20
35.19111111111113
 30
0.0
 10
-31.18460215928947
 20
35.19268825960428
 30
0.0
 10
-31.38538101221827
 20
35.19571552087216
 30
0.0
 10
-31.67276556971838
 20
35.21615200459654
 30
0.0
 10
-31.93337951235023
 20
35.24956080634485
 30
0.0
 10
-32.1672399096916
 20
35.29428605556583
 30
0.0
 10
-32.37309456674485
 20
35.35629977753318
 30
0.0
 10
-32.55156130638753
 20
35.43151441192064
 30
0.0
 10
-32.70497839492575
 20
35.51913477973424
 30
0.0
 10
-32.83271381264898
 20
35.62554985157855
 30
0.0
 10
-32.94081374178113
 20
35.75196578364698
 30
0.0
 10
-33.02832416095406
 20
35.90577177361418
 30
0.0
 10
-33.10186142820886
 20
36.08483646173924
 30
0.0
 10
-33.16518460411447
 20
36.28931146429984
 30
0.0
 10
-33.20990485152966
 20
36.52153413324845
 30
0.0
 10
-33.24292589623821
 20
36.78045639034837
 30
0.0
 10
-33.26358515344088
 20
37.06609421685685
 30
0.0
 10
-33.26658483660923
 20
37.26514947320026
 30
0.0
 10
-33.26814814814821
 20
37.36888888888891
 30
0.0
  0
LINE
  5
1B4
330
1F
100
AcDbEntity
  8
0
  6
Continuous
 62
     7
370
    25
100
AcDbLine
 10
-33.2681481481
 20
37.3688888889
 30
0.0
 11
-33.2681481481
 21
49.1911111111
 31
0.0
  0
LINE
  5
1B5
330
1F
100
AcDbEntity
  8
0
  6
Continuous
 62
     7
370
    25
100
AcDbLine
 10
-33.2681481481
 20
49.1911111111
 30
0.0
 11
-31.08
 21
49.1911111111
 31
0.0
  0
LINE
  5
1B6
330
1F
100
AcDbEntity
  8
0
  6
Continuous
 62
     7
370
    25
100
AcDbLine
 10
-31.08
 20
49.1911111111
 30
0.0
 11
-31.08
 21
37.3688888889
 31
0.0
  0
LINE
  5
1B7
330
1F
100
AcDbEntity
  8
0
  6
Continuous
 62
     7
370
    25
100
AcDbLine
 10
-31.08
 20
37.3688888889
 30
0.0
 11
-28.8918518519
 21
37.3688888889
 31
0.0
  0
LINE
  5
1B8
330
1F
100
AcDbEntity
  8
0
  6
Continuous
 62
     7
370
    25
100
AcDbLine
 10
-17.557037037
 20
46.9951851852
 30
0.0
 11
-17.557037037
 21
35.1911111111
 31
0.0
  0
LINE
  5
1B9
330
1F
100
AcDbEntity
  8
0
  6
Continuous
 62
     7
370
    25
100
AcDbLine
 10
-17.557037037
 20
35.1911111111
 30
0.0
 11
-19.7451851852
 21
35.1911111111
 31
0.0
  0
LINE
  5
1BA
330
1F
100
AcDbEntity
  8
0
  6
Continuous
 62
     7
370
    25
100
AcDbLine
 10
-19.7451851852
 20
35.1911111111
 30
0.0
 11
-19.7451851852
 21
47.002962963
 31
0.0
  0
LINE
  5
1BB
330
1F
100
AcDbEntity
  8
0
  6
Continuous
 62
     7
370
    25
100
AcDbLine
 10
-19.7451851852
 20
47.002962963
 30
0.0
 11
-22.1511111111
 21
46.9951851852
 31
0.0
  0
LINE
  5
1BC
330
1F
100
AcDbEntity
  8
0
  6
Continuous
 62
     7
370
    25
100
AcDbLine
 10
-22.1511111111
 20
46.9951851852
 30
0.0
 11
-22.1511111111
 21
49.1911111111
 31
0.0
  0
LINE
  5
1BD
330
1F
100
AcDbEntity
  8
0
  6
Continuous
 62
     7
370
    25
100
AcDbLine
 10
-22.1511111111
 20
49.1911111111
 30
0.0
 11
-15.062962963
 21
49.1911111111
 31
0.0
  0
LINE
  5
1BE
330
1F
100
AcDbEntity
  8
0
  6
Continuous
 62
     7
370
    25
100
AcDbLine
 10
-15.062962963
 20
49.1911111111
 30
0.0
 11
-15.062962963
 21
46.9951851852
 31
0.0
  0
LINE
  5
1BF
330
1F
100
AcDbEntity
  8
0
  6
Continuous
 62
     7
370
    25
100
AcDbLine
 10
-15.062962963
 20
46.9951851852
 30
0.0
 11
-17.557037037
 21
46.9951851852
 31
0.0
  0
LINE
  5
1C0
330
1F
100
AcDbEntity
  8
0
  6
Continuous
 62
     7
370
    25
100
AcDbLine
 10
16.0118518519
 20
57.5955555556
 30
0.0
 11
16.0118518519
 21
59.7837037037
 31
0.0
  0
LINE
  5
1C1
330
1F
100
AcDbEntity
  8
0
  6
Continuous
 62
     7
370
    25
100
AcDbLine
 10
16.0118518519
 20
59.7837037037
 30
0.0
 11
20.1677777778
 21
69.4074074074
 31
0.0
  0
LINE
  5
1C2
330
1F
100
AcDbEntity
  8
0
  6
Continuous
 62
     7
370
    25
100
AcDbLine
 10
20.1677777778
 20
69.4074074074
 30
0.0
 11
16.0118518519
 21
69.4074074074
 31
0.0
  0
LINE
  5
1C3
330
1F
100
AcDbEntity
  8
0
  6
Continuous
 62
     7
370
    25
100
AcDbLine
 10
16.0118518519
 20
69.4074074074
 30
0.0
 11
16.0118518519
 21
71.5955555556
 31
0.0
  0
LINE
  5
1C4
330
1F
100
AcDbEntity
  8
0
  6
Continuous
 62
     7
370
    25
100
AcDbLine
 10
16.0118518519
 20
71.5955555556
 30
0.0
 11
22.5737037037
 21
71.5955555556
 31
0.0
  0
LINE
  5
1C5
330
1F
100
AcDbEntity
  8
0
  6
Continuous
 62
     7
370
    25
100
AcDbLine
 10
22.5737037037
 20
71.5955555556
 30
0.0
 11
22.5737037037
 21
69.4074074074
 31
0.0
  0
LINE
  5
1C6
330
1F
100
AcDbEntity
  8
0
  6
Continuous
 62
     7
370
    25
100
AcDbLine
 10
22.5737037037
 20
69.4074074074
 30
0.0
 11
18.4281481481
 21
59.7733333333
 31
0.0
  0
LINE
  5
1C7
330
1F
100
AcDbEntity
  8
0
  6
Continuous
 62
     7
370
    25
100
AcDbLine
 10
18.4281481481
 20
59.7733333333
 30
0.0
 11
22.5737037037
 21
59.7837037037
 31
0.0
  0
LINE
  5
1C8
330
1F
100
AcDbEntity
  8
0
  6
Continuous
 62
     7
370
    25
100
AcDbLine
 10
22.5737037037
 20
59.7837037037
 30
0.0
 11
22.5737037037
 21
57.5955555556
 31
0.0
  0
LINE
  5
1C9
330
1F
100
AcDbEntity
  8
0
  6
Continuous
 62
     7
370
    25
100
AcDbLine
 10
22.5737037037
 20
57.5955555556
 30
0.0
 11
16.0118518519
 21
57.5955555556
 31
0.0
  0
LINE
  5
1CA
330
1F
100
AcDbEntity
  8
0
  6
Continuous
 62
     7
370
    25
100
AcDbLine
 10
6.5851851852
 20
57.5955555556
 30
0.0
 11
4.397037037
 21
57.5955555556
 31
0.0
  0
LINE
  5
1CB
330
1F
100
AcDbEntity
  8
0
  6
Continuous
 62
     7
370
    25
100
AcDbLine
 10
4.397037037
 20
57.5955555556
 30
0.0
 11
6.802962963
 21
64.5955555556
 31
0.0
  0
LINE
  5
1CC
330
1F
100
AcDbEntity
  8
0
  6
Continuous
 62
     7
370
    25
100
AcDbLine
 10
6.802962963
 20
64.5955555556
 30
0.0
 11
4.397037037
 21
71.5955555556
 31
0.0
  0
LINE
  5
1CD
330
1F
100
AcDbEntity
  8
0
  6
Continuous
 62
     7
370
    25
100
AcDbLine
 10
4.397037037
 20
71.5955555556
 30
0.0
 11
6.5851851852
 21
71.5955555556
 31
0.0
  0
LINE
  5
1CE
330
1F
100
AcDbEntity
  8
0
  6
Continuous
 62
     7
370
    25
100
AcDbLine
 10
6.5851851852
 20
71.5955555556
 30
0.0
 11
7.897037037
 21
67.7818518519
 31
0.0
  0
LINE
  5
1CF
330
1F
100
AcDbEntity
  8
0
  6
Continuous
 62
     7
370
    25
100
AcDbLine
 10
7.897037037
 20
67.7818518519
 30
0.0
 11
9.2088888889
 21
71.5955555556
 31
0.0
  0
LINE
  5
1D0
330
1F
100
AcDbEntity
  8
0
  6
Continuous
 62
     7
370
    25
100
AcDbLine
 10
9.2088888889
 20
71.5955555556
 30
0.0
 11
11.397037037
 21
71.5955555556
 31
0.0
  0
LINE
  5
1D1
330
1F
100
AcDbEntity
  8
0
  6
Continuous
 62
     7
370
    25
100
AcDbLine
 10
11.397037037
 20
71.5955555556
 30
0.0
 11
8.9911111111
 21
64.5955555556
 31
0.0
  0
LINE
  5
1D2
330
1F
100
AcDbEntity
  8
0
  6
Continuous
 62
     7
370
    25
100
AcDbLine
 10
8.9911111111
 20
64.5955555556
 30
0.0
 11
11.397037037
 21
57.5955555556
 31
0.0
  0
LINE
  5
1D3
330
1F
100
AcDbEntity
  8
0
  6
Continuous
 62
     7
370
    25
100
AcDbLine
 10
11.397037037
 20
57.5955555556
 30
0.0
 11
9.2088888889
 21
57.5955555556
 31
0.0
  0
LINE
  5
1D4
330
1F
100
AcDbEntity
  8
0
  6
Continuous
 62
     7
370
    25
100
AcDbLine
 10
9.2088888889
 20
57.5955555556
 30
0.0
 11
7.897037037
 21
61.4118518519
 31
0.0
  0
LINE
  5
1D5
330
1F
100
AcDbEntity
  8
0
  6
Continuous
 62
     7
370
    25
100
AcDbLine
 10
7.897037037
 20
61.4118518519
 30
0.0
 11
6.5851851852
 21
57.5955555556
 31
0.0
  0
LINE
  5
1D6
330
1F
100
AcDbEntity
  8
0
  6
Continuous
 62
     7
370
    25
100
AcDbLine
 10
-14.1555555556
 20
66.3533333333
 30
0.0
 11
-11.9674074074
 21
67.2218518519
 31
0.0
  0
LINE
  5
1D7
330
1F
100
AcDbEntity
  8
0
  6
Continuous
 62
     7
370
    25
100
AcDbLine
 10
-11.9674074074
 20
67.2218518519
 30
0.0
 11
-11.9674074074
 21
71.5955555556
 31
0.0
  0
LINE
  5
1D8
330
1F
100
AcDbEntity
  8
0
  6
Continuous
 62
     7
370
    25
100
AcDbLine
 10
-11.9674074074
 20
71.5955555556
 30
0.0
 11
-9.7818518519
 21
71.5955555556
 31
0.0
  0
LINE
  5
1D9
330
1F
100
AcDbEntity
  8
0
  6
Continuous
 62
     7
370
    25
100
AcDbLine
 10
-9.7818518519
 20
71.5955555556
 30
0.0
 11
-9.7818518519
 21
59.7914814815
 31
0.0
  0
SPLINE
  5
1DA
330
1F
100
AcDbEntity
  8
0
  6
Continuous
 62
     7
370
    25
100
AcDbSpline
210
0.0
220
0.0
230
1.0
 70
     8
 71
     3
 72
    23
 73
    19
 74
     0
 42
0.00000001
 43
0.00000001
 40
0.0
 40
0.0
 40
0.0
 40
0.0
 40
0.0852427859377175
 40
0.1629170287692667
 40
0.2339365837103012
 40
0.2980289691502362
 40
0.3561770612594273
 40
0.4088891681187449
 40
0.4565978976469043
 40
0.5006020568456626
 40
0.5446062160444225
 40
0.5923149455725817
 40
0.6443785109544095
 40
0.7025266030635999
 40
0.7666189885035353
 40
0.8377327639603356
 40
0.9154612653043723
 40
1.0
 40
1.0
 40
1.0
 40
1.0
 10
-9.7818518518519
 20
59.79148148148149
 30
0.0
 10
-9.783363400674583
 20
59.68687044047567
 30
0.0
 10
-9.786252290805546
 20
59.4869365717072
 30
0.0
 10
-9.80741089443979
 20
59.20052540390593
 30
0.0
 10
-9.839020272210444
 20
58.94113430597202
 30
0.0
 10
-9.888565364031747
 20
58.70887692257865
 30
0.0
 10
-9.95030636446252
 20
58.50309564649964
 30
0.0
 10
-10.02358262736225
 20
58.32217918431669
 30
0.0
 10
-10.11561751830476
 20
58.17002238161725
 30
0.0
 10
-10.22126068482839
 20
58.04015883869857
 30
0.0
 10
-10.35111163592114
 20
57.93444593048233
 30
0.0
 10
-10.50271833648217
 20
57.84314930685021
 30
0.0
 10
-10.68220942764112
 20
57.76858820400881
 30
0.0
 10
-10.88742681310839
 20
57.70743574555733
 30
0.0
 10
-11.11984622552555
 20
57.65848059428441
 30
0.0
 10
-11.37892517426524
 20
57.62352351817713
 30
0.0
 10
-11.66448943156998
 20
57.59934056093128
 30
0.0
 10
-11.86364856268596
 20
57.59685203782593
 30
0.0
 10
-11.96740740740746
 20
57.59555555555556
 30
0.0
  0
LINE
  5
1DB
330
1F
100
AcDbEntity
  8
0
  6
Continuous
 62
     7
370
    25
100
AcDbLine
 10
-11.9674074074
 20
57.5955555556
 30
0.0
 11
-14.1555555556
 21
57.6033333333
 31
0.0
  0
SPLINE
  5
1DC
330
1F
100
AcDbEntity
  8
0
  6
Continuous
 62
     7
370
    25
100
AcDbSpline
210
0.0
220
0.0
230
1.0
 70
     8
 71
     3
 72
    23
 73
    19
 74
     0
 42
0.00000001
 43
0.00000001
 40
0.0
 40
0.0
 40
0.0
 40
0.0
 40
0.0847510317536209
 40
0.1619295520238965
 40
0.2325394046902966
 40
0.2961195493389071
 40
0.3537325527565052
 40
0.4061405705505086
 40
0.4528659168946446
 40
0.4961713016350877
 40
0.5393860181059712
 40
0.5864615677059349
 40
0.6391448420377972
 40
0.6974304676426056
 40
0.7625233214922187
 40
0.833827595074159
 40
0.9131489782698466
 40
1.0
 40
1.0
 40
1.0
 40
1.0
 10
-14.1555555555556
 20
57.60333333333334
 30
0.0
 10
-14.26014053164055
 20
57.6052040278404
 30
0.0
 10
-14.45996580781062
 20
57.60877827015029
 30
0.0
 10
-14.74665693635582
 20
57.62526457288084
 30
0.0
 10
-15.00561709214877
 20
57.65875700927746
 30
0.0
 10
-15.2378914923622
 20
57.70511139190499
 30
0.0
 10
-15.44461919185576
 20
57.76307677753816
 30
0.0
 10
-15.62318049873692
 20
57.83850620308633
 30
0.0
 10
-15.77770102978967
 20
57.92352056244881
 30
0.0
 10
-15.90635495754942
 20
58.02743437160635
 30
0.0
 10
-16.01390097734021
 20
58.15384696502647
 30
0.0
 10
-16.10047340675233
 20
58.3082755495196
 30
0.0
 10
-16.18007126371056
 20
58.48691368238764
 30
0.0
 10
-16.23596139436422
 20
58.69746735070864
 30
0.0
 10
-16.28660387719294
 20
58.93243304566472
 30
0.0
 10
-16.31836740209366
 20
59.19708681161516
 30
0.0
 10
-16.3392517026436
 20
59.48953465187438
 30
0.0
 10
-16.34217554148602
 20
59.69464807123583
 30
0.0
 10
-16.34370370370375
 20
59.80185185185186
 30
0.0
  0
LINE
  5
1DD
330
1F
100
AcDbEntity
  8
0
  6
Continuous
 62
     7
370
    25
100
AcDbLine
 10
-16.3437037037
 20
59.8018518519
 30
0.0
 11
-16.3437037037
 21
60.6677777778
 31
0.0
  0
LINE
  5
1DE
330
1F
100
AcDbEntity
  8
0
  6
Continuous
 62
     7
370
    25
100
AcDbLine
 10
-16.3437037037
 20
60.6677777778
 30
0.0
 11
-14.1555555556
 21
61.7618518519
 31
0.0
  0
LINE
  5
1DF
330
1F
100
AcDbEntity
  8
0
  6
Continuous
 62
     7
370
    25
100
AcDbLine
 10
-14.1555555556
 20
61.7618518519
 30
0.0
 11
-14.1555555556
 21
59.7914814815
 31
0.0
  0
LINE
  5
1E0
330
1F
100
AcDbEntity
  8
0
  6
Continuous
 62
     7
370
    25
100
AcDbLine
 10
-14.1555555556
 20
59.7914814815
 30
0.0
 11
-11.9674074074
 21
59.7914814815
 31
0.0
  0
LINE
  5
1E1
330
1F
100
AcDbEntity
  8
0
  6
Continuous
 62
     7
370
    25
100
AcDbLine
 10
-11.9674074074
 20
59.7914814815
 30
0.0
 11
-11.9674074074
 21
64.8833333333
 31
0.0
  0
LINE
  5
1E2
330
1F
100
AcDbEntity
  8
0
  6
Continuous
 62
     7
370
    25
100
AcDbLine
 10
-11.9674074074
 20
64.8833333333
 30
0.0
 11
-16.3437037037
 21
62.8455555556
 31
0.0
  0
LINE
  5
1E3
330
1F
100
AcDbEntity
  8
0
  6
Continuous
 62
     7
370
    25
100
AcDbLine
 10
-16.3437037037
 20
62.8455555556
 30
0.0
 11
-16.3437037037
 21
71.5955555556
 31
0.0
  0
LINE
  5
1E4
330
1F
100
AcDbEntity
  8
0
  6
Continuous
 62
     7
370
    25
100
AcDbLine
 10
-16.3437037037
 20
71.5955555556
 30
0.0
 11
-14.1555555556
 21
71.5955555556
 31
0.0
  0
LINE
  5
1E5
330
1F
100
AcDbEntity
  8
0
  6
Continuous
 62
     7
370
    25
100
AcDbLine
 10
-14.1555555556
 20
71.5955555556
 30
0.0
 11
-14.1555555556
 21
66.3533333333
 31
0.0
  0
LINE
  5
1E6
330
1F
100
AcDbEntity
  8
0
  6
Continuous
 62
     7
370
    25
100
AcDbLine
 10
-27.4607407407
 20
57.5955555556
 30
0.0
 11
-27.4607407407
 21
59.7837037037
 31
0.0
  0
LINE
  5
1E7
330
1F
100
AcDbEntity
  8
0
  6
Continuous
 62
     7
370
    25
100
AcDbLine
 10
-27.4607407407
 20
59.7837037037
 30
0.0
 11
-23.3048148148
 21
69.4074074074
 31
0.0
  0
LINE
  5
1E8
330
1F
100
AcDbEntity
  8
0
  6
Continuous
 62
     7
370
    25
100
AcDbLine
 10
-23.3048148148
 20
69.4074074074
 30
0.0
 11
-27.4607407407
 21
69.4074074074
 31
0.0
  0
LINE
  5
1E9
330
1F
100
AcDbEntity
  8
0
  6
Continuous
 62
     7
370
    25
100
AcDbLine
 10
-27.4607407407
 20
69.4074074074
 30
0.0
 11
-27.4607407407
 21
71.5955555556
 31
0.0
  0
LINE
  5
1EA
330
1F
100
AcDbEntity
  8
0
  6
Continuous
 62
     7
370
    25
100
AcDbLine
 10
-27.4607407407
 20
71.5955555556
 30
0.0
 11
-20.8988888889
 21
71.5955555556
 31
0.0
  0
LINE
  5
1EB
330
1F
100
AcDbEntity
  8
0
  6
Continuous
 62
     7
370
    25
100
AcDbLine
 10
-20.8988888889
 20
71.5955555556
 30
0.0
 11
-20.8988888889
 21
69.4074074074
 31
0.0
  0
LINE
  5
1EC
330
1F
100
AcDbEntity
  8
0
  6
Continuous
 62
     7
370
    25
100
AcDbLine
 10
-20.8988888889
 20
69.4074074074
 30
0.0
 11
-25.0444444444
 21
59.7733333333
 31
0.0
  0
LINE
  5
1ED
330
1F
100
AcDbEntity
  8
0
  6
Continuous
 62
     7
370
    25
100
AcDbLine
 10
-25.0444444444
 20
59.7733333333
 30
0.0
 11
-20.8988888889
 21
59.7837037037
 31
0.0
  0
LINE
  5
1EE
330
1F
100
AcDbEntity
  8
0
  6
Continuous
 62
     7
370
    25
100
AcDbLine
 10
-20.8988888889
 20
59.7837037037
 30
0.0
 11
-20.8988888889
 21
57.5955555556
 31
0.0
  0
LINE
  5
1EF
330
1F
100
AcDbEntity
  8
0
  6
Continuous
 62
     7
370
    25
100
AcDbLine
 10
-20.8988888889
 20
57.5955555556
 30
0.0
 11
-27.4607407407
 21
57.5955555556
 31
0.0
  0
MTEXT
  5
1F1
330
1F
100
AcDbEntity
  8
0
  6
Continuous
 62
     7
100
AcDbMText
 10
-75.0
 20
-8.2699963917
 30
0.0
 40
4.83362
 41
0.0
 71
     1
 72
     1
  1
SOLIDWORKS \U+6559\U+80B2\U+7248\U+54C1\U+3002\U+4F9B\U+6559\U+5B66\U+4F7F\U+7528\U+3002
  7
SLDTEXTSTYLE0
 73
     1
 44
1.0
  0
ENDSEC
  0
SECTION
  2
OBJECTS
  0
DICTIONARY
  5
C
330
0
100
AcDbDictionary
281
     1
  3
ACAD_GROUP
350
D
  3
ACAD_LAYOUT
350
1A
  3
ACAD_MLINESTYLE
350
17
  3
ACAD_PLOTSETTINGS
350
19
  3
ACAD_PLOTSTYLENAME
350
E
  3
ACAD_SCALELIST
350
47
  3
DWGPROPS
350
1F2
  0
DICTIONARY
  5
D
102
{ACAD_REACTORS
330
C
102
}
330
C
100
AcDbDictionary
281
     1
  0
DICTIONARY
  5
1A
102
{ACAD_REACTORS
330
C
102
}
330
C
100
AcDbDictionary
281
     1
  3
Layout1
350
1E
  3
Layout2
350
26
  3
Model
350
22
  0
DICTIONARY
  5
17
102
{ACAD_REACTORS
330
C
102
}
330
C
100
AcDbDictionary
281
     1
  3
Standard
350
18
  0
DICTIONARY
  5
19
102
{ACAD_REACTORS
330
C
102
}
330
C
100
AcDbDictionary
281
     1
  0
ACDBDICTIONARYWDFLT
  5
E
102
{ACAD_REACTORS
330
C
102
}
330
C
100
AcDbDictionary
281
     1
  3
Normal
350
F
100
AcDbDictionaryWithDefault
340
F
  0
DICTIONARY
  5
47
102
{ACAD_REACTORS
330
C
102
}
330
C
100
AcDbDictionary
281
     1
  3
A0
350
48
  3
A1
350
49
  3
A2
350
4A
  3
A3
350
4B
  3
A4
350
4C
  3
A5
350
4D
  3
A6
350
4E
  3
A7
350
4F
  3
A8
350
50
  3
A9
350
51
  3
B0
350
52
  3
B1
350
53
  3
B2
350
54
  3
B3
350
55
  3
B4
350
56
  3
B5
350
57
  3
B6
350
58
  0
XRECORD
  5
1F2
102
{ACAD_REACTORS
330
C
102
}
330
C
100
AcDbXrecord
280
     1
  1
DWGPROPS COOKIE
  2

  3

  4

  6

  7

  8
AEX-7
  9

300
=
301
=
302
=
303
=
304
=
305
=
306
=
307
=
308
=
309
=
 40
0.0
 41
2460636.752048345
 42
2460636.752073808
  1

 90
        0
  0
LAYOUT
  5
1E
102
{ACAD_REACTORS
330
1A
102
}
330
1A
100
AcDbPlotSettings
  1

  2
none_device
  4

  6

 40
0.0
 41
0.0
 42
0.0
 43
0.0
 44
0.0
 45
0.0
 46
0.0
 47
0.0
 48
0.0
 49
0.0
140
0.0
141
0.0
142
1.0
143
1.0
 70
   688
 72
     1
 73
     0
 74
     5
  7

 75
    16
147
1.0
148
0.0
149
0.0
100
AcDbLayout
  1
Layout1
 70
     1
 71
     1
 10
0.0
 20
0.0
 11
420.0
 21
297.0
 12
0.0
 22
0.0
 32
0.0
 14
1.0000000000E+20
 24
1.0000000000E+20
 34
1.0000000000E+20
 15
-1.0000000000E+20
 25
-1.0000000000E+20
 35
-1.0000000000E+20
146
0.0
 13
0.0
 23
0.0
 33
0.0
 16
1.0
 26
0.0
 36
0.0
 17
0.0
 27
1.0
 37
0.0
 76
     0
330
1B
  0
LAYOUT
  5
26
102
{ACAD_REACTORS
330
1A
102
}
330
1A
100
AcDbPlotSettings
  1

  2
none_device
  4

  6

 40
0.0
 41
0.0
 42
0.0
 43
0.0
 44
0.0
 45
0.0
 46
0.0
 47
0.0
 48
0.0
 49
0.0
140
0.0
141
0.0
142
1.0
143
1.0
 70
   688
 72
     1
 73
     0
 74
     5
  7

 75
    16
147
1.0
148
0.0
149
0.0
100
AcDbLayout
  1
Layout2
 70
     1
 71
     2
 10
0.0
 20
0.0
 11
0.0
 21
0.0
 12
0.0
 22
0.0
 32
0.0
 14
0.0
 24
0.0
 34
0.0
 15
0.0
 25
0.0
 35
0.0
146
0.0
 13
0.0
 23
0.0
 33
0.0
 16
1.0
 26
0.0
 36
0.0
 17
0.0
 27
1.0
 37
0.0
 76
     0
330
23
  0
LAYOUT
  5
22
102
{ACAD_REACTORS
330
1A
102
}
330
1A
100
AcDbPlotSettings
  1

  2
none_device
  4
ANSI_A_(11.00_x_8.50_Inches)
  6

 40
6.35
 41
19.05
 42
6.35000508
 43
19.05000254
 44
279.4
 45
215.9
 46
129.6648078048
 47
-17.97050127
 48
0.0
 49
0.0
140
0.0
141
0.0
142
0.0290172414
143
1.0
 70
  1696
 72
     0
 73
     0
 74
     0
  7

 75
     0
147
0.0179189148
148
-1300.4909072572
149
0.0
100
AcDbLayout
  1
Model
 70
     1
 71
     0
 10
0.0
 20
0.0
 11
420.0
 21
297.0
 12
0.0
 22
0.0
 32
0.0
 14
-75.0
 24
0.0
 34
0.0
 15
85.0
 25
290.0
 35
0.0
146
0.0
 13
0.0
 23
0.0
 33
0.0
 16
1.0
 26
0.0
 36
0.0
 17
0.0
 27
1.0
 37
0.0
 76
     0
330
1F
331
29
  0
MLINESTYLE
  5
18
102
{ACAD_REACTORS
330
17
102
}
330
17
100
AcDbMlineStyle
  2
Standard
 70
     0
  3

 62
   256
 51
90.0
 52
90.0
 71
     2
 49
0.5
 62
   256
  6
BYLAYER
 49
-0.5
 62
   256
  6
BYLAYER
  0
ACDBPLACEHOLDER
  5
F
102
{ACAD_REACTORS
330
E
102
}
330
E
  0
SCALE
  5
48
102
{ACAD_REACTORS
330
47
102
}
330
47
100
AcDbScale
 70
     0
300
1:1
140
1.0
141
1.0
290
     1
  0
SCALE
  5
49
102
{ACAD_REACTORS
330
47
102
}
330
47
100
AcDbScale
 70
     0
300
1:2
140
1.0
141
2.0
290
     0
  0
SCALE
  5
4A
102
{ACAD_REACTORS
330
47
102
}
330
47
100
AcDbScale
 70
     0
300
1:4
140
1.0
141
4.0
290
     0
  0
SCALE
  5
4B
102
{ACAD_REACTORS
330
47
102
}
330
47
100
AcDbScale
 70
     0
300
1:5
140
1.0
141
5.0
290
     0
  0
SCALE
  5
4C
102
{ACAD_REACTORS
330
47
102
}
330
47
100
AcDbScale
 70
     0
300
1:8
140
1.0
141
8.0
290
     0
  0
SCALE
  5
4D
102
{ACAD_REACTORS
330
47
102
}
330
47
100
AcDbScale
 70
     0
300
1:10
140
1.0
141
10.0
290
     0
  0
SCALE
  5
4E
102
{ACAD_REACTORS
330
47
102
}
330
47
100
AcDbScale
 70
     0
300
1:16
140
1.0
141
16.0
290
     0
  0
SCALE
  5
4F
102
{ACAD_REACTORS
330
47
102
}
330
47
100
AcDbScale
 70
     0
300
1:20
140
1.0
141
20.0
290
     0
  0
SCALE
  5
50
102
{ACAD_REACTORS
330
47
102
}
330
47
100
AcDbScale
 70
     0
300
1:30
140
1.0
141
30.0
290
     0
  0
SCALE
  5
51
102
{ACAD_REACTORS
330
47
102
}
330
47
100
AcDbScale
 70
     0
300
1:40
140
1.0
141
40.0
290
     0
  0
SCALE
  5
52
102
{ACAD_REACTORS
330
47
102
}
330
47
100
AcDbScale
 70
     0
300
1:50
140
1.0
141
50.0
290
     0
  0
SCALE
  5
53
102
{ACAD_REACTORS
330
47
102
}
330
47
100
AcDbScale
 70
     0
300
1:100
140
1.0
141
100.0
290
     0
  0
SCALE
  5
54
102
{ACAD_REACTORS
330
47
102
}
330
47
100
AcDbScale
 70
     0
300
2:1
140
2.0
141
1.0
290
     0
  0
SCALE
  5
55
102
{ACAD_REACTORS
330
47
102
}
330
47
100
AcDbScale
 70
     0
300
4:1
140
4.0
141
1.0
290
     0
  0
SCALE
  5
56
102
{ACAD_REACTORS
330
47
102
}
330
47
100
AcDbScale
 70
     0
300
8:1
140
8.0
141
1.0
290
     0
  0
SCALE
  5
57
102
{ACAD_REACTORS
330
47
102
}
330
47
100
AcDbScale
 70
     0
300
10:1
140
10.0
141
1.0
290
     0
  0
SCALE
  5
58
102
{ACAD_REACTORS
330
47
102
}
330
47
100
AcDbScale
 70
     0
300
100:1
140
100.0
141
1.0
290
     0
  0
ENDSEC
  0
EOF
